<?xml version="1.0" encoding="utf-8"?>
<!-- Generator: Adobe Illustrator 27.2.0, SVG Export Plug-In . SVG Version: 6.00 Build 0)  -->
<svg version="1.1" id="Layer_1" xmlns="http://www.w3.org/2000/svg" xmlns:xlink="http://www.w3.org/1999/xlink" x="0px" y="0px"
	 viewBox="0 0 1375 682" style="enable-background:new 0 0 1375 682;" xml:space="preserve">
<style type="text/css">
	.st0{fill:#5A5A5A;}
	.st1{fill:#1B9E77;}
	.st2{fill:#9A1B5B;}
	.st3{fill:#CD247A;}
	.st4{fill:#C05401;}
	.st5{fill:#5A931A;}
	.st6{fill:#AF8536;}
	.st7{fill:#847FBB;}
	.st8{fill:#E6AB02;}
	.st9{fill:#67639F;}
	.st10{fill:#E1823A;}
	.st11{fill:#936819;}
	.st12{fill:#CCE9E0;}
	.st13{fill:#4DB395;}
	.st14{fill:#E8B41E;}
	.st15{fill:#CC9701;}
	.st16{fill:#4F4F4F;}
	.st17{fill:#938FC3;}
	.st18{fill:none;stroke:#000000;stroke-width:0.1317;stroke-linecap:round;stroke-miterlimit:1.3169;}
	.st19{fill:#F8766D;stroke:#F8766D;stroke-width:0.1317;stroke-linecap:square;stroke-miterlimit:1.3169;}
	.st20{fill:#00B6EB;stroke:#00B6EB;stroke-width:0.1317;stroke-linecap:square;stroke-miterlimit:1.3169;}
	.st21{fill:#505050;}
	.st22{font-family:'Arial-BoldMT';}
	.st23{font-size:12px;}
	.st24{fill:none;stroke:#505050;stroke-miterlimit:10;}
	.st25{fill:none;stroke:#5A931A;stroke-miterlimit:10;}
	.st26{fill:#6EE5BD;}
	.st27{fill:none;stroke:#C05401;stroke-width:1.0261;stroke-miterlimit:10;}
	.st28{fill:none;stroke:#1B9E77;stroke-miterlimit:10;}
</style>
<g id="mainHolder" transform="translate(731.74565,295.36132) rotate(-150) scale(0.13169,0.13169)">
	<g id="rangeHolder">
	</g>
	<g id="rangeDatasetHolder">
		<g>
			<path class="st0" d="M-532.5,1765.4l103-611.7c153,25.7,309,27.4,462.5,5l89.6,613.8C-94.9,1804.3-315.9,1801.9-532.5,1765.4"/>
		</g>
		<g>
			<path class="st1" d="M-504.9,1601.5l75.4-447.8c84,14.1,169.1,21,254.3,20.6l2.1,454.1C-284.3,1628.9-395.3,1619.9-504.9,1601.5"
				/>
		</g>
		<g>
			<path class="st2" d="M1815.6,176.5L1264.5,40.7c14.8-60.1,25.9-121.1,33.1-182.7l563.7,66.2C1851.3,9.2,1836.1,93.5,1815.6,176.5
				"/>
		</g>
		<g>
			<path class="st3" d="M496,1871.1l-236.9-763.6c51.8-16.1,102.6-34.9,152.3-56.5L730,1784.3C653.7,1817.4,575.5,1846.4,496,1871.1
				"/>
		</g>
		<g>
			<path class="st4" d="M785,1578.2l-289.5-566.9c41.4-21.1,81.7-44.2,120.9-69.1l341.2,537.4C901.6,1515.2,844,1548.1,785,1578.2"
				/>
		</g>
		<g>
			<path class="st5" d="M271.7,1687.5l-124.6-550c37.7-8.6,75.1-18.6,112.1-30l167.1,538.6C375.3,1661.9,323.7,1675.7,271.7,1687.5"
				/>
		</g>
		<g>
			<path class="st6" d="M-2145.5,679.3l634.2-321.4c14,27.6,28.8,54.8,44.5,81.5l-613,360.3
				C-2102.9,760.2-2124.9,720.1-2145.5,679.3"/>
		</g>
		<g>
			<path class="st7" d="M-1969.5,1016.3l592.5-441.6c18.5,24.8,37.8,49.1,57.8,72.7l-563.9,477.7
				C-1913,1089.7-1941.8,1053.5-1969.5,1016.3"/>
		</g>
		<g>
			<path class="st8" d="M-1179.1,1468.3l270-483.3c27,15.1,54.5,29.4,82.4,42.8l-239.4,499.2
				C-1104.3,1508.6-1142.1,1489-1179.1,1468.3"/>
		</g>
		<g>
			<path class="st9" d="M745,1818.8l-333.6-767.8c28.4-12.3,56.4-25.6,84-39.6l380.8,745.6C833.1,1778.9,789.4,1799.5,745,1818.8"/>
		</g>
		<g>
			<path class="st10" d="M-1903.3,271.6l310.9-106.1c7.5,22,15.5,43.8,24,65.4L-1874,351.4C-1884.4,325-1894.2,298.4-1903.3,271.6"
				/>
		</g>
		<g>
			<path class="st11" d="M123.3,1777.8l-90.4-619.1c23-3.4,45.9-7.2,68.7-11.7l119.2,614.2C188.4,1767.5,155.9,1773.1,123.3,1777.8"
				/>
		</g>
		<g>
			<path class="st12" d="M1717.1-1263.4L1151-980.9c-6.9-13.9-14-27.6-21.4-41.2l557.1-300
				C1697.1-1302.7,1707.3-1283.1,1717.1-1263.4"/>
		</g>
		<g>
			<path class="st13" d="M-1868,349l299.6-118.1c5.7,14.4,11.6,28.7,17.7,42.9l-295.8,127.4C-1854,383.9-1861.1,366.5-1868,349"/>
		</g>
		<g>
			<path class="st14" d="M-1933.3,713.6l466.5-274.2c7.8,13.3,15.9,26.6,24.2,39.7l-457.8,288.6
				C-1911.6,749.8-1922.6,731.8-1933.3,713.6"/>
		</g>
		<g>
			<path class="st15" d="M240.3,1861.6l-138.7-714.5c15.2-2.9,30.3-6.1,45.4-9.6l160.9,709.9
				C285.4,1852.5,262.9,1857.2,240.3,1861.6"/>
		</g>
		<g>
			<path class="st16" d="M1022,1289.7L711.9,876.3c12.4-9.3,24.6-18.8,36.7-28.4l322.9,403.6
				C1055.2,1264.4,1038.7,1277.2,1022,1289.7"/>
		</g>
		<g>
			<path class="st17" d="M-1730.2,81.1l104.6-26.8c1.9,7.5,3.9,15,5.9,22.4l-104.2,28.4C-1726,97.1-1728.2,89.1-1730.2,81.1"/>
		</g>
		<g>
			<path class="st0" d="M-532.5,1765.4l103-611.7c153,25.7,309,27.4,462.5,5l89.6,613.8C-94.9,1804.3-315.9,1801.9-532.5,1765.4"/>
		</g>
		<g>
			<path class="st1" d="M-504.9,1601.5l75.4-447.8c84,14.1,169.1,21,254.3,20.6l2.1,454.1C-284.3,1628.9-395.3,1619.9-504.9,1601.5"
				/>
		</g>
		<g>
			<path class="st2" d="M1815.6,176.5L1264.5,40.7c14.8-60.1,25.9-121.1,33.1-182.7l563.7,66.2C1851.3,9.2,1836.1,93.5,1815.6,176.5
				"/>
		</g>
		<g>
			<path class="st3" d="M496,1871.1l-236.9-763.6c51.8-16.1,102.6-34.9,152.3-56.5L730,1784.3C653.7,1817.4,575.5,1846.4,496,1871.1
				"/>
		</g>
		<g>
			<path class="st4" d="M785,1578.2l-289.5-566.9c41.4-21.1,81.7-44.2,120.9-69.1l341.2,537.4C901.6,1515.2,844,1548.1,785,1578.2"
				/>
		</g>
		<g>
			<path class="st5" d="M271.7,1687.5l-124.6-550c37.7-8.6,75.1-18.6,112.1-30l167.1,538.6C375.3,1661.9,323.7,1675.7,271.7,1687.5"
				/>
		</g>
		<g>
			<path class="st6" d="M-2145.5,679.3l634.2-321.4c14,27.6,28.8,54.8,44.5,81.5l-613,360.3
				C-2102.9,760.2-2124.9,720.1-2145.5,679.3"/>
		</g>
		<g>
			<path class="st9" d="M745,1818.8l-333.6-767.8c28.4-12.3,56.4-25.6,84-39.6l380.8,745.6C833.1,1778.9,789.4,1799.5,745,1818.8"/>
		</g>
		<g>
			<path class="st10" d="M-1903.3,271.6l310.9-106.1c7.5,22,15.5,43.8,24,65.4L-1874,351.4C-1884.4,325-1894.2,298.4-1903.3,271.6"
				/>
		</g>
		<g>
			<path class="st11" d="M123.3,1777.8l-90.4-619.1c23-3.4,45.9-7.2,68.7-11.7l119.2,614.2C188.4,1767.5,155.9,1773.1,123.3,1777.8"
				/>
		</g>
		<g>
			<path class="st12" d="M1717.1-1263.4L1151-980.9c-6.9-13.9-14-27.6-21.4-41.2l557.1-300
				C1697.1-1302.7,1707.3-1283.1,1717.1-1263.4"/>
		</g>
		<g>
			<path class="st13" d="M-1868,349l299.6-118.1c5.7,14.4,11.6,28.7,17.7,42.9l-295.8,127.4C-1854,383.9-1861.1,366.5-1868,349"/>
		</g>
		<g>
			<path class="st14" d="M-1933.3,713.6l466.5-274.2c7.8,13.3,15.9,26.6,24.2,39.7l-457.8,288.6
				C-1911.6,749.8-1922.6,731.8-1933.3,713.6"/>
		</g>
		<g>
			<path class="st15" d="M240.3,1861.6l-138.7-714.5c15.2-2.9,30.3-6.1,45.4-9.6l160.9,709.9
				C285.4,1852.5,262.9,1857.2,240.3,1861.6"/>
		</g>
		<g>
			<path class="st16" d="M1022,1289.7L711.9,876.3c12.4-9.3,24.6-18.8,36.7-28.4l322.9,403.6
				C1055.2,1264.4,1038.7,1277.2,1022,1289.7"/>
		</g>
		<g>
			<path class="st17" d="M-1730.2,81.1l104.6-26.8c1.9,7.5,3.9,15,5.9,22.4l-104.2,28.4C-1726,97.1-1728.2,89.1-1730.2,81.1"/>
		</g>
	</g>
	<g id="pruningHolder">
	</g>
	<g id="treeHolder">
		<g>
			<path class="st18" d="M1353.9-586.5l242.3-42.7"/>
		</g>
		<g>
			<path class="st18" d="M1363.2-613.1l227.9-43.9"/>
		</g>
		<g>
			<path class="st18" d="M1344.2-634.1l308-64.3"/>
		</g>
		<g>
			<path class="st18" d="M1281.2-644.9l361-81.2"/>
		</g>
		<g>
			<path class="st18" d="M1296.6-672.6l339-81.8"/>
		</g>
		<g>
			<path class="st18" d="M1329.2-705.5L1952-866.2"/>
		</g>
		<g>
			<path class="st18" d="M1334.6-732.3l255-70"/>
		</g>
		<g>
			<path class="st18" d="M1320.6-753.7l261.2-76.1"/>
		</g>
		<g>
			<path class="st18" d="M1308-775.3l291.2-89.8"/>
		</g>
		<g>
			<path class="st18" d="M1271.9-789.1l516.7-168.2"/>
		</g>
		<g>
			<path class="st18" d="M1365.4-846.4l413-141.6"/>
		</g>
		<g>
			<path class="st18" d="M1294.4-847.9l199.4-71.9"/>
		</g>
		<g>
			<path class="st18" d="M1285.4-870.7l198.9-75.2"/>
		</g>
		<g>
			<path class="st18" d="M1277.2-893.7l223.2-88.4"/>
		</g>
		<g>
			<path class="st18" d="M1263.1-914.3l337.2-139.7"/>
		</g>
		<g>
			<path class="st18" d="M1246.1-933.5l146.2-63.2"/>
		</g>
		<g>
			<path class="st18" d="M1250.4-962.1l131-59.1"/>
		</g>
		<g>
			<path class="st18" d="M1225-977.2l302.6-142.2"/>
		</g>
		<g>
			<path class="st18" d="M1232.9-1008l348.6-170.6"/>
		</g>
		<g>
			<path class="st18" d="M1206-1021.9l503.7-256.3"/>
		</g>
		<g>
			<path class="st18" d="M1228.2-1061.1l466.3-246.4"/>
		</g>
		<g>
			<path class="st18" d="M1199.1-1073.5l522.4-286.6"/>
		</g>
		<g>
			<path class="st18" d="M1217.9-1112.4l467.2-265.9"/>
		</g>
		<g>
			<path class="st18" d="M1142.6-1097.2l525.7-310.1"/>
		</g>
		<g>
			<path class="st18" d="M1193.8-1156.5l299.5-183"/>
		</g>
		<g>
			<path class="st18" d="M1175.9-1175l301.2-190.6"/>
		</g>
		<g>
			<path class="st18" d="M1158.3-1193.4l671.3-439.5"/>
		</g>
		<g>
			<path class="st18" d="M1203.5-1254.1l508.8-344.5"/>
		</g>
		<g>
			<path class="st18" d="M1085.7-1203.5L1692-1628"/>
		</g>
		<g>
			<path class="st18" d="M1089.9-1236.3l87.6-63.4"/>
		</g>
		<g>
			<path class="st18" d="M1065.1-1248.3l96.9-72.4"/>
		</g>
		<g>
			<path class="st18" d="M1054.8-1271l117.3-90.6"/>
		</g>
		<g>
			<path class="st18" d="M1042-1292l132.7-105.8"/>
		</g>
		<g>
			<path class="st18" d="M1020.5-1305.8l156-128.5"/>
		</g>
		<g>
			<path class="st18" d="M1013.4-1331.7l133.2-113.2"/>
		</g>
		<g>
			<path class="st18" d="M994.3-1347.5l134.6-118"/>
		</g>
		<g>
			<path class="st18" d="M1003.9-1389l141.7-128.2"/>
		</g>
		<g>
			<path class="st18" d="M1000.3-1419.8l126.4-118"/>
		</g>
		<g>
			<path class="st18" d="M1036.5-1489.6l249.8-240.7"/>
		</g>
		<g>
			<path class="st18" d="M977.1-1467.8l362.8-360.5"/>
		</g>
		<g>
			<path class="st18" d="M1078.2-1608l321.6-329.8"/>
		</g>
		<g>
			<path class="st18" d="M906.6-1467.4l467.8-494.8"/>
		</g>
		<g>
			<path class="st18" d="M900.5-1497.3l162.1-176.9"/>
		</g>
		<g>
			<path class="st18" d="M879-1510.6l162.4-182.9"/>
		</g>
		<g>
			<path class="st18" d="M834.5-1497.1l319-370.7"/>
		</g>
		<g>
			<path class="st18" d="M870.2-1577.9l304-364.6"/>
		</g>
		<g>
			<path class="st18" d="M809.8-1543.9l398.2-493"/>
		</g>
		<g>
			<path class="st18" d="M811-1585.3l463.6-592.7"/>
		</g>
		<g>
			<path class="st18" d="M777.3-1582.4l79.2-104.5"/>
		</g>
		<g>
			<path class="st18" d="M758.6-1598.8l76.3-104.1"/>
		</g>
		<g>
			<path class="st18" d="M761-1645l423.3-596.5"/>
		</g>
		<g>
			<path class="st18" d="M722.5-1633.8l431.6-628.8"/>
		</g>
		<g>
			<path class="st18" d="M708.5-1657.8l463.8-698.8"/>
		</g>
		<g>
			<path class="st18" d="M671.3-1646.3l77.6-120.9"/>
		</g>
		<g>
			<path class="st18" d="M652.2-1662.3l73.9-119.3"/>
		</g>
		<g>
			<path class="st18" d="M642.2-1693.6l278.1-464.8"/>
		</g>
		<g>
			<path class="st18" d="M622.4-1709.4l304-526.5"/>
		</g>
		<g>
			<path class="st18" d="M601.8-1723.8l318.9-572.8"/>
		</g>
		<g>
			<path class="st18" d="M563.1-1704.9l154.3-287.6"/>
		</g>
		<g>
			<path class="st18" d="M533.9-1701.8l157.3-304.4"/>
		</g>
		<g>
			<path class="st18" d="M519.8-1728.2l350.6-705.4"/>
		</g>
		<g>
			<path class="st18" d="M487.9-1718.4L695-2151.9"/>
		</g>
		<g>
			<path class="st18" d="M462.8-1721.8l203.5-443.6"/>
		</g>
		<g>
			<path class="st18" d="M443.6-1738.1l65.3-148.3"/>
		</g>
		<g>
			<path class="st18" d="M445.9-1805.7l38.5-91.2"/>
		</g>
		<g>
			<path class="st18" d="M429.1-1831.6l94.3-233.8"/>
		</g>
		<g>
			<path class="st18" d="M364.2-1733.9l162.1-420.7"/>
		</g>
		<g>
			<path class="st18" d="M369.4-1816.9l176.4-480"/>
		</g>
		<g>
			<path class="st18" d="M347-1828.1l111.5-318.7"/>
		</g>
		<g>
			<path class="st18" d="M304.6-1779.8l125.3-376.7"/>
		</g>
		<g>
			<path class="st18" d="M330.3-1941.2l159.3-505.4"/>
		</g>
		<g>
			<path class="st18" d="M295.2-1916.5l82.4-276.1"/>
		</g>
		<g>
			<path class="st18" d="M228.9-1777l119.3-424.1"/>
		</g>
		<g>
			<path class="st18" d="M238.4-1905.4l39.8-150.3"/>
		</g>
		<g>
			<path class="st18" d="M211.1-1901.9l39.9-160.8"/>
		</g>
		<g>
			<path class="st18" d="M181.1-1885.1l26-112.2"/>
		</g>
		<g>
			<path class="st18" d="M155.5-1885.6l25.3-117.6"/>
		</g>
		<g>
			<path class="st18" d="M125.9-1864.9l133.9-673.4"/>
		</g>
		<g>
			<path class="st18" d="M107.7-1902.1l66.9-365.9"/>
		</g>
		<g>
			<path class="st18" d="M90.4-1951l53.7-322.3"/>
		</g>
		<g>
			<path class="st18" d="M68.6-1980l74.6-495"/>
		</g>
		<g>
			<path class="st18" d="M31.5-1900.8l104.2-773.1"/>
		</g>
		<g>
			<path class="st18" d="M5-1889.5l9.3-78"/>
		</g>
		<g>
			<path class="st18" d="M-18.9-1898.7l7.4-71.7"/>
		</g>
		<g>
			<path class="st18" d="M-46.6-1865.9l19.2-219.9"/>
		</g>
		<g>
			<path class="st18" d="M-66.2-1932.1L-55-2088"/>
		</g>
		<g>
			<path class="st18" d="M-95.6-1858.8l24.7-439.5"/>
		</g>
		<g>
			<path class="st18" d="M-117.4-1916l5.8-142.3"/>
		</g>
		<g>
			<path class="st18" d="M-142.3-1919.4l3.5-139.7"/>
		</g>
		<g>
			<path class="st18" d="M-167.3-1913.5l2.4-256.5"/>
		</g>
		<g>
			<path class="st18" d="M-192.2-1913.1l-3.5-558.4"/>
		</g>
		<g>
			<path class="st18" d="M-216.7-1893.3l-12.6-577.7"/>
		</g>
		<g>
			<path class="st18" d="M-241.5-1900.1l-24.6-658.6"/>
		</g>
		<g>
			<path class="st18" d="M-266.2-1898.3l-34.9-658.8"/>
		</g>
		<g>
			<path class="st18" d="M-294.6-1951.6l-18.5-270.1"/>
		</g>
		<g>
			<path class="st18" d="M-324.4-2001.5l-18.4-217.9"/>
		</g>
		<g>
			<path class="st18" d="M-347.4-1966.1l-20.5-205.1"/>
		</g>
		<g>
			<path class="st18" d="M-369.7-1934l-27.1-234"/>
		</g>
		<g>
			<path class="st18" d="M-394.1-1925.2l-25.4-192.6"/>
		</g>
		<g>
			<path class="st18" d="M-421.2-1935.5l-26.3-178.3"/>
		</g>
		<g>
			<path class="st18" d="M-438.3-1881.6l-40.9-249.9"/>
		</g>
		<g>
			<path class="st18" d="M-462-1873.8l-52.8-294.1"/>
		</g>
		<g>
			<path class="st18" d="M-493.3-1905.4l-119.5-610.8"/>
		</g>
		<g>
			<path class="st18" d="M-520.9-1913.9l-126.2-595.3"/>
		</g>
		<g>
			<path class="st18" d="M-545.3-1906.4l-43.3-189.8"/>
		</g>
		<g>
			<path class="st18" d="M-568.3-1893.2l-48.1-196.4"/>
		</g>
		<g>
			<path class="st18" d="M-594.9-1895.1l-95.4-365.1"/>
		</g>
		<g>
			<path class="st18" d="M-619.3-1888l-186.4-670.4"/>
		</g>
		<g>
			<path class="st18" d="M-633-1844.2l-41.3-140"/>
		</g>
		<g>
			<path class="st18" d="M-655.9-1834.3l-44.3-142"/>
		</g>
		<g>
			<path class="st18" d="M-696.4-1878.2l-121.2-368.3"/>
		</g>
		<g>
			<path class="st18" d="M-725.9-1885l-121.7-351.4"/>
		</g>
		<g>
			<path class="st18" d="M-744-1859.2l-197.7-543.3"/>
		</g>
		<g>
			<path class="st18" d="M-769.9-1855.1l-138-361.6"/>
		</g>
		<g>
			<path class="st18" d="M-804.3-1872l-133.2-333.1"/>
		</g>
		<g>
			<path class="st18" d="M-826.3-1856.9l-133.2-318.7"/>
		</g>
		<g>
			<path class="st18" d="M-836-1814l-152.3-349.2"/>
		</g>
		<g>
			<path class="st18" d="M-883.1-1856l-163.2-358.8"/>
		</g>
		<g>
			<path class="st18" d="M-884.2-1796.8l-124.3-262.3"/>
		</g>
		<g>
			<path class="st18" d="M-907.3-1785.9l-128.3-260.1"/>
		</g>
		<g>
			<path class="st18" d="M-939.6-1793l-323.1-630.3"/>
		</g>
		<g>
			<path class="st18" d="M-955.6-1768l-339.9-638.2"/>
		</g>
		<g>
			<path class="st18" d="M-1005.3-1804.8l-268.9-486.6"/>
		</g>
		<g>
			<path class="st18" d="M-996.3-1735.9l-308.5-538.2"/>
		</g>
		<g>
			<path class="st18" d="M-1013.5-1714.8l-324.4-546.1"/>
		</g>
		<g>
			<path class="st18" d="M-1051.4-1728.1l-316.6-514.5"/>
		</g>
		<g>
			<path class="st18" d="M-1062.5-1697.4l-387.8-608.8"/>
		</g>
		<g>
			<path class="st18" d="M-1069.4-1661.5l-116.2-176.3"/>
		</g>
		<g>
			<path class="st18" d="M-1102.2-1665l-107-157"/>
		</g>
		<g>
			<path class="st18" d="M-1124.6-1652.5l-138.8-196.9"/>
		</g>
		<g>
			<path class="st18" d="M-1158.9-1656.4l-282.2-387.4"/>
		</g>
		<g>
			<path class="st18" d="M-1159.2-1613.8l-308.7-410.2"/>
		</g>
		<g>
			<path class="st18" d="M-1170.8-1587.4l-451.8-581.3"/>
		</g>
		<g>
			<path class="st18" d="M-1177.5-1555.7l-473.8-590.4"/>
		</g>
		<g>
			<path class="st18" d="M-1188.1-1529.7l-520.6-628.3"/>
		</g>
		<g>
			<path class="st18" d="M-1257.5-1573l-479.7-561"/>
		</g>
		<g>
			<path class="st18" d="M-1259.5-1536.4l-384.7-436"/>
		</g>
		<g>
			<path class="st18" d="M-1273-1513.5l-396.9-435.9"/>
		</g>
		<g>
			<path class="st18" d="M-1275.3-1479l-546.6-581.8"/>
		</g>
		<g>
			<path class="st18" d="M-1294-1462.6l-2.7-2.8"/>
		</g>
		<g>
			<path class="st18" d="M-1314.2-1447.6l-0.3-0.3"/>
		</g>
		<g>
			<path class="st18" d="M-1324.9-1423.2l-98.4-95.4"/>
		</g>
		<g>
			<path class="st18" d="M-1344.6-1407.8l-84-78.9"/>
		</g>
		<g>
			<path class="st18" d="M-1363.1-1390.9l-83.7-76.2"/>
		</g>
		<g>
			<path class="st18" d="M-1382.8-1375.1l-143.8-126.9"/>
		</g>
		<g>
			<path class="st18" d="M-1395-1352.8l-172.8-147.8"/>
		</g>
		<g>
			<path class="st18" d="M-1415-1337.1l-58.9-48.8"/>
		</g>
		<g>
			<path class="st18" d="M-1431.5-1318.3l-58.9-47.3"/>
		</g>
		<g>
			<path class="st18" d="M-1442.9-1295.6l-98.8-76.8"/>
		</g>
		<g>
			<path class="st18" d="M-1457.2-1275.1l-127.4-95.9"/>
		</g>
		<g>
			<path class="st18" d="M-1467.2-1251.7l-190.2-138.6"/>
		</g>
		<g>
			<path class="st18" d="M-1486.7-1235.1l-201.9-142.3"/>
		</g>
		<g>
			<path class="st18" d="M-1513.2-1223.1l-268.6-183.2"/>
		</g>
		<g>
			<path class="st18" d="M-1602.9-1252.2l-321.4-211.9"/>
		</g>
		<g>
			<path class="st18" d="M-1527.8-1172.9l-168-107"/>
		</g>
		<g>
			<path class="st18" d="M-1544.6-1154l-166-102.2"/>
		</g>
		<g>
			<path class="st18" d="M-1555.7-1131.6l-229.2-136.2"/>
		</g>
		<g>
			<path class="st18" d="M-1594.3-1125.1l-705.2-404.2"/>
		</g>
		<g>
			<path class="st18" d="M-1617.5-1108.9l-541.8-299.5"/>
		</g>
		<g>
			<path class="st18" d="M-1634.2-1088.9l-541.9-288.6"/>
		</g>
		<g>
			<path class="st18" d="M-1611.6-1048.5l-73-37.4"/>
		</g>
		<g>
			<path class="st18" d="M-1610.8-1020.1l-85.7-42.3"/>
		</g>
		<g>
			<path class="st18" d="M-1584.9-980.4l-203.8-96.6"/>
		</g>
		<g>
			<path class="st18" d="M-1591.1-956.6l-459.4-209"/>
		</g>
		<g>
			<path class="st18" d="M-1629.4-947.1l-434.1-189.4"/>
		</g>
		<g>
			<path class="st18" d="M-1620.9-916.8l-141.4-59.1"/>
		</g>
		<g>
			<path class="st18" d="M-1629.8-894.2l-142.6-57"/>
		</g>
		<g>
			<path class="st18" d="M-1656-878.2L-1656-878.2"/>
		</g>
		<g>
			<path class="st18" d="M-1664.6-855.2L-1664.6-855.2"/>
		</g>
		<g>
			<path class="st18" d="M-1646.6-823l-470.9-163.1"/>
		</g>
		<g>
			<path class="st18" d="M-1724-823l-200.9-66.1"/>
		</g>
		<g>
			<path class="st18" d="M-1707.4-791.3l-226.2-70.5"/>
		</g>
		<g>
			<path class="st18" d="M-1708.5-765.7l-259.5-76.5"/>
		</g>
		<g>
			<path class="st18" d="M-1683.3-733l-377.4-104.9"/>
		</g>
		<g>
			<path class="st18" d="M-1736.5-721.8l-270.1-70.6"/>
		</g>
		<g>
			<path class="st18" d="M-1728-693.9l-285.9-70"/>
		</g>
		<g>
			<path class="st18" d="M-1764.6-676.8l-410.3-93.6"/>
		</g>
		<g>
			<path class="st18" d="M-1763.6-650.8l-482.1-102.2"/>
		</g>
		<g>
			<path class="st18" d="M-1778.3-628l-708.9-138.7"/>
		</g>
		<g>
			<path class="st18" d="M-1741.3-595.6l-256.7-46.1"/>
		</g>
		<g>
			<path class="st18" d="M-1736.5-569.8l-266.3-43.5"/>
		</g>
		<g>
			<path class="st18" d="M-1733.9-544.6l-174.6-25.8"/>
		</g>
		<g>
			<path class="st18" d="M-1751.9-522.3l-160.3-21.1"/>
		</g>
		<g>
			<path class="st18" d="M-1748.9-497.1l-220.1-25.5"/>
		</g>
		<g>
			<path class="st18" d="M-1750.2-472.6l-388.6-38.9"/>
		</g>
		<g>
			<path class="st18" d="M-1751.3-448l-294.5-24.8"/>
		</g>
		<g>
			<path class="st18" d="M-1756.4-423.8l-291.5-20"/>
		</g>
		<g>
			<path class="st18" d="M-1743.3-398.4l-94.1-5"/>
		</g>
		<g>
			<path class="st18" d="M-1734.6-373.7l-104-3.9"/>
		</g>
		<g>
			<path class="st18" d="M-1752.7-349.9L-1752.7-349.9"/>
		</g>
		<g>
			<path class="st18" d="M-1753-325.5L-1753-325.5"/>
		</g>
		<g>
			<path class="st18" d="M-1760.1-300.9l-92.8,0.9"/>
		</g>
		<g>
			<path class="st18" d="M-1780.7-275.8l-434.5,10.8"/>
		</g>
		<g>
			<path class="st18" d="M-1804.2-249.9l-410,16.6"/>
		</g>
		<g>
			<path class="st18" d="M-1730.4-228.7l-843.6,47.4"/>
		</g>
		<g>
			<path class="st18" d="M-1739.9-203.8l-623.6,44.8"/>
		</g>
		<g>
			<path class="st18" d="M-1774.5-176.4l-586.4,51.3"/>
		</g>
		<g>
			<path class="st18" d="M-1748.9-154l-641.3,66.2"/>
		</g>
		<g>
			<path class="st18" d="M-1738-130.5l-709.8,84.5"/>
		</g>
		<g>
			<path class="st18" d="M-1772.9-101.2l-299.6,40.4"/>
		</g>
		<g>
			<path class="st18" d="M-1763.9-77.3l-304.4,45.9"/>
		</g>
		<g>
			<path class="st18" d="M-1724.7-58.5l-636.3,106.1"/>
		</g>
		<g>
			<path class="st18" d="M-1717.4-35.1L-2355,81.4"/>
		</g>
		<g>
			<path class="st18" d="M-1716.6-10.5l-432.9,86.1"/>
		</g>
		<g>
			<path class="st18" d="M-1719.2,15l-423.9,91.2"/>
		</g>
		<g>
			<path class="st18" d="M-1722.3,40.9l-604.1,139.9"/>
		</g>
		<g>
			<path class="st18" d="M-1710.8,63.4l-634.4,157.3"/>
		</g>
		<g>
			<path class="st18" d="M-1727.1,93.1l-685.7,181.4"/>
		</g>
		<g>
			<path class="st18" d="M-1744.9,124l-765.2,215.3"/>
		</g>
		<g>
			<path class="st18" d="M-1694.5,135.4l-729,217.4"/>
		</g>
		<g>
			<path class="st18" d="M-1764.6,183.3l-648.2,204.4"/>
		</g>
		<g>
			<path class="st18" d="M-1710.1,192.4l-776.2,258.1"/>
		</g>
		<g>
			<path class="st18" d="M-1660.9,201.7l-216.6,75.8"/>
		</g>
		<g>
			<path class="st18" d="M-1660,227.4l-208,76.4"/>
		</g>
		<g>
			<path class="st18" d="M-1649,249.5l-230.2,88.7"/>
		</g>
		<g>
			<path class="st18" d="M-1642.5,273.3l-220.3,88.9"/>
		</g>
		<g>
			<path class="st18" d="M-1628.4,293.9l-223.7,94.3"/>
		</g>
		<g>
			<path class="st18" d="M-1651.2,330.7l-584,257"/>
		</g>
		<g>
			<path class="st18" d="M-1612.2,340.3l-274.6,126"/>
		</g>
		<g>
			<path class="st18" d="M-1646.4,383.8l-227.9,108.9"/>
		</g>
		<g>
			<path class="st18" d="M-1614,395.9l-516.3,256.6"/>
		</g>
		<g>
			<path class="st18" d="M-1559.4,395.8l-225.3,116.4"/>
		</g>
		<g>
			<path class="st18" d="M-1562.6,424.9l-209,112.1"/>
		</g>
		<g>
			<path class="st18" d="M-1531.6,435.6l-354.9,197.6"/>
		</g>
		<g>
			<path class="st18" d="M-1555.4,477.2l-532.9,307.7"/>
		</g>
		<g>
			<path class="st18" d="M-1566.7,512.7l-358.5,214.5"/>
		</g>
		<g>
			<path class="st18" d="M-1569.8,544.2l-339,210.1"/>
		</g>
		<g>
			<path class="st18" d="M-1491.5,524.2l-317.4,203.6"/>
		</g>
		<g>
			<path class="st18" d="M-1512.7,567.3L-1792.5,753"/>
		</g>
		<g>
			<path class="st18" d="M-1496,586l-536.7,368.4"/>
		</g>
		<g>
			<path class="st18" d="M-1464.4,594.1l-548.3,389"/>
		</g>
		<g>
			<path class="st18" d="M-1461.4,622.3l-670.9,491.9"/>
		</g>
		<g>
			<path class="st18" d="M-1480.5,667.7L-1789,901.4"/>
		</g>
		<g>
			<path class="st18" d="M-1461,684.7l-308.8,241.6"/>
		</g>
		<g>
			<path class="st18" d="M-1451.1,709.2l-157,126.8"/>
		</g>
		<g>
			<path class="st18" d="M-1447.6,739.4L-1590,858.1"/>
		</g>
		<g>
			<path class="st18" d="M-1362.6,700.1l-122,105"/>
		</g>
		<g>
			<path class="st18" d="M-1349.2,720.7L-1467,825.3"/>
		</g>
		<g>
			<path class="st18" d="M-1407,806.6l-170.8,156.5"/>
		</g>
		<g>
			<path class="st18" d="M-1356.3,794.3l-201.4,190.4"/>
		</g>
		<g>
			<path class="st18" d="M-1343.5,817l-255.2,248.9"/>
		</g>
		<g>
			<path class="st18" d="M-1318.2,827.4l-258.8,260.4"/>
		</g>
		<g>
			<path class="st18" d="M-1326.5,872.2l-265.9,276.1"/>
		</g>
		<g>
			<path class="st18" d="M-1288.6,869.3l-293.9,314.8"/>
		</g>
		<g>
			<path class="st18" d="M-1281.9,899.6l-294.2,325.1"/>
		</g>
		<g>
			<path class="st18" d="M-1254.5,907l-305.3,348.1"/>
		</g>
		<g>
			<path class="st18" d="M-1248.6,939.2l-286.5,337.2"/>
		</g>
		<g>
			<path class="st18" d="M-1225.9,952l-330,400.9"/>
		</g>
		<g>
			<path class="st18" d="M-1197.6,957.6l-372.8,467.5"/>
		</g>
		<g>
			<path class="st18" d="M-1177.5,973.1l-381.6,494.2"/>
		</g>
		<g>
			<path class="st18" d="M-1127.3,948.3l-519.5,694.8"/>
		</g>
		<g>
			<path class="st18" d="M-1116.3,975l-219.9,303.8"/>
		</g>
		<g>
			<path class="st18" d="M-1093.3,985.4l-217.9,311.2"/>
		</g>
		<g>
			<path class="st18" d="M-1132.7,1087.8l-241.7,356.9"/>
		</g>
		<g>
			<path class="st18" d="M-1070.4,1040.9l-290.3,443.4"/>
		</g>
		<g>
			<path class="st18" d="M-1050.3,1056.4l-344,543.6"/>
		</g>
		<g>
			<path class="st18" d="M-1040,1087.9l-324.3,530.7"/>
		</g>
		<g>
			<path class="st18" d="M-991.8,1056.7l-404.7,686.1"/>
		</g>
		<g>
			<path class="st18" d="M-936.6,1009.9l-442.5,777.6"/>
		</g>
		<g>
			<path class="st18" d="M-987.6,1152.3l-136.1,248.2"/>
		</g>
		<g>
			<path class="st18" d="M-960,1155.9l-136.9,259"/>
		</g>
		<g>
			<path class="st18" d="M-944.6,1182.8l-144.8,284.6"/>
		</g>
		<g>
			<path class="st18" d="M-926,1204.5l-154.4,315.5"/>
		</g>
		<g>
			<path class="st18" d="M-861,1128.3l-350,744.4"/>
		</g>
		<g>
			<path class="st18" d="M-831.6,1123.5l-348.4,772.1"/>
		</g>
		<g>
			<path class="st18" d="M-833.5,1189.8l-311.9,721.1"/>
		</g>
		<g>
			<path class="st18" d="M-805.5,1189l-296.2,715.2"/>
		</g>
		<g>
			<path class="st18" d="M-758.3,1138.8l-308.7,779.4"/>
		</g>
		<g>
			<path class="st18" d="M-738.8,1156.2l-291.3,770.3"/>
		</g>
		<g>
			<path class="st18" d="M-724.8,1189.6l-270.3,749.8"/>
		</g>
		<g>
			<path class="st18" d="M-705.6,1210.4l-242,705.6"/>
		</g>
		<g>
			<path class="st18" d="M-678.7,1208.9l-234,718.7"/>
		</g>
		<g>
			<path class="st18" d="M-644.5,1182.8L-767.6,1582"/>
		</g>
		<g>
			<path class="st18" d="M-628.4,1215L-738,1590.9"/>
		</g>
		<g>
			<path class="st18" d="M-607.7,1233.5l-93.7,341"/>
		</g>
		<g>
			<path class="st18" d="M-581.8,1233.2l-90.1,349.1"/>
		</g>
		<g>
			<path class="st18" d="M-579.9,1331.7l-167.5,694"/>
		</g>
		<g>
			<path class="st18" d="M-543,1288.1l-106.8,474.8"/>
		</g>
		<g>
			<path class="st18" d="M-514.3,1275.6l-103.1,494.4"/>
		</g>
		<g>
			<path class="st18" d="M-479.9,1231.1l-136.7,710.6"/>
		</g>
		<g>
			<path class="st18" d="M-453.4,1222l-128.1,726.2"/>
		</g>
		<g>
			<path class="st18" d="M-436.4,1270.1l-23.7,148.1"/>
		</g>
		<g>
			<path class="st18" d="M-408.6,1252.6l-24.5,169.8"/>
		</g>
		<g>
			<path class="st18" d="M-386.4,1273.1l-22.2,173.1"/>
		</g>
		<g>
			<path class="st18" d="M-361.7,1277.1l-23.4,207.7"/>
		</g>
		<g>
			<path class="st18" d="M-336.8,1279.2l-23.6,243.6"/>
		</g>
		<g>
			<path class="st18" d="M-311.7,1278l-19.1,234.6"/>
		</g>
		<g>
			<path class="st18" d="M-286.9,1281.4l-15.3,233.3"/>
		</g>
		<g>
			<path class="st18" d="M-262.1,1285.3l-14.4,289.4"/>
		</g>
		<g>
			<path class="st18" d="M-237.3,1290.4l-10.3,301.4"/>
		</g>
		<g>
			<path class="st18" d="M-212.1,1279.9l-6.3,336.4"/>
		</g>
		<g>
			<path class="st18" d="M-187.2,1284.2l-1.1,344.2"/>
		</g>
		<g>
			<path class="st18" d="M-162.4,1278.7l3,240.5"/>
		</g>
		<g>
			<path class="st18" d="M-137.5,1279.8l6.7,238.8"/>
		</g>
		<g>
			<path class="st18" d="M-111.5,1305.3l12.8,293.6"/>
		</g>
		<g>
			<path class="st18" d="M-87.8,1278.1l11.9,200.5"/>
		</g>
		<g>
			<path class="st18" d="M-62.4,1283.1l14.5,193.6"/>
		</g>
		<g>
			<path class="st18" d="M-38,1276.4l20.2,223.1"/>
		</g>
		<g>
			<path class="st18" d="M-13.8,1268l28.4,266.6"/>
		</g>
		<g>
			<path class="st18" d="M11.8,1273.3l35.1,287"/>
		</g>
		<g>
			<path class="st18" d="M36.4,1269.1l69.8,505.8"/>
		</g>
		<g>
			<path class="st18" d="M68.4,1312.7L68.4,1312.7"/>
		</g>
		<g>
			<path class="st18" d="M93.7,1308.6L93.7,1308.6"/>
		</g>
		<g>
			<path class="st18" d="M124.2,1332.2l80.4,432.1"/>
		</g>
		<g>
			<path class="st18" d="M137.7,1267.1l119.5,591.2"/>
		</g>
		<g>
			<path class="st18" d="M178.3,1334.9L291,1851.1"/>
		</g>
		<g>
			<path class="st18" d="M182.3,1236.8l82,349.1"/>
		</g>
		<g>
			<path class="st18" d="M205.5,1227.1l88.3,351.5"/>
		</g>
		<g>
			<path class="st18" d="M217,1174.4l93.3,348.3"/>
		</g>
		<g>
			<path class="st18" d="M252.4,1210.8l86.6,304"/>
		</g>
		<g>
			<path class="st18" d="M284.4,1231.3l126.5,419.4"/>
		</g>
		<g>
			<path class="st18" d="M294.5,1180.2l101.6,318.7"/>
		</g>
		<g>
			<path class="st18" d="M330.2,1209.5l94.1,280.1"/>
		</g>
		<g>
			<path class="st18" d="M364.2,1230.7L478.2,1553"/>
		</g>
		<g>
			<path class="st18" d="M378.5,1195.5L511,1552.7"/>
		</g>
		<g>
			<path class="st18" d="M405.7,1196.1l238.6,613.6"/>
		</g>
		<g>
			<path class="st18" d="M420.2,1164.8l94,230.9"/>
		</g>
		<g>
			<path class="st18" d="M439.3,1146l101.5,238.6"/>
		</g>
		<g>
			<path class="st18" d="M465.6,1144.4l140.3,316.1"/>
		</g>
		<g>
			<path class="st18" d="M491.5,1141l142,307"/>
		</g>
		<g>
			<path class="st18" d="M545.9,1196.2l225.3,467.9"/>
		</g>
		<g>
			<path class="st18" d="M555.4,1157L860,1765"/>
		</g>
		<g>
			<path class="st18" d="M587.6,1163.1l82.8,159"/>
		</g>
		<g>
			<path class="st18" d="M597.3,1126.6l98.4,182.1"/>
		</g>
		<g>
			<path class="st18" d="M621,1116.5l118.4,211.2"/>
		</g>
		<g>
			<path class="st18" d="M638.1,1095.1l173.8,298.8"/>
		</g>
		<g>
			<path class="st18" d="M654,1072.2l237.4,394"/>
		</g>
		<g>
			<path class="st18" d="M698.1,1095.1l245.5,393.4"/>
		</g>
		<g>
			<path class="st18" d="M740.6,1113.2l388,600.7"/>
		</g>
		<g>
			<path class="st18" d="M709.7,1019.2l123.4,184.7"/>
		</g>
		<g>
			<path class="st18" d="M720.6,990.9l136.1,196.9"/>
		</g>
		<g>
			<path class="st18" d="M743.3,980.2l184.9,258.9"/>
		</g>
		<g>
			<path class="st18" d="M794.7,1008.1l414.7,561.9"/>
		</g>
		<g>
			<path class="st18" d="M804.7,978.9l229.8,301.4"/>
		</g>
		<g>
			<path class="st18" d="M797.6,928.9l261.6,332.2"/>
		</g>
		<g>
			<path class="st18" d="M871.5,980.6l202.1,248.7"/>
		</g>
		<g>
			<path class="st18" d="M896.1,969.5l201.4,240"/>
		</g>
		<g>
			<path class="st18" d="M908,943.3l291.9,337.1"/>
		</g>
		<g>
			<path class="st18" d="M939,939.1l315.2,352.7"/>
		</g>
		<g>
			<path class="st18" d="M933.9,894.8l221,239.7"/>
		</g>
		<g>
			<path class="st18" d="M960,885l217.3,228.4"/>
		</g>
		<g>
			<path class="st18" d="M969.8,858.2l290.2,295.7"/>
		</g>
		<g>
			<path class="st18" d="M979.7,831.9l342.3,338.1"/>
		</g>
		<g>
			<path class="st18" d="M985,801.7l358,342.7"/>
		</g>
		<g>
			<path class="st18" d="M1046.6,824.5l318.9,295.9"/>
		</g>
		<g>
			<path class="st18" d="M1019.5,765l525.3,472.4"/>
		</g>
		<g>
			<path class="st18" d="M1086.4,789.9l482.4,420.4"/>
		</g>
		<g>
			<path class="st18" d="M1028.3,706.6l626.4,528.9"/>
		</g>
		<g>
			<path class="st18" d="M1081.8,718.4l446.1,364.9"/>
		</g>
		<g>
			<path class="st18" d="M1095.5,696.8l454,359.8"/>
		</g>
		<g>
			<path class="st18" d="M1126.6,688.6l454.2,348.5"/>
		</g>
		<g>
			<path class="st18" d="M1103,639.1l127.8,94.9"/>
		</g>
		<g>
			<path class="st18" d="M1127.4,625.9l119.6,86"/>
		</g>
		<g>
			<path class="st18" d="M1124.3,593.1l192.2,133.7"/>
		</g>
		<g>
			<path class="st18" d="M1135.2,570.6l197.5,132.8"/>
		</g>
		<g>
			<path class="st18" d="M1169.3,563.2l284.1,184.7"/>
		</g>
		<g>
			<path class="st18" d="M1190.5,546.9l55.5,34.9"/>
		</g>
		<g>
			<path class="st18" d="M1211.7,530.2l48.1,29.2"/>
		</g>
		<g>
			<path class="st18" d="M1202.2,495.2l191.6,112.2"/>
		</g>
		<g>
			<path class="st18" d="M1225.8,479.8l182.3,103"/>
		</g>
		<g>
			<path class="st18" d="M1239,458.3L1530.4,617"/>
		</g>
		<g>
			<path class="st18" d="M1237.4,429l270.3,141.8"/>
		</g>
		<g>
			<path class="st18" d="M1262.3,413.6l259,130.8"/>
		</g>
		<g>
			<path class="st18" d="M1266.8,387.7l651.3,316.2"/>
		</g>
		<g>
			<path class="st18" d="M1311.4,380.8L1933.7,671"/>
		</g>
		<g>
			<path class="st18" d="M1311.2,352.6l117.4,52.5"/>
		</g>
		<g>
			<path class="st18" d="M1308.8,323.9l130.7,56.1"/>
		</g>
		<g>
			<path class="st18" d="M1346.4,312l171,70.2"/>
		</g>
		<g>
			<path class="st18" d="M1340.9,282.1l287.2,112.7"/>
		</g>
		<g>
			<path class="st18" d="M1312,244.1l262,98.2"/>
		</g>
		<g>
			<path class="st18" d="M1322.4,221.4l261.7,93.4"/>
		</g>
		<g>
			<path class="st18" d="M1292.8,185l342.9,116.4"/>
		</g>
		<g>
			<path class="st18" d="M1328.8,171.2l449.8,144.9"/>
		</g>
		<g>
			<path class="st18" d="M1346.1,150.6l194.2,59.2"/>
		</g>
		<g>
			<path class="st18" d="M1361.5,129.1l186.9,53.8"/>
		</g>
		<g>
			<path class="st18" d="M1359.5,102.6l297.6,80.7"/>
		</g>
		<g>
			<path class="st18" d="M1343.8,72.9l716,182.3"/>
		</g>
		<g>
			<path class="st18" d="M1385.3,57.6l248.8,59.2"/>
		</g>
		<g>
			<path class="st18" d="M1377,30l263.5,58.4"/>
		</g>
		<g>
			<path class="st18" d="M1390.8,7.4l290.5,59.7"/>
		</g>
		<g>
			<path class="st18" d="M1413.4-13.7L1687,38"/>
		</g>
		<g>
			<path class="st18" d="M1402.4-41.3l356.2,61.7"/>
		</g>
		<g>
			<path class="st18" d="M1441.9-60.5l220.6,34.7"/>
		</g>
		<g>
			<path class="st18" d="M1422.6-89.1l244.1,34.5"/>
		</g>
		<g>
			<path class="st18" d="M1422.6-114.5l436.7,54.7"/>
		</g>
		<g>
			<path class="st18" d="M1485.6-133L1796-99"/>
		</g>
		<g>
			<path class="st18" d="M1496.7-158.2l302.4,28.4"/>
		</g>
		<g>
			<path class="st18" d="M1507.8-183.7l640.6,50"/>
		</g>
		<g>
			<path class="st18" d="M1418.7-215.7l441.9,27.6"/>
		</g>
		<g>
			<path class="st18" d="M1500.1-237l362.3,16.9"/>
		</g>
		<g>
			<path class="st18" d="M1438.8-265.1l717.1,22.4"/>
		</g>
		<g>
			<path class="st18" d="M1438.5-290.4l135.1,2.1"/>
		</g>
		<g>
			<path class="st18" d="M1441-315.7l132.8,0"/>
		</g>
		<g>
			<path class="st18" d="M-599.1,1945l-26.5,143.5 M-616.7,1941.7c11.7,2.3,23.5,4.4,35.2,6.5"/>
		</g>
		<g>
			<path class="st18" d="M-633.6,1766.5l-66.6,307.1 M-649.9,1762.9c10.8,2.4,21.6,4.8,32.4,7"/>
		</g>
		<g>
			<path class="st18" d="M-662.9,2081.3l-8.9,44.6 M-700.2,2073.6c24.8,5.4,49.7,10.4,74.7,15"/>
		</g>
		<g>
			<path class="st18" d="M-752.8,1586.5l-126.1,420.4 M-767.6,1582c9.9,3,19.7,6,29.6,8.9"/>
		</g>
		<g>
			<path class="st18" d="M-930.1,1921.9l-20.8,62.2 M-947.5,1916c11.6,4,23.2,7.9,34.9,11.7"/>
		</g>
		<g>
			<path class="st18" d="M-915,1995.8l-15.8,50 M-950.9,1984.1c23.9,8,47.9,15.6,72,22.8"/>
		</g>
		<g>
			<path class="st18" d="M-686.6,1578.5L-802,2011.9 M-701.4,1574.5c9.8,2.7,19.7,5.3,29.5,7.9"/>
		</g>
		<g>
			<path class="st18" d="M-774.8,2018.9l-16.9,66.5 M-802,2011.9c18.1,4.8,36.3,9.4,54.6,13.8"/>
		</g>
		<g>
			<path class="st18" d="M-861.5,2066.6l-3.5,12.4 M-930.9,2045.8c46,14.6,92.4,27.8,139.2,39.7"/>
		</g>
		<g>
			<path class="st18" d="M-768.9,2104.4l-1.9,8 M-865.1,2079.1c63.8,18.2,128.2,33.8,193.2,46.8"/>
		</g>
		<g>
			<path class="st18" d="M-1012.6,1933l-21.3,57.8 M-1030.1,1926.5c11.6,4.4,23.3,8.7,35,12.9"/>
		</g>
		<g>
			<path class="st18" d="M-1084.4,1911.3l-21,51.8 M-1101.7,1904.2c11.5,4.8,23.1,9.5,34.7,14.1"/>
		</g>
		<g>
			<path class="st18" d="M-1069.8,1977.2l-6.6,16.9 M-1105.4,1963.1c23.7,9.6,47.5,18.8,71.5,27.7"/>
		</g>
		<g>
			<path class="st18" d="M-1110.3,1407.7l-20.5,38 M-1123.7,1400.4c8.9,4.9,17.9,9.7,26.9,14.5"/>
		</g>
		<g>
			<path class="st18" d="M-1110.1,1456.7l-20,38.1 M-1130.8,1445.7c13.7,7.4,27.5,14.6,41.4,21.7"/>
		</g>
		<g>
			<path class="st18" d="M-1105.3,1507.6l-169.2,334.1 M-1130.1,1494.8c16.5,8.6,33,17,49.7,25.2"/>
		</g>
		<g>
			<path class="st18" d="M-1242.9,1857.4l-19.3,39.5 M-1274.5,1841.7c21,10.6,42.2,21,63.5,31"/>
		</g>
		<g>
			<path class="st18" d="M-1162.8,1903.3l-14.6,33 M-1180,1895.6c11.5,5.2,23,10.3,34.6,15.3"/>
		</g>
		<g>
			<path class="st18" d="M-1219.9,1917l-6.2,13.4 M-1262.1,1896.9c28,13.7,56.3,26.8,84.8,39.4"/>
		</g>
		<g>
			<path class="st18" d="M-1151.8,1963.6l-5.7,13.3 M-1226.2,1930.5c49.2,22.9,99.2,44.1,149.8,63.7"/>
		</g>
		<g>
			<path class="st18" d="M-1379.3,1609.4l-65,104.5 M-1394.3,1600c10,6.3,20,12.5,30,18.7"/>
		</g>
		<g>
			<path class="st18" d="M-1420.5,1728.5l-15.5,25.6 M-1444.3,1713.9c15.8,9.8,31.7,19.5,47.8,28.9"/>
		</g>
		<g>
			<path class="st18" d="M-1407.6,1771l-18,30.7 M-1436,1754.1c18.8,11.4,37.8,22.5,56.9,33.4"/>
		</g>
		<g>
			<path class="st18" d="M-1323.7,1287.8l-91.5,128.6 M-1336.2,1278.8c8.3,6,16.6,11.9,25,17.8"/>
		</g>
		<g>
			<path class="st18" d="M-1394.9,1430.6l-14.5,20.9 M-1415.2,1416.3c13.5,9.6,27.1,19.1,40.8,28.3"/>
		</g>
		<g>
			<path class="st18" d="M-1385.2,1468.1l-170,252 M-1409.4,1451.5c16.1,11.2,32.3,22.1,48.6,32.8"/>
		</g>
		<g>
			<path class="st18" d="M-1491,1761.9l-15.5,24.6 M-1555.1,1720.1c42.3,28.5,85.5,55.7,129.5,81.6"/>
		</g>
		<g>
			<path class="st18" d="M-1547.5,1265.8l-47,54.4 M-1559.8,1255.1c8.2,7.2,16.4,14.2,24.6,21.3"/>
		</g>
		<g>
			<path class="st18" d="M-1575.3,1336.7l-19.4,23 M-1594.5,1320.3c12.7,11,25.6,21.9,38.6,32.6"/>
		</g>
		<g>
			<path class="st18" d="M-1587.9,1076.9l-14.3,14.2 M-1598.7,1065.9c7.2,7.4,14.4,14.7,21.7,21.9"/>
		</g>
		<g>
			<path class="st18" d="M-1567.8,973.9l-77.5,72.2 M-1577.8,963.1c6.6,7.2,13.3,14.4,20.1,21.6"/>
		</g>
		<g>
			<path class="st18" d="M-1623.9,1068.7l-24.5,23.5 M-1645.3,1046.1c14.1,15.2,28.5,30.2,43.1,44.9"/>
		</g>
		<g>
			<path class="st18" d="M-1620.7,1120.5l-13.6,13.5 M-1648.4,1092.2c18.3,19,36.9,37.7,55.9,56"/>
		</g>
		<g>
			<path class="st18" d="M-1608.6,1159.3l-17.8,18.4 M-1634.2,1134c16.9,17,34.2,33.6,51.7,50"/>
		</g>
		<g>
			<path class="st18" d="M-1601.5,1201.4l-77.8,83.2 M-1626.4,1177.7c16.5,15.9,33.2,31.6,50.2,47"/>
		</g>
		<g>
			<path class="st18" d="M-1637.5,1322.7l-23.3,26.3 M-1679.3,1284.6c27.5,25.8,55.7,50.8,84.6,75.1"/>
		</g>
		<g>
			<path class="st18" d="M-1616.1,1387.6l-16.9,20.1 M-1660.8,1348.9c29.5,26.2,59.6,51.5,90.4,76.1"/>
		</g>
		<g>
			<path class="st18" d="M-1596.4,1437.9l-121.1,150.2 M-1633,1407.7c24.2,20.4,48.8,40.2,73.9,59.6"/>
		</g>
		<g>
			<path class="st18" d="M-1682.4,1615.9l-23.8,30.6 M-1717.6,1588.1c23.3,18.8,46.9,37.1,70.8,55"/>
		</g>
		<g>
			<path class="st18" d="M-1608.1,1718.9l-2.9,4.2 M-1706.2,1646.5c64.2,49.9,130.9,96.6,199.7,139.9"/>
		</g>
		<g>
			<path class="st18" d="M-1599.1,847.1l-306.2,251.3 M-1608.1,836c6,7.4,12,14.8,18.1,22.1"/>
		</g>
		<g>
			<path class="st18" d="M-1779.5,913.9l-169,130.1 M-1789,901.4c6.3,8.3,12.7,16.6,19.2,24.9"/>
		</g>
		<g>
			<path class="st18" d="M-1927.1,1071.4l-168.5,134 M-1948.5,1044c14.1,18.3,28.5,36.5,43.2,54.4"/>
		</g>
		<g>
			<path class="st18" d="M-1475.9,815.3l-546.6,477.8 M-1484.6,805.1c5.8,6.8,11.7,13.5,17.6,20.2"/>
		</g>
		<g>
			<path class="st18" d="M-2059.6,1249.6l-31.1,25.9 M-2095.6,1205.3c23.7,29.8,48.1,59.1,73.2,87.8"/>
		</g>
		<g>
			<path class="st18" d="M-2022.7,968.8l-142.4,99.4 M-2032.7,954.4c6.6,9.6,13.3,19.2,20,28.7"/>
		</g>
		<g>
			<path class="st18" d="M-2148.8,1091.3l-45.4,32.5 M-2165.1,1068.2c10.8,15.5,21.7,30.8,32.9,46"/>
		</g>
		<g>
			<path class="st18" d="M-1778.1,524.6l-130.1,68.5 M-1784.6,512.2c4.3,8.3,8.7,16.6,13.1,24.9"/>
		</g>
		<g>
			<path class="st18" d="M-1897.5,613.2l-220.1,119.2 M-1908.3,593.1c7.1,13.4,14.3,26.8,21.7,40.1"/>
		</g>
		<g>
			<path class="st18" d="M-2103.2,758.8l-36.6,20.5 M-2117.7,732.5c9.5,17.6,19.3,35.1,29.3,52.4"/>
		</g>
		<g>
			<path class="st18" d="M-1917.1,740.7l-180.9,110.2 M-1925.2,727.2c5.4,9.1,10.9,18.1,16.5,27"/>
		</g>
		<g>
			<path class="st18" d="M-2119.2,815.3l-66.8,39 M-2139.8,779.2c13.5,24.2,27.5,48,41.9,71.7"/>
		</g>
		<g>
			<path class="st18" d="M-1800.8,740.4l-324.6,211.8 M-1808.9,727.8c5.4,8.4,10.9,16.9,16.5,25.2"/>
		</g>
		<g>
			<path class="st18" d="M-2156.3,903.6l-126.8,78.3 M-2186,854.2c19.4,33.2,39.6,65.9,60.6,98"/>
		</g>
		<g>
			<path class="st18" d="M-2214.8-249.1l-200.7,6.6 M-2215.2-265c0.3,10.6,0.6,21.1,1,31.7"/>
		</g>
		<g>
			<path class="st18" d="M-1752.9-337.7l-99.9-1.4 M-1752.7-349.9c-0.2,8.2-0.3,16.3-0.3,24.5"/>
		</g>
		<g>
			<path class="st18" d="M-1853-319.6l-563.7-1.3 M-1852.8-339.1c-0.2,13-0.2,26-0.1,39.1"/>
		</g>
		<g>
			<path class="st18" d="M-2416.5-281.7l-161,2.4 M-2416.7-320.9c-0.1,26.1,0.3,52.2,1.2,78.3"/>
		</g>
		<g>
			<path class="st18" d="M-2576.2-230.3l-47.9,1.7 M-2577.5-279.3c0.5,32.7,1.7,65.3,3.5,97.9"/>
		</g>
		<g>
			<path class="st18" d="M-2000.5-627.5l-552.6-94.8 M-1998-641.7c-1.7,9.4-3.3,18.9-4.9,28.3"/>
		</g>
		<g>
			<path class="st18" d="M-1660.3-866.7l-283.8-105.8 M-1656-878.2c-2.9,7.7-5.8,15.3-8.6,23"/>
		</g>
		<g>
			<path class="st18" d="M-1767.4-963.6l-155.3-63.5 M-1762.4-975.9c-3.4,8.2-6.8,16.4-10.1,24.7"/>
		</g>
		<g>
			<path class="st18" d="M-1933.7-999.9L-2090-1061 M-1922.8-1027.1c-7.4,18.1-14.5,36.3-21.3,54.6"/>
		</g>
		<g>
			<path class="st18" d="M-2104.1-1023.7l-266.5-98.2 M-2090-1061c-9.7,24.8-18.9,49.7-27.6,74.9"/>
		</g>
		<g>
			<path class="st18" d="M-1690.6-1074.2l-79.8-40.2 M-1684.7-1085.9c-4,7.8-7.9,15.6-11.8,23.5"/>
		</g>
		<g>
			<path class="st18" d="M-1779.7-1095.7l-334.8-163.5 M-1770.5-1114.3c-6.2,12.4-12.3,24.8-18.2,37.3"/>
		</g>
		<g>
			<path class="st18" d="M-2057-1151.1l-89.3-39.8 M-2050.4-1165.6c-4.4,9.7-8.8,19.4-13,29.2"/>
		</g>
		<g>
			<path class="st18" d="M-2130.7-1225.2l-164.8-76.9 M-2114.5-1259.2c-11,22.6-21.7,45.4-31.9,68.3"/>
		</g>
		<g>
			<path class="st18" d="M-2334.9-1212.7l-33.3-13.9 M-2295.5-1302.1c-27.5,59-52.6,119.1-75.1,180.3"/>
		</g>
		<g>
			<path class="st18" d="M-1929.3-875.5l-25.9-8.3 M-1924.9-889.1c-3,9.1-5.9,18.1-8.7,27.2"/>
		</g>
		<g>
			<path class="st18" d="M-1961.7-863l-84.1-25.9 M-1955.2-883.8c-4.4,13.8-8.7,27.7-12.8,41.6"/>
		</g>
		<g>
			<path class="st18" d="M-2053.4-863.4l-62.1-18.2 M-2045.8-888.9c-5.2,16.9-10.2,34-14.9,51"/>
		</g>
		<g>
			<path class="st18" d="M-2010.3-778.1l-124.9-31.6 M-2006.6-792.3c-2.5,9.5-4.9,19-7.2,28.5"/>
		</g>
		<g>
			<path class="st18" d="M-2125.7-845.7l-28.5-7.8 M-2115.5-881.6c-7,23.9-13.5,47.8-19.6,71.9"/>
		</g>
		<g>
			<path class="st18" d="M-2165-812.1l-63.3-15.9 M-2154.1-853.5c-7.5,27.5-14.4,55.2-20.8,83"/>
		</g>
		<g>
			<path class="st18" d="M-2237.3-790.5l-233.3-53.9 M-2228.3-828c-6.2,24.9-12,49.9-17.3,75.1"/>
		</g>
		<g>
			<path class="st18" d="M-2479.2-805.6l-19.1-4.1 M-2470.6-844.4c-6,25.8-11.5,51.7-16.6,77.7"/>
		</g>
		<g>
			<path class="st18" d="M-2442.9-1021.2l-35.5-11.1 M-2368.2-1226.6c-56.1,134.7-99.7,274.2-130.1,416.9"/>
		</g>
		<g>
			<path class="st18" d="M-2520.9-878.5l-6.6-1.6 M-2478.4-1032.2c-31.7,101.6-56.6,205.1-74.6,310"/>
		</g>
		<g>
			<path class="st18" d="M-1838-390.5l-568.5-25.7 M-1837.4-403.4c-0.5,8.6-0.8,17.2-1.2,25.8"/>
		</g>
		<g>
			<path class="st18" d="M-2046.9-458.3l-237.5-18.2 M-2045.7-472.8c-0.8,9.7-1.6,19.4-2.2,29.1"/>
		</g>
		<g>
			<path class="st18" d="M-1910.4-556.9l-53.3-7.4 M-1908.5-570.3c-1.3,9-2.6,17.9-3.8,26.9"/>
		</g>
		<g>
			<path class="st18" d="M-1966.5-543.5l-166.2-21.2 M-1963.7-564.3c-1.9,13.9-3.7,27.8-5.3,41.7"/>
		</g>
		<g>
			<path class="st18" d="M-2135.9-538.1l-141.1-16.1 M-2132.7-564.7c-2.3,17.7-4.3,35.5-6.1,53.3"/>
		</g>
		<g>
			<path class="st18" d="M-2281.1-515.4l-117.7-11.2 M-2277.1-554.2c-2.9,25.8-5.4,51.7-7.4,77.7"/>
		</g>
		<g>
			<path class="st18" d="M-2403.4-471.5l-185.2-13 M-2398.8-526.6c-3.5,36.7-6.1,73.5-7.7,110.3"/>
		</g>
		<g>
			<path class="st18" d="M-2566.3-683.5l-30.8-4.8 M-2527.5-880.1c-31.3,130-51.7,262.3-61.1,395.7"/>
		</g>
		<g>
			<path class="st18" d="M-2621.5-459.1l-19.9-1.2 M-2597.1-688.3c-23.5,152-32.5,306-27,459.7"/>
		</g>
		<g>
			<path class="st18" d="M-1857.5,375.2l-398.3,164.3 M-1862.8,362.1c3.5,8.7,7.1,17.4,10.8,26.1"/>
		</g>
		<g>
			<path class="st18" d="M-2245.7,563.6l-22.8,9.7 M-2255.8,539.5c6.7,16.2,13.5,32.2,20.6,48.2"/>
		</g>
		<g>
			<path class="st18" d="M-1872.8,290.7l-21.2,7.6 M-1877.4,277.5c3.1,8.8,6.2,17.6,9.4,26.3"/>
		</g>
		<g>
			<path class="st18" d="M-1886.7,318.3l-421,156.6 M-1894,298.3c4.8,13.3,9.7,26.6,14.8,39.8"/>
		</g>
		<g>
			<path class="st18" d="M-2288.7,524.3l-29.9,11.9 M-2307.7,474.9c12.3,33.1,25.4,66,39.3,98.5"/>
		</g>
		<g>
			<path class="st18" d="M-1880.6,479.5l-271.8,127.2 M-1886.7,466.3c4.1,8.9,8.2,17.7,12.4,26.5"/>
		</g>
		<g>
			<path class="st18" d="M-2141.4,629.7l-112.2,54.1 M-2152.3,606.8c7.2,15.4,14.6,30.6,22.1,45.8"/>
		</g>
		<g>
			<path class="st18" d="M-2287.4,610.6l-144.5,63.6 M-2318.6,536.3c19.9,49.9,41.6,99.2,64.9,147.6"/>
		</g>
		<g>
			<path class="st18" d="M-2358,64.5l-138.4,24.2 M-2360.9,47.5c1.9,11.3,3.9,22.6,5.9,33.9"/>
		</g>
		<g>
			<path class="st18" d="M-2362.3-142l-32.7,2.6 M-2363.6-159c0.8,11.3,1.7,22.7,2.7,34"/>
		</g>
		<g>
			<path class="st18" d="M-2392.7-113.6l-61.5,5.6 M-2394.9-139.4c1.4,17.2,2.9,34.5,4.7,51.7"/>
		</g>
		<g>
			<path class="st18" d="M-2451.2-77l-51.8,5.4 M-2454.2-108c1.9,20.7,4.1,41.3,6.5,61.9"/>
		</g>
		<g>
			<path class="st18" d="M-2070.5-46.1l-421.9,60.2 M-2072.5-60.8c1.3,9.8,2.7,19.6,4.2,29.4"/>
		</g>
		<g>
			<path class="st18" d="M-2498.1-28.7l-15.6,1.9 M-2503-71.6c3,28.6,6.6,57.2,10.6,85.7"/>
		</g>
		<g>
			<path class="st18" d="M-2505.7,31.1l-36,5.4 M-2513.6-26.7c4.8,38.6,10.5,77.1,17.2,115.4"/>
		</g>
		<g>
			<path class="st18" d="M-2146.4,91l-191.1,39.6 M-2149.5,75.6c2,10.2,4.1,20.4,6.3,30.6"/>
		</g>
		<g>
			<path class="st18" d="M-2332.1,155.7l-26.9,5.9 M-2337.4,130.5c3.5,16.8,7.1,33.5,11,50.3"/>
		</g>
		<g>
			<path class="st18" d="M-2352.3,191.2l-76.8,17.9 M-2359,161.6c4.3,19.8,8.9,39.5,13.8,59.2"/>
		</g>
		<g>
			<path class="st18" d="M-2421.2,241.9l-76,18.9 M-2429.1,209.1c5.1,21.9,10.5,43.7,16.3,65.4"/>
		</g>
		<g>
			<path class="st18" d="M-2522.1,149.2l-32.1,6.4 M-2541.7,36.4c11.3,75.5,26.1,150.3,44.6,224.4"/>
		</g>
		<g>
			<path class="st18" d="M-2534,247.9l-30.1,7.2 M-2554.2,155.5c12.3,61.8,27,123.1,44,183.8"/>
		</g>
		<g>
			<path class="st18" d="M-2418.2,370.2l-85.3,26.2 M-2423.5,352.8c3.5,11.6,7,23.3,10.7,34.8"/>
		</g>
		<g>
			<path class="st18" d="M-2495.1,423.5l-20.2,6.4 M-2503.5,396.4c5.5,18.1,11.3,36.1,17.3,54.1"/>
		</g>
		<g>
			<path class="st18" d="M-2541.3,343l-8.3,2.3 M-2564,255.1c14.1,58.9,30.4,117.2,48.8,174.9"/>
		</g>
		<g>
			<path class="st18" d="M-2496.6,511.8l-5.2,1.8 M-2549.6,345.3c31.4,112.3,70.7,222.2,117.6,329"/>
		</g>
		<g>
			<path class="st18" d="M-2620.7,33.8l-5.9,0.8 M-2641.3-460.2c-19.4,330.7,28,662,139.6,973.9"/>
		</g>
		<g>
			<path class="st18" d="M-2503.7,526l-4.3,1.6 M-2626.5,34.6c48.2,336,165.1,658.5,343.5,947.3"/>
		</g>
		<g>
			<path class="st18" d="M-2371.5,836.4l-9.6,5.1 M-2508,527.5c76.9,212.1,182.5,412.7,313.7,596.2"/>
		</g>
		<g>
			<path class="st18" d="M-2247.3,1066.1l-4,2.7 M-2381.1,841.4c81.3,154.5,178.7,300,290.5,434.1"/>
		</g>
		<g>
			<path class="st18" d="M-1961.5,1425.7l-1.2,1.2 M-2251.3,1068.8c171.2,255.8,388.3,477.6,640.3,654.3"/>
		</g>
		<g>
			<path class="st18" d="M-1587.3,1741.7l-4,5.8 M-1962.8,1426.9c229.6,234.6,503.3,421.5,805.3,550"/>
		</g>
		<g>
			<path class="st18" d="M-1197.6,1967.1l-0.7,1.5 M-1591.3,1747.5c249.2,170.2,527.1,293.8,820.4,364.9"/>
		</g>
		<g>
			<path class="st18" d="M-125.2-2058.7l3.6-110.4 M-111.6-2058.2c-9.1-0.4-18.1-0.7-27.2-0.9"/>
		</g>
		<g>
			<path class="st18" d="M-143.2-2169.7l3.8-181.4 M-121.6-2169.1c-14.4-0.5-28.9-0.8-43.3-0.9"/>
		</g>
		<g>
			<path class="st18" d="M-41.2-2086.9l10.1-126.6 M-27.4-2085.8c-9.2-0.8-18.4-1.5-27.6-2.2"/>
		</g>
		<g>
			<path class="st18" d="M1.4-1969L28-2207.9 M14.3-1967.5c-8.6-1-17.2-2-25.8-2.9"/>
		</g>
		<g>
			<path class="st18" d="M-1.5-2210.9l7.8-81.5 M28-2207.9c-19.7-2.2-39.3-4.1-59.1-5.6"/>
		</g>
		<g>
			<path class="st18" d="M-32.3-2295.8l3.8-50 M6.2-2292.5c-25.7-2.4-51.4-4.4-77.1-5.8"/>
		</g>
		<g>
			<path class="st18" d="M-83.9-2349.2l15.3-316.6 M-28.5-2345.7c-36.9-2.8-73.9-4.6-110.9-5.4"/>
		</g>
		<g>
			<path class="st18" d="M-283.6-2558l-2.3-51.5 M-266.2-2558.7c-11.7,0.4-23.3,1-34.9,1.6"/>
		</g>
		<g>
			<path class="st18" d="M-212.5-2471.3l-2-140.3 M-195.7-2471.5c-11.2,0.1-22.4,0.2-33.6,0.5"/>
		</g>
		<g>
			<path class="st18" d="M-250.2-2610.9l-1.7-56.6 M-214.4-2611.6c-23.9,0.3-47.7,1-71.5,2.1"/>
		</g>
		<g>
			<path class="st18" d="M-160.2-2668.4l1.1-122.5 M-68.6-2665.8c-61-3-122.2-3.5-183.3-1.7"/>
		</g>
		<g>
			<path class="st18" d="M680.7-2158.7l153.9-328.7 M695-2151.9c-9.5-4.6-19.1-9-28.7-13.4"/>
		</g>
		<g>
			<path class="st18" d="M737.6-1774.5L963-2132.1 M748.9-1767.3c-7.5-4.8-15.1-9.6-22.7-14.3"/>
		</g>
		<g>
			<path class="st18" d="M941.7-2145.4l36.6-59.6 M963-2132.1c-14.2-8.9-28.4-17.7-42.8-26.3"/>
		</g>
		<g>
			<path class="st18" d="M952.5-2220.6l25.6-43 M978.3-2204.9c-17.2-10.6-34.5-20.9-51.9-30.9"/>
		</g>
		<g>
			<path class="st18" d="M949.5-2280.4l8.4-14.5 M978.1-2263.6c-19-11.3-38.1-22.3-57.4-33.1"/>
		</g>
		<g>
			<path class="st18" d="M704.3-1999.4l177.6-337.4 M717.4-1992.4c-8.7-4.7-17.5-9.3-26.2-13.8"/>
		</g>
		<g>
			<path class="st18" d="M920.1-2316.2l39.1-70.9 M957.9-2294.9c-25.1-14.4-50.4-28.4-76-41.9"/>
		</g>
		<g>
			<path class="st18" d="M915-2410.8l15.3-29.1 M959.2-2387.1c-29.3-16.1-58.8-31.6-88.8-46.5"/>
		</g>
		<g>
			<path class="st18" d="M882.7-2464.2l10.2-20.5 M930.3-2439.9c-31.6-16.5-63.5-32.3-95.7-47.4"/>
		</g>
		<g>
			<path class="st18" d="M444.2-2151.7l95-278.6 M458.5-2146.8c-9.5-3.3-19-6.6-28.6-9.8"/>
		</g>
		<g>
			<path class="st18" d="M514.5-2438.6l49.9-151.9 M539.3-2430.3c-16.5-5.6-33-11.1-49.6-16.3"/>
		</g>
		<g>
			<path class="st18" d="M496.6-1891.7l67.5-156.7 M508.9-1886.4c-8.2-3.6-16.3-7.1-24.6-10.6"/>
		</g>
		<g>
			<path class="st18" d="M543.8-2057.1l32.3-77.5 M564.1-2048.5c-13.5-5.8-27.1-11.5-40.7-17"/>
		</g>
		<g>
			<path class="st18" d="M551.3-2144.8l52.1-129.9 M576.2-2134.6c-16.5-6.9-33.2-13.6-49.9-20"/>
		</g>
		<g>
			<path class="st18" d="M574.7-2286l101.7-264.6 M603.4-2274.7c-19.1-7.7-38.3-15-57.6-22.1"/>
		</g>
		<g>
			<path class="st18" d="M620.6-2571.3l8.9-25.1 M676.4-2550.6c-37-14.2-74.4-27.5-112-39.9"/>
		</g>
		<g>
			<path class="st18" d="M762.9-2544.4l11.2-26.3 M892.9-2484.7c-85.5-42.4-173.4-79.7-263.3-111.7"/>
		</g>
		<g>
			<path class="st18" d="M264.6-2059.2l105.5-411.7 M278.2-2055.7c-9-2.4-18.1-4.7-27.2-7"/>
		</g>
		<g>
			<path class="st18" d="M362.9-2196.9l74.1-255.8 M377.6-2192.6c-9.7-2.9-19.5-5.7-29.3-8.5"/>
		</g>
		<g>
			<path class="st18" d="M403.7-2462.1l53.3-195.2 M437-2452.7c-22.2-6.4-44.5-12.5-66.9-18.3"/>
		</g>
		<g>
			<path class="st18" d="M194-2000.3l117.7-527.1 M207.1-1997.3c-8.7-2-17.5-4-26.3-5.9"/>
		</g>
		<g>
			<path class="st18" d="M285.8-2533l33.3-157.6 M311.7-2527.4c-17.2-3.8-34.5-7.5-51.8-10.9"/>
		</g>
		<g>
			<path class="st18" d="M388.3-2674.9l2.7-11.3 M456.9-2657.3c-45.6-12.5-91.6-23.6-137.9-33.3"/>
		</g>
		<g>
			<path class="st18" d="M159.3-2270.7l34.3-196.2 M174.6-2267.9c-10.1-1.9-20.3-3.6-30.5-5.3"/>
		</g>
		<g>
			<path class="st18" d="M168.4-2471.1l31.4-193.2 M193.6-2466.9c-16.8-2.9-33.6-5.7-50.4-8.2"/>
		</g>
		<g>
			<path class="st18" d="M167.8-2669.3l8.7-58.7 M199.9-2664.3c-21.4-3.5-42.7-6.7-64.2-9.5"/>
		</g>
		<g>
			<path class="st18" d="M284.2-2709.6l2-10.3 M391-2686.3c-70.8-17.1-142.4-31.1-214.4-41.8"/>
		</g>
		<g>
			<path class="st18" d="M534-2658l7.6-24.7 M774-2570.7c-157-66.6-320.4-116.5-487.8-149.2"/>
		</g>
		<g>
			<path class="st18" d="M195.1-2762l2.6-16.7 M541.6-2682.8c-227.2-69.5-463.2-105.9-700.7-108.1"/>
		</g>
		<g>
			<path class="st18" d="M1169.2-2252.2l12.7-18.1 M1184.3-2241.6c-10-7.1-20.1-14.1-30.2-21.1"/>
		</g>
		<g>
			<path class="st18" d="M845.7-1695l396.4-531.9 M856.4-1686.9c-7.1-5.4-14.3-10.7-21.5-16"/>
		</g>
		<g>
			<path class="st18" d="M1212.2-2248.8l38.6-53.5 M1242.1-2226.8c-19.9-14.8-39.9-29.3-60.2-43.5"/>
		</g>
		<g>
			<path class="st18" d="M1211.8-2329.8l12.4-17.9 M1250.7-2302.3c-25.8-18.6-52-36.7-78.5-54.3"/>
		</g>
		<g>
			<path class="st18" d="M1387.2-1950l67.7-70.5 M1399.9-1937.7c-8.4-8.2-16.9-16.4-25.5-24.5"/>
		</g>
		<g>
			<path class="st18" d="M1136.2-1527.5l111.1-102.1 M1145.6-1517.2c-6.2-6.9-12.5-13.7-18.9-20.5"/>
		</g>
		<g>
			<path class="st18" d="M1137.8-1455.2l109.7-94.7 M1146.6-1444.9c-5.9-6.9-11.8-13.8-17.8-20.6"/>
		</g>
		<g>
			<path class="st18" d="M1169.8-1310.2l26.4-19.4 M1177.5-1299.7c-5.1-7.1-10.3-14.1-15.5-21.1"/>
		</g>
		<g>
			<path class="st18" d="M1184.2-1345.7l19.5-14.7 M1196.2-1329.7c-7.9-10.7-15.9-21.4-24.1-31.9"/>
		</g>
		<g>
			<path class="st18" d="M1189.3-1379.2l19.3-14.9 M1203.7-1360.4c-9.5-12.6-19.2-25.1-29-37.4"/>
		</g>
		<g>
			<path class="st18" d="M1192.7-1414.3l100.7-80.4 M1208.6-1394.1c-10.5-13.5-21.2-26.9-32.1-40.2"/>
		</g>
		<g>
			<path class="st18" d="M1270.7-1522.6l40.6-33.8 M1293.4-1494.8c-14.9-18.7-30.2-37.1-45.8-55.2"/>
		</g>
		<g>
			<path class="st18" d="M1279.8-1593.4l73.4-64.1 M1311.3-1556.3c-20.7-25-42.1-49.4-64.1-73.3"/>
		</g>
		<g>
			<path class="st18" d="M1320.2-1694.3l78.8-72.3 M1353.1-1657.5c-21.7-24.8-43.9-49.1-66.8-72.8"/>
		</g>
		<g>
			<path class="st18" d="M1369.7-1797.8l157.4-150.3 M1398.9-1766.6c-19.3-21-38.9-41.6-59-61.8"/>
		</g>
		<g>
			<path class="st18" d="M1491.4-1984.7l65.1-64.9 M1527.1-1948.1c-23.6-24.7-47.6-48.8-72.2-72.4"/>
		</g>
		<g>
			<path class="st18" d="M1052-1683.9l137.4-152.3 M1062.7-1674.2c-7.1-6.5-14.2-12.9-21.3-19.2"/>
		</g>
		<g>
			<path class="st18" d="M1171.6-1852.1l46.5-52.8 M1189.5-1836.2c-11.8-10.7-23.8-21.2-35.9-31.6"/>
		</g>
		<g>
			<path class="st18" d="M1196.3-1923.9l61.3-71.6 M1218.1-1905c-14.4-12.7-29.1-25.3-43.9-37.6"/>
		</g>
		<g>
			<path class="st18" d="M1233-2016.3l97.2-116.8 M1257.7-1995.5c-16.4-14-32.9-27.8-49.7-41.3"/>
		</g>
		<g>
			<path class="st18" d="M1302.6-2155.8l57.2-70.9 M1330.2-2133.2c-18.3-15.2-36.8-30.2-55.6-44.8"/>
		</g>
		<g>
			<path class="st18" d="M1460.5-2140.8l10.5-11.7 M1556.5-2049.6c-62.3-62.5-128-121.6-196.7-177.1"/>
		</g>
		<g>
			<path class="st18" d="M1350.7-2254l10-12.7 M1471-2152.5c-78.1-70.3-160.5-135.5-246.9-195.2"/>
		</g>
		<g>
			<path class="st18" d="M1489.1-932.8l26.4-9.7 M1493.9-919.8c-3.1-8.7-6.3-17.4-9.6-26"/>
		</g>
		<g>
			<path class="st18" d="M1508-962.4l111.7-42.7 M1515.5-942.6c-4.9-13.2-9.9-26.4-15.1-39.5"/>
		</g>
		<g>
			<path class="st18" d="M1610.1-1029.6l24-9.6 M1619.7-1005.1c-6.3-16.4-12.8-32.7-19.5-48.9"/>
		</g>
		<g>
			<path class="st18" d="M1386.9-1009l159-70.3 M1392.2-996.8c-3.5-8.2-7.1-16.3-10.8-24.5"/>
		</g>
		<g>
			<path class="st18" d="M1536.9-1099.4l59.9-27.3 M1545.9-1079.3c-5.9-13.5-12.1-26.9-18.3-40.2"/>
		</g>
		<g>
			<path class="st18" d="M1616-1083.2l7.6-3.3 M1634.2-1039.2c-11.7-29.5-24.2-58.7-37.4-87.6"/>
		</g>
		<g>
			<path class="st18" d="M1603.2-1132.8l448.3-205.2 M1623.7-1086.5c-13.3-31.1-27.3-61.8-42.2-92.2"/>
		</g>
		<g>
			<path class="st18" d="M1783.5-972.7l318.6-106.5 M1788.6-957.4c-3.3-10.2-6.7-20.4-10.2-30.6"/>
		</g>
		<g>
			<path class="st18" d="M1638.9-740.3l175.7-41 M1642.1-726.1c-2.1-9.5-4.3-18.9-6.6-28.4"/>
		</g>
		<g>
			<path class="st18" d="M1593.7-643.1l66.9-12.3 M1596.2-629.3c-1.6-9.2-3.3-18.5-5.1-27.7"/>
		</g>
		<g>
			<path class="st18" d="M1656.5-677l173.1-34 M1660.6-655.4c-2.6-14.4-5.5-28.7-8.4-43"/>
		</g>
		<g>
			<path class="st18" d="M1822.4-746.2l150.3-32.3 M1829.7-711c-4.6-23.5-9.7-46.9-15.1-70.3"/>
		</g>
		<g>
			<path class="st18" d="M1962.8-822.4l53.8-12.7 M1972.7-778.5c-6.3-29.4-13.2-58.6-20.7-87.7"/>
		</g>
		<g>
			<path class="st18" d="M1585.8-816.1l25.8-7.3 M1589.6-802.3c-2.5-9.2-5.1-18.4-7.8-27.6"/>
		</g>
		<g>
			<path class="st18" d="M1605.5-844.3l378.9-112 M1611.6-823.4c-4-14-8.1-27.9-12.4-41.8"/>
		</g>
		<g>
			<path class="st18" d="M2001.3-896l144.2-38.3 M2016.6-835.1c-9.6-40.7-20.4-81.1-32.2-121.2"/>
		</g>
		<g>
			<path class="st18" d="M2125-1007.1l45.9-13.8 M2145.6-934.3c-13-48.7-27.4-97.1-43.4-144.9"/>
		</g>
		<g>
			<path class="st18" d="M2116.7-1181.5l13.6-5.1 M2170.9-1020.9c-32.5-108.3-72.4-214.3-119.4-317.1"/>
		</g>
		<g>
			<path class="st18" d="M1702.2-1613.4l126.5-87.1 M1712.2-1598.7c-6.7-9.8-13.4-19.6-20.2-29.4"/>
		</g>
		<g>
			<path class="st18" d="M1485.3-1352.6l309.6-192.5 M1493.3-1339.6c-5.3-8.7-10.7-17.4-16.2-26"/>
		</g>
		<g>
			<path class="st18" d="M1676.8-1392.8l119.6-69.3 M1685.1-1378.3c-5.5-9.7-11.1-19.4-16.8-29"/>
		</g>
		<g>
			<path class="st18" d="M1702.1-1292.9l43.3-22.4 M1709.7-1278.2c-5-9.8-10.1-19.6-15.2-29.4"/>
		</g>
		<g>
			<path class="st18" d="M1733.6-1337.8l101.8-54.3 M1745.4-1315.3c-7.8-15-15.8-29.9-23.9-44.8"/>
		</g>
		<g>
			<path class="st18" d="M1816.2-1427.3l36.2-20.1 M1835.4-1392.1c-12.6-23.6-25.6-46.9-39-70.1"/>
		</g>
		<g>
			<path class="st18" d="M1824.2-1496.6l65.9-38.8 M1852.4-1447.4c-18.4-33-37.5-65.6-57.5-97.7"/>
		</g>
		<g>
			<path class="st18" d="M1860.5-1584.5l31.4-19.5 M1890.2-1535.4c-19.4-33-39.6-65.5-60.5-97.5"/>
		</g>
		<g>
			<path class="st18" d="M1860.9-1652.6l24.6-16.1 M1891.9-1604c-20.3-32.7-41.3-64.8-63.1-96.5"/>
		</g>
		<g>
			<path class="st18" d="M2021.1-1434.4l14.6-7.4 M2130.2-1186.6c-63.7-169.2-145.8-330.9-244.8-482.1"/>
		</g>
		<g>
			<path class="st18" d="M1742.9-1890.8l3.7-3 M2035.7-1441.8c-162.7-320.5-393-601.9-674.9-824.9"/>
		</g>
		<g>
			<path class="st18" d="M1054-2479.6l2.2-3.8 M1746.6-1893.8c-389.4-476-941.1-791.1-1548.9-884.9"/>
		</g>
		<g>
			<path class="st18" d="M-2167.8-1392.9l-188.4-102.2 M-2159.4-1408.4c-5.7,10.3-11.3,20.6-16.8,30.9"/>
		</g>
		<g>
			<path class="st18" d="M-1482.2-1375.8l-34.5-28.1 M-1473.9-1385.9c-5.6,6.7-11.1,13.5-16.5,20.3"/>
		</g>
		<g>
			<path class="st18" d="M-1529.3-1388.2l-25.9-20.6 M-1516.7-1403.9c-8.5,10.4-16.8,20.9-25.1,31.5"/>
		</g>
		<g>
			<path class="st18" d="M-1570-1390l-55.4-42.9 M-1555.3-1408.9c-9.9,12.5-19.7,25.1-29.3,37.8"/>
		</g>
		<g>
			<path class="st18" d="M-1641.6-1411.7l-14.2-10.7 M-1625.4-1432.9c-10.9,14.1-21.6,28.3-32,42.6"/>
		</g>
		<g>
			<path class="st18" d="M-1672.3-1400l-75.3-54.8 M-1655.8-1422.4c-11.1,14.8-22.1,29.8-32.7,45"/>
		</g>
		<g>
			<path class="st18" d="M-1765-1430.7l-75.5-53.2 M-1747.7-1454.8c-11.6,16-23.1,32.2-34.2,48.6"/>
		</g>
		<g>
			<path class="st18" d="M-1305.6-1456.7l-89.2-90.6 M-1296.7-1465.4c-6,5.8-11.9,11.6-17.8,17.5"/>
		</g>
		<g>
			<path class="st18" d="M-1409.1-1533l-6.1-6.1 M-1394.8-1547.2c-9.6,9.4-19.1,19-28.5,28.7"/>
		</g>
		<g>
			<path class="st18" d="M-1437.7-1476.9l-19.6-18.2 M-1428.6-1486.7c-6.1,6.5-12.1,13-18.1,19.6"/>
		</g>
		<g>
			<path class="st18" d="M-1436.5-1517.3l-40.4-38.7 M-1415.2-1539.1c-14.3,14.4-28.3,29.1-42.1,44"/>
		</g>
		<g>
			<path class="st18" d="M-1502-1529.2l-22.2-20.4 M-1476.9-1556c-16.9,17.7-33.5,35.7-49.6,54"/>
		</g>
		<g>
			<path class="st18" d="M-1546.2-1525.3l-153.6-136.2 M-1524.2-1549.7c-14.8,16.1-29.4,32.5-43.6,49.2"/>
		</g>
		<g>
			<path class="st18" d="M-1772.6-1574.6l-45.6-36.1 M-1699.8-1661.5c-50.2,56.5-97.1,115.9-140.6,177.6"/>
		</g>
		<g>
			<path class="st18" d="M-1872.9-1538.5l-126.3-91.4 M-1818.2-1610.7c-37.5,47.3-72.9,96.3-106.1,146.7"/>
		</g>
		<g>
			<path class="st18" d="M-1703.3-1268.1l-58.9-36.9 M-1695.8-1279.9c-5,7.9-10,15.8-14.8,23.7"/>
		</g>
		<g>
			<path class="st18" d="M-1773.6-1286.4l-323-197 M-1762.2-1305c-7.7,12.3-15.3,24.7-22.7,37.2"/>
		</g>
		<g>
			<path class="st18" d="M-2049.3-1557.6l-164.9-109.7 M-1999.2-1629.9c-34.4,47.5-66.9,96.4-97.4,146.5"/>
		</g>
		<g>
			<path class="st18" d="M-2258-1599l-28-17.3 M-2214.2-1667.3c-30,45-58.4,91.1-85.3,138"/>
		</g>
		<g>
			<path class="st18" d="M-2322-1556.3l-11.3-6.6 M-2286-1616.3c-24.6,39.7-48,80.1-70.2,121.2"/>
		</g>
		<g>
			<path class="st18" d="M-1657.1-1960.9l-123.5-137.8 M-1644.3-1972.3c-8.6,7.6-17.2,15.3-25.6,23"/>
		</g>
		<g>
			<path class="st18" d="M-1801.4-2079.9l-56.6-61.7 M-1780.7-2098.7c-13.9,12.5-27.6,25.1-41.2,37.8"/>
		</g>
		<g>
			<path class="st18" d="M-1723-2146l-29.2-34.6 M-1708.7-2158c-9.6,7.9-19.1,15.9-28.5,24"/>
		</g>
		<g>
			<path class="st18" d="M-1197.5-1829.9l-29.7-44.4 M-1185.6-1837.8c-7.9,5.2-15.8,10.5-23.6,15.8"/>
		</g>
		<g>
			<path class="st18" d="M-1245.3-1862l-230.7-335.6 M-1227.2-1874.3c-12.1,8.1-24.2,16.4-36.1,24.8"/>
		</g>
		<g>
			<path class="st18" d="M-1454.6-2034l-86.7-117 M-1441.1-2043.8c-9,6.5-17.9,13.1-26.8,19.8"/>
		</g>
		<g>
			<path class="st18" d="M-1508.8-2174.6l-71.4-100.1 M-1476-2197.5c-22,15.1-43.7,30.6-65.2,46.5"/>
		</g>
		<g>
			<path class="st18" d="M-1637-2157.4l-37-46.8 M-1622.6-2168.7c-9.6,7.5-19.2,15-28.7,22.7"/>
		</g>
		<g>
			<path class="st18" d="M-1627.5-2240l-18.7-24.9 M-1580.3-2274.6c-31.8,22.7-63,46.2-93.7,70.4"/>
		</g>
		<g>
			<path class="st18" d="M-1699.8-2223.5l-17.2-21.6 M-1646.2-2264.9c-36.1,27.1-71.4,55.2-105.9,84.2"/>
		</g>
		<g>
			<path class="st18" d="M-1289.6-2282.8l-78.8-140.1 M-1274.2-2291.4c-10.3,5.7-20.5,11.4-30.7,17.3"/>
		</g>
		<g>
			<path class="st18" d="M-1279.2-2414.8l-13.8-26.4 M-1262.8-2423.3c-10.9,5.6-21.9,11.3-32.7,17.1"/>
		</g>
		<g>
			<path class="st18" d="M-1022.1-2052.6l-99.7-206.2 M-1008.5-2059.1c-9.1,4.3-18.1,8.7-27.1,13.1"/>
		</g>
		<g>
			<path class="st18" d="M-973.9-2169.4l-27.8-65 M-959.4-2175.6c-9.7,4-19.3,8.1-28.9,12.3"/>
		</g>
		<g>
			<path class="st18" d="M-1024-2224.8l-29-65.8 M-1001.7-2234.5c-15,6.4-29.8,12.9-44.6,19.7"/>
		</g>
		<g>
			<path class="st18" d="M-1087.5-2275l-95-205.7 M-1053.1-2290.6c-23.1,10.2-46,20.8-68.7,31.7"/>
		</g>
		<g>
			<path class="st18" d="M-922.7-2211l-113-289.3 M-907.9-2216.7c-9.9,3.8-19.7,7.6-29.5,11.5"/>
		</g>
		<g>
			<path class="st18" d="M-832.6-2241.5l-60.1-178.1 M-817.6-2246.6c-10,3.3-20,6.7-30,10.1"/>
		</g>
		<g>
			<path class="st18" d="M-917.3-2411.2l-41.3-117.6 M-892.8-2419.6c-16.4,5.5-32.7,11.3-49,17.2"/>
		</g>
		<g>
			<path class="st18" d="M-997.3-2514.9l-5.1-13.7 M-958.6-2528.8c-25.9,9.1-51.6,18.6-77.1,28.6"/>
		</g>
		<g>
			<path class="st18" d="M-687.2-1980.3L-861.8-2556 M-674.2-1984.2c-8.7,2.6-17.3,5.2-25.9,7.9"/>
		</g>
		<g>
			<path class="st18" d="M-602.5-2093l-42.2-178.6 M-588.6-2096.2c-9.2,2.1-18.5,4.3-27.7,6.5"/>
		</g>
		<g>
			<path class="st18" d="M-667.6-2266l-71-285.5 M-644.7-2271.6c-15.2,3.6-30.4,7.4-45.6,11.3"/>
		</g>
		<g>
			<path class="st18" d="M-433.5-2115.8l-3.1-22.2 M-419.5-2117.7c-9.4,1.2-18.7,2.5-28.1,3.9"/>
		</g>
		<g>
			<path class="st18" d="M-457.9-2134.9l-6.3-41.3 M-436.6-2138c-14.2,2-28.4,4.1-42.5,6.4"/>
		</g>
		<g>
			<path class="st18" d="M-489.5-2172.2l-62.3-376.3 M-464.2-2176.2c-16.9,2.6-33.8,5.4-50.6,8.4"/>
		</g>
		<g>
			<path class="st18" d="M-382.4-2169.6l-19.9-184.8 M-367.9-2171.2c-9.6,1-19.3,2-28.9,3.1"/>
		</g>
		<g>
			<path class="st18" d="M-328-2220.6l-10.7-139.7 M-313.1-2221.7c-9.9,0.7-19.8,1.4-29.7,2.3"/>
		</g>
		<g>
			<path class="st18" d="M-370.5-2357.6l-19.5-211.7 M-338.7-2360.3c-21.2,1.6-42.5,3.6-63.6,5.9"/>
		</g>
		<g>
			<path class="st18" d="M-471.1-2560.4l-2-15.4 M-390-2569.3c-54.1,5-108.1,11.9-161.7,20.8"/>
		</g>
		<g>
			<path class="st18" d="M-630-2512.8l-7.3-35.7 M-612.8-2516.2c-11.4,2.2-22.8,4.6-34.2,7"/>
		</g>
		<g>
			<path class="st18" d="M-555.4-2563.6l-4.2-25 M-473.1-2575.7c-55,7.1-109.8,16.2-164.2,27.3"/>
		</g>
		<g>
			<path class="st18" d="M-649.5-2571.9l-4.8-23.2 M-559.6-2588.6c-60.1,10-119.9,22.4-179,37.1"/>
		</g>
		<g>
			<path class="st18" d="M-730.3-2578l-3.1-12.9 M-654.3-2595.1c-50.9,10.5-101.4,22.8-151.5,36.7"/>
		</g>
		<g>
			<path class="st18" d="M-797.9-2574.4l-5-18.3 M-733.4-2591c-43.1,10.4-85.9,22.1-128.4,35"/>
		</g>
		<g>
			<path class="st18" d="M-903.3-2562.9l-7.6-23.7 M-802.9-2592.7c-67.4,18.4-134,39.7-199.5,64"/>
		</g>
		<g>
			<path class="st18" d="M-1048.4-2537.8l-4.8-12.4 M-910.9-2586.5c-92.6,29.7-183.3,65.1-271.6,105.9"/>
		</g>
		<g>
			<path class="st18" d="M-1174.6-2499l-8.2-18.1 M-1053.2-2550.1c-81.8,31.9-161.9,68.3-239.7,109"/>
		</g>
		<g>
			<path class="st18" d="M-1276.6-2472l-4.3-8.5 M-1182.8-2517.1c-63.2,28.7-125.1,60.1-185.6,94.2"/>
		</g>
		<g>
			<path class="st18" d="M-1353-2251.8l-50.5-83.5 M-1337.9-2260.9c-10.1,6-20.2,12.1-30.2,18.2"/>
		</g>
		<g>
			<path class="st18" d="M-1427-2320.9l-35.6-57.3 M-1403.5-2335.3c-15.7,9.5-31.4,19.2-46.9,29.1"/>
		</g>
		<g>
			<path class="st18" d="M-1372.9-2431.3l-18.5-32.8 M-1280.9-2480.5c-62,31.5-122.6,65.6-181.7,102.2"/>
		</g>
		<g>
			<path class="st18" d="M-1558.5-2361.1l-7.3-10.8 M-1391.3-2464.1c-114.2,64.3-223,137.5-325.6,219.1"/>
		</g>
		<g>
			<path class="st18" d="M-1716.2-2262.2l-5-6.4 M-1565.7-2371.9c-103.1,69.3-200.7,146.3-292.3,230.3"/>
		</g>
		<g>
			<path class="st18" d="M-2060.7-1944.7l-7.6-6.6 M-1721.2-2268.6c-246.8,194.5-454.5,434-612.1,705.8"/>
		</g>
		<g>
			<path class="st18" d="M-601.3-2776.8l-0.6-3.4 M1056.2-2483.4c-1035-591.3-2343.6-368.5-3124.6,532.1"/>
		</g>
		<g>
			<path class="st18" d="M1861.6-204.1l291.9,15.9 M1860.6-188.2c0.7-10.6,1.2-21.2,1.7-31.8"/>
		</g>
		<g>
			<path class="st18" d="M2154.8-215.4l109.2,4.7 M2153.5-188.1c1-18.2,1.8-36.4,2.3-54.6"/>
		</g>
		<g>
			<path class="st18" d="M1573.7-302l692.5,5.4 M1573.6-288.3c0.1-9.1,0.2-18.2,0.2-27.4"/>
		</g>
		<g>
			<path class="st18" d="M2265.5-253.7l40.5,1 M2264.1-210.8c1.2-28.6,2-57.2,2.2-85.8"/>
		</g>
		<g>
			<path class="st18" d="M1664.6-40.2l161.7,24.1 M1662.4-25.8c1.5-9.6,2.9-19.2,4.3-28.8"/>
		</g>
		<g>
			<path class="st18" d="M1684.2,52.6l19.1,3.8 M1681.2,67.1c2-9.7,3.9-19.4,5.7-29.1"/>
		</g>
		<g>
			<path class="st18" d="M1637.4,102.6l53.4,12.3 M1634.1,116.8c2.2-9.4,4.4-18.9,6.5-28.4"/>
		</g>
		<g>
			<path class="st18" d="M1697.3,85.7l46.8,10 M1690.8,114.9c4.5-19.5,8.6-39,12.5-58.6"/>
		</g>
		<g>
			<path class="st18" d="M1751.7,58.1l60,11.6 M1744,95.7c5.3-25,10.2-50.1,14.6-75.3"/>
		</g>
		<g>
			<path class="st18" d="M1819.5,26.9l26.3,4.5 M1811.7,69.7c5.5-28.5,10.4-57.1,14.7-85.8"/>
		</g>
		<g>
			<path class="st18" d="M1853.1-14.1l389.1,57.6 M1845.8,31.4c5.2-30.3,9.7-60.7,13.5-91.2"/>
		</g>
		<g>
			<path class="st18" d="M1797.6-114.4l346,35.2 M1796-99c1.1-10.3,2.2-20.6,3.1-30.9"/>
		</g>
		<g>
			<path class="st18" d="M2146.1-106.5l112.7,10.1 M2143.5-79.3c1.8-18.1,3.5-36.3,4.9-54.4"/>
		</g>
		<g>
			<path class="st18" d="M2251.5-26.3l19.8,2.4 M2242.2,43.5c6.9-46.4,12.4-93.1,16.6-139.8"/>
		</g>
		<g>
			<path class="st18" d="M1544.4,196.4l100.5,29.8 M1540.3,209.8c2.7-8.9,5.4-17.9,8-26.9"/>
		</g>
		<g>
			<path class="st18" d="M1651.1,204.8l392.2,111.3 M1644.9,226.2c4.2-14.2,8.3-28.5,12.2-42.9"/>
		</g>
		<g>
			<path class="st18" d="M2051.7,285.7l127.6,34.3 M2043.3,316.1c5.7-20.2,11.2-40.5,16.4-60.9"/>
		</g>
		<g>
			<path class="st18" d="M1579.1,328.5l41.7,15.2 M1574,342.2c3.4-9.1,6.8-18.3,10-27.4"/>
		</g>
		<g>
			<path class="st18" d="M1628.3,322.6l132.3,46.7 M1620.8,343.8c5.1-14,10.1-28.2,14.9-42.3"/>
		</g>
		<g>
			<path class="st18" d="M1769.8,342.7l322.2,108.7 M1760.7,369.3c6.2-17.7,12.2-35.4,18-53.2"/>
		</g>
		<g>
			<path class="st18" d="M1926,687.5l32.8,15.6 M1918.1,703.9c5.3-10.9,10.5-21.9,15.6-32.9"/>
		</g>
		<g>
			<path class="st18" d="M1514.6,557.6l163.9,84.3 M1507.7,570.8c4.6-8.8,9.1-17.6,13.6-26.4"/>
		</g>
		<g>
			<path class="st18" d="M1401,595.1l107.2,61.7 M1393.8,607.4c4.8-8.2,9.5-16.4,14.2-24.7"/>
		</g>
		<g>
			<path class="st18" d="M1519.4,637l124.3,69.6 M1508.2,656.8c7.6-13.2,15-26.4,22.3-39.8"/>
		</g>
		<g>
			<path class="st18" d="M1661.4,674.4l229,123 M1643.7,706.6c11.9-21.3,23.5-42.9,34.7-64.6"/>
		</g>
		<g>
			<path class="st18" d="M1252.9,570.6l466.8,288.3 M1245.9,581.7c4.7-7.4,9.3-14.9,13.8-22.4"/>
		</g>
		<g>
			<path class="st18" d="M1324.6,715.2l103.4,70.7 M1316.6,726.9c5.4-7.8,10.8-15.6,16.1-23.5"/>
		</g>
		<g>
			<path class="st18" d="M1440.8,767l236.6,157.8 M1428,785.9c8.6-12.5,17-25.2,25.3-37.9"/>
		</g>
		<g>
			<path class="st18" d="M1698.9,892l63.2,40.5 M1677.4,924.8c14.5-21.7,28.6-43.7,42.3-66"/>
		</g>
		<g>
			<path class="st18" d="M1238.9,723l402.7,294.3 M1230.8,734c5.5-7.3,10.8-14.7,16.2-22.1"/>
		</g>
		<g>
			<path class="st18" d="M1538.7,1070l9.9,8 M1527.9,1083.4c7.3-8.9,14.5-17.8,21.6-26.8"/>
		</g>
		<g>
			<path class="st18" d="M1564.8,1057.7l29,22.8 M1548.7,1078c10.9-13.5,21.6-27.1,32.1-40.8"/>
		</g>
		<g>
			<path class="st18" d="M1618,1049.1l40.9,31 M1593.8,1080.4c16.3-20.8,32.3-41.8,47.8-63.1"/>
		</g>
		<g>
			<path class="st18" d="M1711.9,1007.3l34.5,24.1 M1658.9,1080.1c36.3-47.8,70.6-97,103.1-147.5"/>
		</g>
		<g>
			<path class="st18" d="M1821.8,916.5l15.7,9.7 M1746.5,1031.5c52.5-75.2,100.6-153.3,143.9-234.1"/>
		</g>
		<g>
			<path class="st18" d="M1901.2,816.3l17.8,9.7 M1837.6,926.2c44.4-72.1,84.8-146.6,121.2-223.1"/>
		</g>
		<g>
			<path class="st18" d="M1434.1,392.5l66.6,29.2 M1428.5,405.1c3.7-8.4,7.4-16.8,11-25.2"/>
		</g>
		<g>
			<path class="st18" d="M1509.2,402l98.8,41.9 M1500.7,421.7c5.7-13.1,11.3-26.3,16.8-39.5"/>
		</g>
		<g>
			<path class="st18" d="M1618.2,419.4l413.5,168.8 M1608,443.9c6.9-16.3,13.6-32.6,20-49.1"/>
		</g>
		<g>
			<path class="st18" d="M1978.6,708.7l8,3.8 M1919,826c41.9-77.1,79.5-156.5,112.7-237.7"/>
		</g>
		<g>
			<path class="st18" d="M2043.2,583.5l42.2,17 M1986.6,712.5c40.2-84.9,75.4-172,105.5-261"/>
		</g>
		<g>
			<path class="st18" d="M2136.6,461.7l23.9,8 M2085.3,600.5c37-91.5,68.4-185.1,94-280.4"/>
		</g>
		<g>
			<path class="st18" d="M2228.6,225.7l17.7,4 M2160.5,469.7c53.8-160.3,90.9-325.8,110.9-493.7"/>
		</g>
		<g>
			<path class="st18" d="M2288-10l7.2,0.9 M2246.3,229.7c35.6-158.5,55.6-320,59.7-482.4"/>
		</g>
		<g>
			<path class="st18" d="M1556.8,1223.9l61.1,54.1 M1544.8,1237.4c8.1-9,16.1-18,24-27.1"/>
		</g>
		<g>
			<path class="st18" d="M1636.4,1256.9l43.5,37.6 M1617.9,1278c12.4-14,24.7-28.2,36.8-42.5"/>
		</g>
		<g>
			<path class="st18" d="M1354.3,1132.5l168.8,159.1 M1343,1144.4c7.6-7.9,15.1-15.9,22.6-23.9"/>
		</g>
		<g>
			<path class="st18" d="M1166.2,1124l59.2,63.2 M1154.9,1134.5c7.5-6.9,15-14,22.4-21"/>
		</g>
		<g>
			<path class="st18" d="M1242.8,1170.7l38.2,39.8 M1225.4,1187.2c11.7-11,23.3-22.1,34.7-33.3"/>
		</g>
		<g>
			<path class="st18" d="M1301.7,1190.4l56,56.8 M1281,1210.5c13.9-13.3,27.6-26.8,41.1-40.5"/>
		</g>
		<g>
			<path class="st18" d="M1085.6,1219.5l76.7,92.8 M1073.6,1229.3c8-6.5,16-13.1,23.9-19.8"/>
		</g>
		<g>
			<path class="st18" d="M1181.2,1296.5l28.7,33.9 M1162.3,1312.3c12.7-10.5,25.2-21.1,37.7-31.9"/>
		</g>
		<g>
			<path class="st18" d="M1232.2,1311.2l25.1,28.9 M1209.9,1330.3c15-12.7,29.8-25.5,44.4-38.6"/>
		</g>
		<g>
			<path class="st18" d="M1308.2,1294.5l101.4,109.6 M1257.3,1340.1c34.4-29.9,67.9-60.9,100.3-92.9"/>
		</g>
		<g>
			<path class="st18" d="M1467.3,1348.8l83.3,84.1 M1409.6,1404c39.1-36.2,76.9-73.7,113.5-112.4"/>
		</g>
		<g>
			<path class="st18" d="M1616.6,1364.9l19.8,18.5 M1550.6,1432.8c44.9-44.4,88-90.6,129.3-138.4"/>
		</g>
		<g>
			<path class="st18" d="M619.7,1454.3l104.9,231.6 M605.9,1460.5c9.2-4.1,18.4-8.3,27.6-12.5"/>
		</g>
		<g>
			<path class="st18" d="M748,1675.2l54.9,117.5 M724.7,1685.9c15.6-7.1,31.1-14.3,46.5-21.7"/>
		</g>
		<g>
			<path class="st18" d="M831.5,1779.1l10.3,21.3 M802.9,1792.7c19.2-9,38.2-18.2,57.1-27.6"/>
		</g>
		<g>
			<path class="st18" d="M527.5,1390.2l169.7,408 M514.2,1395.7c8.9-3.6,17.8-7.3,26.6-11.1"/>
		</g>
		<g>
			<path class="st18" d="M410.2,1494.3l24.1,73.6 M396.1,1498.9c9.4-3,18.8-6.1,28.2-9.2"/>
		</g>
		<g>
			<path class="st18" d="M456.3,1560.5l3.5,10.4 M434.3,1567.9c14.7-4.8,29.3-9.8,43.9-14.9"/>
		</g>
		<g>
			<path class="st18" d="M485.5,1562l96.3,270.9 M459.8,1570.9c17.1-5.8,34.2-11.9,51.2-18.2"/>
		</g>
		<g>
			<path class="st18" d="M613.1,1821.5l3.2,8.6 M581.8,1832.9c20.9-7.4,41.7-15.2,62.4-23.2"/>
		</g>
		<g>
			<path class="st18" d="M656.9,1814.5l15.2,38.5 M616.3,1830.1c27.2-10.1,54.1-20.7,80.9-31.9"/>
		</g>
		<g>
			<path class="st18" d="M324.6,1518.8l31.6,114.4 M310.3,1522.7c9.5-2.6,19.1-5.2,28.6-7.9"/>
		</g>
		<g>
			<path class="st18" d="M279.1,1582.3l16.2,66.7 M264.3,1585.9c9.9-2.3,19.7-4.7,29.6-7.2"/>
		</g>
		<g>
			<path class="st18" d="M325.8,1641.4l8,31 M295.3,1649.1c20.4-5,40.7-10.2,61-15.8"/>
		</g>
		<g>
			<path class="st18" d="M372.5,1661.9l72.4,258.2 M333.9,1672.4c25.8-6.7,51.5-13.9,77-21.6"/>
		</g>
		<g>
			<path class="st18" d="M274.1,1854.8l10.6,50.6 M257.2,1858.2c11.3-2.3,22.6-4.7,33.8-7.1"/>
		</g>
		<g>
			<path class="st18" d="M81.1,1310.7l74.8,462.1 M68.4,1312.7c8.5-1.3,16.9-2.7,25.3-4.1"/>
		</g>
		<g>
			<path class="st18" d="M180.3,1768.7l21.2,121.9 M155.9,1772.8c16.3-2.6,32.5-5.5,48.7-8.5"/>
		</g>
		<g>
			<path class="st18" d="M-446.7,1420.4l-3.1,20 M-460.2,1418.2c9,1.4,18,2.8,27.1,4.1"/>
		</g>
		<g>
			<path class="st18" d="M-429.2,1443.4l-4.9,35.2 M-449.7,1440.4c13.7,2.1,27.4,4,41.1,5.8"/>
		</g>
		<g>
			<path class="st18" d="M-409.6,1481.8l-4.4,35 M-434.1,1478.6c16.3,2.3,32.7,4.4,49,6.2"/>
		</g>
		<g>
			<path class="st18" d="M-387.3,1520l-3.4,30.5 M-414.1,1516.8c17.8,2.3,35.7,4.3,53.6,6"/>
		</g>
		<g>
			<path class="st18" d="M-316.5,1513.7l-3.2,43.3 M-330.7,1512.6c9.5,0.8,19,1.5,28.5,2.1"/>
		</g>
		<g>
			<path class="st18" d="M-355.2,1554.1l-1.4,14.9 M-390.7,1550.5c23.6,2.6,47.3,4.8,71,6.6"/>
		</g>
		<g>
			<path class="st18" d="M-316.6,1572.3l-1.1,15.7 M-356.6,1569c26.6,2.5,53.3,4.4,80,5.7"/>
		</g>
		<g>
			<path class="st18" d="M-282.7,1590.2l-1.3,23.7 M-317.7,1588c23.3,1.7,46.7,2.9,70.1,3.7"/>
		</g>
		<g>
			<path class="st18" d="M-251.2,1615.4l-0.4,11.8 M-284,1614c21.8,1.2,43.7,1.9,65.6,2.3"/>
		</g>
		<g>
			<path class="st18" d="M-220,1628.1l-1.6,84.4 M-251.6,1627.2c21.1,0.8,42.2,1.2,63.3,1.2"/>
		</g>
		<g>
			<path class="st18" d="M-145.1,1518.9l1.6,81.4 M-159.4,1519.2c9.5-0.1,19.1-0.3,28.6-0.6"/>
		</g>
		<g>
			<path class="st18" d="M-121,1599.8l3.6,112.1 M-143.4,1600.4c14.9-0.3,29.9-0.8,44.8-1.4"/>
		</g>
		<g>
			<path class="st18" d="M-169.5,1712.8l0.2,31.5 M-221.6,1712.5c34.7,0.7,69.4,0.5,104.1-0.7"/>
		</g>
		<g>
			<path class="st18" d="M-61.9,1477.7l1.7,25.1 M-75.9,1478.6c9.3-0.6,18.6-1.2,27.9-1.9"/>
		</g>
		<g>
			<path class="st18" d="M-39,1501.2l3,38 M-60.2,1502.8c14.2-1,28.3-2.1,42.5-3.3"/>
		</g>
		<g>
			<path class="st18" d="M-10.7,1537.1l2.7,29.2 M-36,1539.2c16.9-1.3,33.7-2.9,50.5-4.7"/>
		</g>
		<g>
			<path class="st18" d="M19.5,1563.5l18.2,169.1 M-8,1566.2c18.3-1.7,36.6-3.7,54.9-5.9"/>
		</g>
		<g>
			<path class="st18" d="M-65.7,1741.1l2.8,50.2 M-169.3,1744.4c69.1-0.4,138.2-4.3,207-11.7"/>
		</g>
		<g>
			<path class="st18" d="M21.9,1784.8l12.5,128.4 M-62.9,1791.3c56.6-3.2,113-8.7,169.1-16.4"/>
		</g>
		<g>
			<path class="st18" d="M118.1,1903.5l4.1,30 M34.3,1913.2c56-5.4,111.7-13,167.1-22.6"/>
		</g>
		<g>
			<path class="st18" d="M203.7,1920.9l8.9,51.7 M122.2,1933.4c54.5-7.4,108.8-16.7,162.6-28.1"/>
		</g>
		<g>
			<path class="st18" d="M329.5,1949.4l1.9,8.6 M212.7,1972.6c78.3-13.5,155.8-31,232.3-52.5"/>
		</g>
		<g>
			<path class="st18" d="M503.7,1912l5.9,19.1 M331.4,1957.9c116.1-26.2,230-61.3,340.7-104.9"/>
		</g>
		<g>
			<path class="st18" d="M678.2,1872l17.4,44.1 M509.6,1931.1c113.9-35.1,225-78.8,332.3-130.7"/>
		</g>
		<g>
			<path class="st18" d="M683.1,1315.4l17.7,33.4 M670.3,1322.1c8.5-4.4,17-8.9,25.4-13.5"/>
		</g>
		<g>
			<path class="st18" d="M720.2,1338.4l44.7,82 M700.8,1348.8c13-6.9,25.9-13.9,38.7-21.1"/>
		</g>
		<g>
			<path class="st18" d="M788.5,1407.3l50.4,89.5 M764.9,1420.4c15.8-8.6,31.4-17.4,47-26.5"/>
		</g>
		<g>
			<path class="st18" d="M865.3,1481.7l23.3,39.9 M838.9,1496.8c17.7-9.9,35.2-20.1,52.5-30.6"/>
		</g>
		<g>
			<path class="st18" d="M916.2,1505.3l140.3,232.7 M888.6,1521.6c18.5-10.8,36.8-21.8,55-33.2"/>
		</g>
		<g>
			<path class="st18" d="M879.8,1834.6l7.9,16 M695.6,1916.2c125.1-49.2,245.8-108.8,360.9-178.3"/>
		</g>
		<g>
			<path class="st18" d="M1010.1,1785.7l27.5,48.4 M887.7,1850.6c82.9-40.9,163.3-86.6,240.9-136.7"/>
		</g>
		<g>
			<path class="st18" d="M1046.9,1270.8l273.2,352.6 M1034.5,1280.3c8.3-6.3,16.5-12.7,24.7-19.2"/>
		</g>
		<g>
			<path class="st18" d="M844.9,1195.9l46.7,68.7 M833.1,1203.9c7.9-5.3,15.7-10.6,23.6-16"/>
		</g>
		<g>
			<path class="st18" d="M910,1252l247.5,355.3 M891.6,1264.6c12.3-8.4,24.5-16.9,36.6-25.5"/>
		</g>
		<g>
			<path class="st18" d="M1183.6,1588.8l63.7,88.8 M1157.5,1607.2c17.5-12.2,34.8-24.6,51.9-37.2"/>
		</g>
		<g>
			<path class="st18" d="M1283.9,1650.8l11.3,15.2 M1247.3,1677.6c24.6-17.6,48.9-35.7,72.8-54.3"/>
		</g>
		<g>
			<path class="st18" d="M1169,1754.1l9.3,14.2 M1037.6,1834.2c89.3-50.7,175.3-106.8,257.6-168.2"/>
		</g>
		<g>
			<path class="st18" d="M1419,1589.6l4.9,5.8 M1178.3,1768.3c167.6-109.4,321.4-238.7,458.1-385"/>
		</g>
		<g>
			<path class="st18" d="M2011.5,875.7l3.2,1.8 M1423.8,1595.4c482.7-405.6,794-978.8,871.4-1604.5"/>
		</g>
		<g>
			<path class="st18" d="M-2215.5,1138.9L-2215.5,1138.9 M-601.9-2780.2C-1753.9-2584-2616.3-1616-2678.7-449.1
				s692,2221.3,1816.5,2539.2S1457,1904.3,2014.7,877.4"/>
		</g>
	</g>
	<g id="scaleHolder">
	</g>
	<g id="bootstrapHolder">
	</g>
	<g id="branchlengthHolder">
	</g>
	<g id="branchIDHolder">
	</g>
	<g id="datasetHolder">
		<path class="st19" d="M-72,1074.8l74.5-7.9l-29.3,78.5L-72,1074.8"/>
		<path class="st19" d="M84-1684.8l-73.9-12.3l49.3-67.7L84-1684.8"/>
		<path class="st19" d="M542.8,875.9l62.9-40.6l9.2,83.2L542.8,875.9"/>
		<path class="st19" d="M-1496.8,150.7l26.9,69.9l-83.4-8L-1496.8,150.7"/>
		<path class="st19" d="M168.7-1665.6l-73-16.9l53.4-64.5L168.7-1665.6"/>
		<path class="st19" d="M1190.3-563.8l-15.3-73.3l81,21.4L1190.3-563.8"/>
		<path class="st19" d="M-685.3-1616.6l-69.1,28.9l5.7-83.6L-685.3-1616.6"/>
		<path class="st19" d="M-1364.7,424.1l41.4,62.4l-83.1,10.2L-1364.7,424.1"/>
		<path class="st19" d="M-66.7-1705.7l-74.8-4.2l41.6-72.7L-66.7-1705.7"/>
		<path class="st19" d="M-765.3-1582.7l-67.2,33.1l0.5-83.8L-765.3-1582.7"/>
		<path class="st19" d="M-1438.2,291l34.4,66.6l-83.7,1.1L-1438.2,291"/>
		<path class="st19" d="M-115.4,1077.5l74.7-5.6l-31.8,77.5L-115.4,1077.5"/>
		<path class="st19" d="M35.9,1062l73.6-13.7l-23.1,80.5L35.9,1062"/>
		<path class="st19" d="M1176,1.6l15.1-73.4l65.8,51.8L1176,1.6"/>
		<path class="st19" d="M-413.2-1691.2l-73.5,14.4l22.4-80.7L-413.2-1691.2"/>
		<path class="st19" d="M637.7-1444l-61.8-42.4l73.3-40.6L637.7-1444"/>
		<path class="st19" d="M486.3,908.5l64.8-37.7l5.3,83.6L486.3,908.5"/>
		<path class="st19" d="M1086.6-894.8l-32.9-67.3l83.7,0.7L1086.6-894.8"/>
		<path class="st19" d="M-1473.5,211.6l30.2,68.6l-83.7-4.1L-1473.5,211.6"/>
		<path class="st19" d="M1055.7,326.9l32.7-67.4l51,66.4L1055.7,326.9"/>
		<path class="st19" d="M57.3,1058.4l73.4-14.8l-21.9,80.8L57.3,1058.4"/>
		<path class="st19" d="M-545.8,1030.9l72.8,17.6l-54,64L-545.8,1030.9"/>
		<path class="st19" d="M-936.7-1488.8l-61.9,42.2l-11.3-83L-936.7-1488.8"/>
		<path class="st19" d="M-899.8-1511.7l-63.2,40.2l-8.7-83.3L-899.8-1511.7"/>
		<path class="st19" d="M-1398,368.1l38.5,64.3l-83.5,6.3L-1398,368.1"/>
		<path class="st19" d="M-1517.1,88.7l23.6,71.1l-82.9-11.9L-1517.1,88.7"/>
		<path class="st19" d="M-1573-209.8l7.7,74.5l-78.4-29.6L-1573-209.8"/>
		<path class="st19" d="M1118.3,188.3l25.2-70.6l58,60.5L1118.3,188.3"/>
		<path class="st19" d="M-1277.1,548.5l48,57.5l-81.5,19.2L-1277.1,548.5"/>
		<path class="st19" d="M505.3,897.9l64.2-38.7l6.6,83.5L505.3,897.9"/>
		<path class="st19" d="M685.3,776.5l57.4-48.2l19.5,81.5L685.3,776.5"/>
		<path class="st19" d="M62.6-1688.8l-74.1-11.2l48.2-68.5L62.6-1688.8"/>
		<path class="st19" d="M-1566.5-144.9l11.2,74.1l-79.7-25.9L-1566.5-144.9"/>
		<path class="st19" d="M-1300.3-1149.6l-43.2,61.2l-39.6-73.8L-1300.3-1149.6"/>
		<path class="st19" d="M78.7,1054.5l73.2-16l-20.6,81.2L78.7,1054.5"/>
		<path class="st19" d="M-375.6,1065.7l74.4,8.4l-45.6,70.2L-375.6,1065.7"/>
		<path class="st19" d="M-804.5-1563.9l-66.1,35.2l-2.1-83.7L-804.5-1563.9"/>
		<path class="st19" d="M447.8,928.7l65.9-35.6l2.7,83.7L447.8,928.7"/>
		<path class="st19" d="M-649.5,998.5l71.2,23.2l-58.8,59.6L-649.5,998.5"/>
		<path class="st19" d="M-1338-1096.4l-40.2,63.2l-43.1-71.8L-1338-1096.4"/>
		<path class="st19" d="M-498.5-1674.1l-72.5,18.9l17.3-81.9L-498.5-1674.1"/>
		<path class="st19" d="M-180.6,1079.1l74.9-2.1L-141,1153L-180.6,1079.1"/>
		<path class="st19" d="M1186.3-585.1l-16.4-73.1l81.3,20.1L1186.3-585.1"/>
		<path class="st19" d="M-283.8-1706.7l-74.5,7.5l29.8-78.3L-283.8-1706.7"/>
		<path class="st19" d="M-1503.9,130.1l25.8,70.3l-83.2-9.3L-1503.9,130.1"/>
		<path class="st19" d="M602.1-1469l-63.1-40.4l72-42.8L602.1-1469"/>
		<path class="st19" d="M-1479.6-827.7l-25.6,70.4l-57.6-60.8L-1479.6-827.7"/>
		<path class="st19" d="M-50.4,1072.9l74.4-9.1l-28.1,78.9L-50.4,1072.9"/>
		<path class="st19" d="M-623.9-1638.7l-70.4,25.6l9.6-83.2L-623.9-1638.7"/>
		<path class="st19" d="M1172.2-648.8l-19.8-72.2l82.2,16.3L1172.2-648.8"/>
		<path class="st19" d="M-1273.8-1184l-45,59.9l-37.3-75L-1273.8-1184"/>
		<path class="st19" d="M-310.8,1073.2l74.8,4.9l-42.3,72.3L-310.8,1073.2"/>
		<path class="st19" d="M1166.8-669.9l-21-71.9l82.4,15L1166.8-669.9"/>
		<path class="st19" d="M-990.7-1452.2l-59.9,45l-15.1-82.4L-990.7-1452.2"/>
		<path class="st19" d="M1104.1-855l-30.8-68.3l83.7,3.3L1104.1-855"/>
		<path class="st19" d="M1148.8-732.5l-24.3-70.9l83,11.1L1148.8-732.5"/>
		<path class="st19" d="M349,974l68.5-30.4l-3.9,83.7L349,974"/>
		<path class="st19" d="M-1395.3-1004.1l-35.2,66.1l-48.5-68.3L-1395.3-1004.1"/>
		<path class="st19" d="M1045.5,346.1l33.8-66.9l50,67.2L1045.5,346.1"/>
		<path class="st19" d="M-1534.6,25.9l20.3,72.1l-82.3-15.8L-1534.6,25.9"/>
		<path class="st19" d="M718.9,748.9l55.9-49.9l22,80.8L718.9,748.9"/>
		<path class="st19" d="M467.1,918.7l65.3-36.6l4,83.7L467.1,918.7"/>
		<path class="st19" d="M-1489.3,171.1l28,69.5l-83.5-6.7L-1489.3,171.1"/>
		<path class="st19" d="M-153.5-1710.2l-74.9,0.5l37-75.1L-153.5-1710.2"/>
		<path class="st19" d="M100,1050.3l72.9-17.1l-19.3,81.5L100,1050.3"/>
		<path class="st19" d="M-332.4,1071l74.7,6.1l-43.4,71.6L-332.4,1071"/>
		<path class="st19" d="M-847.8,910.1l66.8,34l-67.4,49.8L-847.8,910.1"/>
		<path class="st19" d="M-1509-745.9l-21.2,71.9l-61.3-57.1L-1509-745.9"/>
		<path class="st19" d="M-224,1078.5l74.9,0.2l-37.7,74.8L-224,1078.5"/>
		<path class="st19" d="M413.6-1576.8l-68.6-30.2l64.5-53.5L413.6-1576.8"/>
		<path class="st19" d="M1077.4-914.5l-34-66.8l83.8-0.6L1077.4-914.5"/>
		<path class="st19" d="M-289.2,1075l74.8,3.7l-41.1,73L-289.2,1075"/>
		<path class="st19" d="M-1559.7-534.8l-9.8,74.3l-69.4-46.9L-1559.7-534.8"/>
		<path class="st19" d="M-582.5-1651.8l-71.2,23.4l12.2-82.9L-582.5-1651.8"/>
		<path class="st19" d="M-1539.7,4.8l19.2,72.4l-82-17L-1539.7,4.8"/>
		<path class="st19" d="M-1405.9-985.1l-34.2,66.7l-49.6-67.5L-1405.9-985.1"/>
		<path class="st19" d="M597.6,840.7l61-43.5l13.1,82.7L597.6,840.7"/>
		<path class="st19" d="M1037.7-991.8l-38.1-64.5l83.6-5.8L1037.7-991.8"/>
		<path class="st19" d="M818.1-1287.6l-53.6-52.3l79.1-27.5L818.1-1287.6"/>
		<path class="st19" d="M-1510.7,109.5l24.7,70.7l-83.1-10.6L-1510.7,109.5"/>
		<path class="st19" d="M1196.6-105.1l9.3-74.3l69.7,46.5L1196.6-105.1"/>
		<path class="st19" d="M-1328.8,478.6l44.3,60.4l-82.6,14.1L-1328.8,478.6"/>
		<path class="st19" d="M293.2-1626.9l-71.1-23.6l59.2-59.3L293.2-1626.9"/>
		<path class="st19" d="M-218.7-1710l-74.8,4l33.4-76.8L-218.7-1710"/>
		<path class="st19" d="M-1471.5-847.9l-26.7,70l-56.6-61.7L-1471.5-847.9"/>
		<path class="st19" d="M-1129.7,707.9l56.3,49.4l-77.6,31.6L-1129.7,707.9"/>
		<path class="st19" d="M-995.1,817.8l62,42l-73,41L-995.1,817.8"/>
		<path class="st19" d="M-1574.5-231.5l6.5,74.6l-77.9-30.8L-1574.5-231.5"/>
		<path class="st19" d="M1211.3-256.5l1.2-74.9l74.3,38.6L1211.3-256.5"/>
		<path class="st19" d="M252.1-1641.1l-71.8-21.4l57.3-61.1L252.1-1641.1"/>
		<path class="st19" d="M-1141.7-1328.1l-53,53l-26.5-79.5L-1141.7-1328.1"/>
		<path class="st20" d="M-504.8,1000.2l-72.2-19.8l56-62.3L-504.8,1000.2"/>
		<path class="st20" d="M-874.7,848.8l-63.3-40.1l71.7-43.3L-874.7,848.8"/>
		<path class="st20" d="M-312.4-1664.2l74.7-5.1l-32.2,77.3L-312.4-1664.2"/>
		<path class="st20" d="M-1222.4-1183.7l49.6-56.2l31.4,77.7L-1222.4-1183.7"/>
		<path class="st20" d="M-1519.4-97.6l-10-74.2l79.2,27.1L-1519.4-97.6"/>
		<path class="st20" d="M892.9-1140l43.9,60.7l-82.6,13.6L892.9-1140"/>
		<path class="st20" d="M-1375.8-956.6l37.3-65l46.4,69.7L-1375.8-956.6"/>
		<path class="st20" d="M811.3-1236.8l49.4,56.3l-81,21.2L811.3-1236.8"/>
		<path class="st20" d="M-1514.9-559.8l15.5-73.3l65.5,52.2L-1514.9-559.8"/>
		<path class="st20" d="M-1151.7-1262l53.8-52.1l25.2,79.9L-1151.7-1262"/>
		<path class="st20" d="M-249.2-1668.8l74.9-1.6l-35.8,75.7L-249.2-1668.8"/>
		<path class="st20" d="M-1506.6-601.2l17.8-72.8l63.9,54.2L-1506.6-601.2"/>
		<path class="st20" d="M778.3,639.7l-54.3,51.6l-24.5-80.1L778.3,639.7"/>
		<path class="st20" d="M-1438.5-822.9l30-68.7l53.7,64.3L-1438.5-822.9"/>
		<path class="st20" d="M-1522.6-118.4l-8.9-74.4l78.8,28.3L-1522.6-118.4"/>
		<path class="st20" d="M-1301.9,447.1l-40.4-63.1l83.3-8.9L-1301.9,447.1"/>
		<path class="st20" d="M-1530.4-181.3l-5.4-74.7l77.4,32L-1530.4-181.3"/>
		<path class="st20" d="M-1079.1,699.8l-54.8-51.1l78.5-29.2L-1079.1,699.8"/>
		<path class="st20" d="M-1413.4-881.1l33.1-67.2l50.6,66.7L-1413.4-881.1"/>
		<path class="st20" d="M-1388.1,301.9l-32.3-67.6l83.7,1.5L-1388.1,301.9"/>
		<path class="st20" d="M1093.9-770.6l23.2,71.2l-82.8-12.4L1093.9-770.6"/>
		<path class="st20" d="M927.2,461.9L882.6,522l-37.8-74.7L927.2,461.9"/>
		<path class="st20" d="M1077.2,183.7l-29.5,68.8l-54.1-64L1077.2,183.7"/>
		<path class="st20" d="M-1136.9-1277l54.6-51.3l24,80.2L-1136.9-1277"/>
		<path class="st20" d="M-646.1,957.3l-69.6-27.6l62.4-55.9L-646.1,957.3"/>
		<path class="st20" d="M-1014.1,753.7l-57.8-47.6l76.5-34L-1014.1,753.7"/>
		<path class="st20" d="M-1503.2-14.7l-14.6-73.5l80.8,22.1L-1503.2-14.7"/>
		<path class="st20" d="M-1042.9-1361.9l59.1-46l16.4,82.1L-1042.9-1361.9"/>
		<path class="st20" d="M499.3-1486.6l63.7,39.5l-71.3,43.9L499.3-1486.6"/>
		<path class="st20" d="M-1497.1-642.3l20.1-72.2l62.1,56.2L-1497.1-642.3"/>
	</g>
</g>
<g id="legendHolder">
</g>
<text transform="matrix(1 0 0 1 137.2635 64.581)" class="st21 st22 st23">Tree scale: 1</text>
<path class="st24" d="M219.3,61h280.8"/>
<path class="st24" d="M219.3,58v6 M500.2,58v6 M359.7,61v2"/>
<text transform="matrix(1 0 0 1 592.009 242.1043)" class="st2 st22 st23">No annotation</text>
<text transform="matrix(1 0 0 1 651.9641 198.3135)"><tspan x="0" y="0" class="st16 st22 st23">Ribotoxin/</tspan><tspan x="0" y="14.4" class="st16 st22 st23">Ribonuclease</tspan></text>
<text transform="matrix(1 0 0 1 750.5865 197.3321)"><tspan x="0" y="0" class="st1 st22 st23">Match to </tspan><tspan x="0" y="14.4" class="st1 st22 st23">Zymoseptoria </tspan><tspan x="0" y="28.8" class="st1 st22 st23">effector</tspan></text>
<text transform="matrix(1 0 0 1 827.7605 18.0958)" class="st5 st22 st23">Killer toxins</text>
<polyline class="st25" points="895.9,21.3 827.9,21.3 805.4,83.2 "/>
<text transform="matrix(1 0 0 1 814.9281 343.5809)" class="st6 st22 st23">Thaumatin-like</text>
<text transform="matrix(1 0 0 1 831.089 366.617)" class="st10 st22 st23">Lectin-like</text>
<text transform="matrix(1 0 0 1 813.0553 389.6302)"><tspan x="0" y="0" class="st17 st22 st23">Match to </tspan><tspan x="0" y="14.4" class="st17 st22 st23">Trichoderma</tspan><tspan x="0" y="28.8" class="st17 st22 st23">effector</tspan></text>
<text transform="matrix(1 0 0 1 567.6188 336.8809)" class="st26 st22 st23">Gamma-crystallin-like</text>
<text transform="matrix(1 0 0 1 802.5531 320.3555)" class="st7 st22 st23">NTF2/SnoaL-like</text>
<text transform="matrix(1 0 0 1 814.235 253.3205)" class="st8 st22 st23">CFEM-like</text>
<polyline class="st27" points="799.5,199.7 750.6,199.7 739.6,144.4 "/>
<polyline class="st28" points="750.6,214.3 830.2,214.3 856.3,189.6 "/>
</svg>
