<?xml version="1.0" encoding="utf-8"?>
<!-- Generator: Adobe Illustrator 27.2.0, SVG Export Plug-In . SVG Version: 6.00 Build 0)  -->
<svg version="1.1" id="Layer_1" xmlns="http://www.w3.org/2000/svg" xmlns:xlink="http://www.w3.org/1999/xlink" x="0px" y="0px"
	 viewBox="0 0 1375 682" style="enable-background:new 0 0 1375 682;" xml:space="preserve">
<style type="text/css">
	.st0{fill:#34A886;}
	.st1{fill:#F6DBC6;}
	.st2{fill:#F9CFE4;}
	.st3{fill:#147A5C;}
	.st4{fill:#997101;}
	.st5{fill:#4F8117;}
	.st6{fill:#CCE1B3;}
	.st7{fill:#66A61E;}
	.st8{fill:#D95F02;}
	.st9{fill:#188C69;}
	.st10{fill:#444444;}
	.st11{fill:#A8A8A8;}
	.st12{fill:#ACACAC;}
	.st13{fill:#B0B0B0;}
	.st14{fill:#B3B3B3;}
	.st15{fill:#B8B8B8;}
	.st16{fill:#BCBCBC;}
	.st17{fill:#C0C0C0;}
	.st18{fill:#C4C4C4;}
	.st19{fill:#C8C8C8;}
	.st20{fill:#CCCCCC;}
	.st21{fill:#D0D0D0;}
	.st22{fill:#D4D4D4;}
	.st23{fill:none;stroke:#000000;stroke-width:0.1317;stroke-linecap:round;stroke-miterlimit:1.3169;}
	.st24{fill:#F8766D;stroke:#F8766D;stroke-width:0.1317;stroke-linecap:square;stroke-miterlimit:1.3169;}
	.st25{fill:#00B6EB;stroke:#00B6EB;stroke-width:0.1317;stroke-linecap:square;stroke-miterlimit:1.3169;}
	.st26{fill:#505050;}
	.st27{font-family:'Arial-BoldMT';}
	.st28{font-size:12px;}
	.st29{fill:none;stroke:#505050;stroke-miterlimit:10;}
	.st30{fill:#ADDB6A;}
	.st31{fill:#F2B083;}
	.st32{fill:#F4A8D2;}
</style>
<g id="mainHolder" transform="translate(645.64733,375.21116) rotate(-150) scale(0.13169,0.13169)">
	<g id="rangeHolder">
	</g>
	<g id="rangeDatasetHolder">
		<g>
			<path class="st0" d="M-1672.7,1508.9l566.3-510.9c62.3,69,130.8,132,204.8,188.3l-461.5,607.3
				C-1474.9,1708.6-1578.5,1613.3-1672.7,1508.9"/>
		</g>
		<g>
			<path class="st1" d="M1852.3-651.4l-446.7,157.1c-20.5-58.4-44.7-115.5-72.4-170.9l423.7-211.4
				C1793.4-803.6,1825.2-728.4,1852.3-651.4"/>
		</g>
		<g>
			<path class="st2" d="M2022-340.3l-552.6,93c-6.4-38.2-14.3-76.1-23.7-113.6l543.7-135.7C2002.2-445,2013.1-392.8,2022-340.3"/>
		</g>
		<g>
			<path class="st3" d="M1797.4,1071.6L1279.8,763c19.8-33.2,38.3-67.2,55.5-101.9l540.1,267.4
				C1851.3,977.2,1825.3,1024.9,1797.4,1071.6"/>
		</g>
		<g>
			<path class="st4" d="M1923.5,737.7l-532.3-204.2c11.1-28.9,21.3-58.2,30.5-87.7l544,170.6
				C1952.9,657.3,1938.9,697.7,1923.5,737.7"/>
		</g>
		<g>
			<path class="st5" d="M1709,1420.5l-563.1-468.1c14.8-17.9,29.3-36.1,43.3-54.6l584.4,441.2
				C1752.6,1366.7,1731.1,1393.8,1709,1420.5"/>
		</g>
		<g>
			<path class="st6" d="M1255.4-1348.8l-240.3,258.2c-11.3-10.5-22.8-20.9-34.5-31.1l232.1-265.5
				C1227.2-1374.7,1241.4-1361.9,1255.4-1348.8"/>
		</g>
		<g>
			<path class="st7" d="M-782.7,2225.6l288.4-820c14.6,5.1,29.3,10,44,14.7l-262.7,828.6C-736.3,2241.5-759.5,2233.7-782.7,2225.6"
				/>
		</g>
		<g>
			<path class="st8" d="M-483.8,2074.8l145.4-623.8c15.1,3.5,30.2,6.8,45.4,9.8l-125.9,628C-440.6,2084.6-462.2,2079.9-483.8,2074.8
				"/>
		</g>
		<g>
			<path class="st9" d="M1003.5,1527.4l-185.3-282.1c12.9-8.5,25.7-17.2,38.4-26.1l194,276.2C1035,1506.3,1019.3,1517,1003.5,1527.4
				"/>
		</g>
		<g>
			<path class="st10" d="M2092.3,1035.9l-757-374.8c6.9-13.9,13.5-27.9,20-41.9l768.3,351C2113.5,992.2,2103.1,1014.1,2092.3,1035.9
				"/>
		</g>
		<g>
			<path class="st11" d="M915.4,1303l-58.9-83.8c6.3-4.4,12.6-8.9,18.9-13.5l60.2,82.9C928.9,1293.5,922.2,1298.3,915.4,1303"/>
		</g>
		<g>
			<path class="st12" d="M1001.6-1220.4l-56.3,68.7c-6-4.9-12-9.8-18.1-14.6l55.3-69.5C988.9-1230.8,995.3-1225.6,1001.6-1220.4"/>
		</g>
		<g>
			<path class="st13" d="M1202.5,1031.6l-71.7-61.5c5-5.9,10-11.8,15-17.7l72.6,60.3C1213.2,1019.1,1207.9,1025.4,1202.5,1031.6"/>
		</g>
		<g>
			<path class="st14" d="M1025.9-1173.5l-45.2,51.7c-5.8-5.1-11.7-10.1-17.6-15.1l44.4-52.4
				C1013.7-1184.1,1019.8-1178.8,1025.9-1173.5"/>
		</g>
		<g>
			<path class="st15" d="M966.6,1331.3l-91.2-125.6c6.3-4.5,12.5-9.1,18.7-13.8l93.1,124.1C980.4,1321.2,973.5,1326.3,966.6,1331.3"
				/>
		</g>
		<g>
			<path class="st16" d="M1003.1-1261.9l-75.9,95.5c-6.1-4.8-12.2-9.6-18.3-14.3l74.4-96.7C989.9-1272.2,996.5-1267.1,1003.1-1261.9
				"/>
		</g>
		<g>
			<path class="st17" d="M1062.3-1254l-99.2,117.1c-5.9-5-11.9-10-17.8-14.9l97.4-118.7C1049.2-1265,1055.8-1259.6,1062.3-1254"/>
		</g>
		<g>
			<path class="st18" d="M681.1-1397.5l-28.3,58.1c-7-3.4-13.9-6.7-21-10l27.4-58.5C666.5-1404.5,673.8-1401,681.1-1397.5"/>
		</g>
		<g>
			<path class="st19" d="M-921.2,1294l57-80.1c6.3,4.5,12.6,8.9,19,13.3l-55.8,81C-907.7,1303.5-914.4,1298.7-921.2,1294"/>
		</g>
		<g>
			<path class="st20" d="M-898.7,1349.6l72.9-109.4c6.4,4.3,12.9,8.5,19.4,12.7l-71.1,110.5
				C-884.7,1358.9-891.7,1354.3-898.7,1349.6"/>
		</g>
		<g>
			<path class="st21" d="M-868.6,1396.9l81.8-131.6c6.6,4.1,13.2,8.1,19.8,12.1l-79.7,132.8
				C-854.1,1405.8-861.4,1401.4-868.6,1396.9"/>
		</g>
		<g>
			<path class="st22" d="M1302.3,951.7l-99.3-72.6c4.6-6.2,9.1-12.5,13.6-18.9l100.4,71C1312.1,938.2,1307.2,945,1302.3,951.7"/>
		</g>
	</g>
	<g id="pruningHolder">
	</g>
	<g id="treeHolder">
		<g>
			<path class="st23" d="M1536.2-270.9l242.3-42.7"/>
		</g>
		<g>
			<path class="st23" d="M1545.5-297.4l227.9-43.9"/>
		</g>
		<g>
			<path class="st23" d="M1526.4-318.5l308-64.3"/>
		</g>
		<g>
			<path class="st23" d="M1463.4-329.2l361-81.2"/>
		</g>
		<g>
			<path class="st23" d="M1478.8-357l339-81.8"/>
		</g>
		<g>
			<path class="st23" d="M1511.4-389.9l622.8-160.7"/>
		</g>
		<g>
			<path class="st23" d="M1516.9-416.6l255-70"/>
		</g>
		<g>
			<path class="st23" d="M1502.8-438l261.2-76.1"/>
		</g>
		<g>
			<path class="st23" d="M1490.3-459.7l291.2-89.8"/>
		</g>
		<g>
			<path class="st23" d="M1454.1-473.5l516.7-168.2"/>
		</g>
		<g>
			<path class="st23" d="M1547.6-530.7l413-141.6"/>
		</g>
		<g>
			<path class="st23" d="M1476.7-532.3l199.4-71.9"/>
		</g>
		<g>
			<path class="st23" d="M1467.6-555l198.9-75.2"/>
		</g>
		<g>
			<path class="st23" d="M1459.4-578l223.2-88.4"/>
		</g>
		<g>
			<path class="st23" d="M1445.3-598.7l337.2-139.7"/>
		</g>
		<g>
			<path class="st23" d="M1428.3-617.9l146.2-63.2"/>
		</g>
		<g>
			<path class="st23" d="M1432.7-646.4l131-59.1"/>
		</g>
		<g>
			<path class="st23" d="M1407.3-661.6l302.6-142.2"/>
		</g>
		<g>
			<path class="st23" d="M1415.1-692.4l348.6-170.6"/>
		</g>
		<g>
			<path class="st23" d="M1388.2-706.2l503.7-256.3"/>
		</g>
		<g>
			<path class="st23" d="M1410.5-745.4l466.3-246.4"/>
		</g>
		<g>
			<path class="st23" d="M1381.4-757.9l522.4-286.6"/>
		</g>
		<g>
			<path class="st23" d="M1400.1-796.8l467.2-265.9"/>
		</g>
		<g>
			<path class="st23" d="M1324.8-781.5l525.7-310.1"/>
		</g>
		<g>
			<path class="st23" d="M1376-840.9l299.5-183"/>
		</g>
		<g>
			<path class="st23" d="M1358.2-859.3l301.2-190.6"/>
		</g>
		<g>
			<path class="st23" d="M1340.5-877.7l671.3-439.5"/>
		</g>
		<g>
			<path class="st23" d="M1385.7-938.5l508.8-344.5"/>
		</g>
		<g>
			<path class="st23" d="M1267.9-887.8l606.3-424.6"/>
		</g>
		<g>
			<path class="st23" d="M1272.2-920.7l87.6-63.4"/>
		</g>
		<g>
			<path class="st23" d="M1247.3-932.7l96.9-72.4"/>
		</g>
		<g>
			<path class="st23" d="M1237-955.4l117.3-90.6"/>
		</g>
		<g>
			<path class="st23" d="M1224.3-976.3l132.7-105.8"/>
		</g>
		<g>
			<path class="st23" d="M1202.7-990.2l156-128.5"/>
		</g>
		<g>
			<path class="st23" d="M1195.6-1016l133.2-113.2"/>
		</g>
		<g>
			<path class="st23" d="M1176.6-1031.8l134.6-118"/>
		</g>
		<g>
			<path class="st23" d="M1186.1-1073.4l141.7-128.2"/>
		</g>
		<g>
			<path class="st23" d="M1182.5-1104.1l126.4-118"/>
		</g>
		<g>
			<path class="st23" d="M1218.7-1174l249.8-240.7"/>
		</g>
		<g>
			<path class="st23" d="M1159.4-1152.2l362.8-360.5"/>
		</g>
		<g>
			<path class="st23" d="M1260.5-1292.3l321.6-329.8"/>
		</g>
		<g>
			<path class="st23" d="M1088.8-1151.7l467.8-494.8"/>
		</g>
		<g>
			<path class="st23" d="M1082.8-1181.6l162.1-176.9"/>
		</g>
		<g>
			<path class="st23" d="M1061.2-1195l162.4-182.9"/>
		</g>
		<g>
			<path class="st23" d="M1016.7-1181.5l319-370.7"/>
		</g>
		<g>
			<path class="st23" d="M1052.5-1262.3l304-364.6"/>
		</g>
		<g>
			<path class="st23" d="M992.1-1228.2l398.2-493"/>
		</g>
		<g>
			<path class="st23" d="M993.2-1269.6l463.6-592.7"/>
		</g>
		<g>
			<path class="st23" d="M959.5-1266.8l79.2-104.5"/>
		</g>
		<g>
			<path class="st23" d="M940.9-1283.2l76.3-104.1"/>
		</g>
		<g>
			<path class="st23" d="M943.2-1329.4l423.3-596.5"/>
		</g>
		<g>
			<path class="st23" d="M904.8-1318.2l431.6-628.8"/>
		</g>
		<g>
			<path class="st23" d="M890.7-1342.1l463.8-698.8"/>
		</g>
		<g>
			<path class="st23" d="M853.6-1330.7l77.6-120.9"/>
		</g>
		<g>
			<path class="st23" d="M834.5-1346.6l73.9-119.3"/>
		</g>
		<g>
			<path class="st23" d="M824.4-1377.9l278.1-464.8"/>
		</g>
		<g>
			<path class="st23" d="M804.7-1393.7l304-526.5"/>
		</g>
		<g>
			<path class="st23" d="M784-1408.2L1103-1981"/>
		</g>
		<g>
			<path class="st23" d="M745.3-1389.2l154.3-287.6"/>
		</g>
		<g>
			<path class="st23" d="M716.1-1386.2l157.3-304.4"/>
		</g>
		<g>
			<path class="st23" d="M702-1412.5l350.6-705.4"/>
		</g>
		<g>
			<path class="st23" d="M670.2-1402.8l207.1-433.5"/>
		</g>
		<g>
			<path class="st23" d="M645.1-1406.1l203.5-443.6"/>
		</g>
		<g>
			<path class="st23" d="M625.9-1422.4l65.3-148.3"/>
		</g>
		<g>
			<path class="st23" d="M628.1-1490.1l38.5-91.2"/>
		</g>
		<g>
			<path class="st23" d="M611.4-1516l94.3-233.8"/>
		</g>
		<g>
			<path class="st23" d="M546.4-1418.2L708.5-1839"/>
		</g>
		<g>
			<path class="st23" d="M551.7-1501.2l176.4-480"/>
		</g>
		<g>
			<path class="st23" d="M529.2-1512.4l111.5-318.7"/>
		</g>
		<g>
			<path class="st23" d="M486.9-1464.1l125.3-376.7"/>
		</g>
		<g>
			<path class="st23" d="M512.5-1625.5l159.3-505.4"/>
		</g>
		<g>
			<path class="st23" d="M477.4-1600.8l82.4-276.1"/>
		</g>
		<g>
			<path class="st23" d="M411.2-1461.3l119.3-424.1"/>
		</g>
		<g>
			<path class="st23" d="M420.7-1589.7l39.8-150.3"/>
		</g>
		<g>
			<path class="st23" d="M393.4-1586.2l39.9-160.8"/>
		</g>
		<g>
			<path class="st23" d="M363.4-1569.5l26-112.2"/>
		</g>
		<g>
			<path class="st23" d="M337.8-1569.9l25.3-117.6"/>
		</g>
		<g>
			<path class="st23" d="M308.2-1549.3l133.9-673.4"/>
		</g>
		<g>
			<path class="st23" d="M289.9-1586.4l66.9-365.9"/>
		</g>
		<g>
			<path class="st23" d="M272.6-1635.3l53.7-322.3"/>
		</g>
		<g>
			<path class="st23" d="M250.9-1664.4l74.6-495"/>
		</g>
		<g>
			<path class="st23" d="M213.7-1585.1l104.2-773.1"/>
		</g>
		<g>
			<path class="st23" d="M187.3-1573.9l9.3-78"/>
		</g>
		<g>
			<path class="st23" d="M163.4-1583.1l7.4-71.7"/>
		</g>
		<g>
			<path class="st23" d="M135.6-1550.2l19.2-219.9"/>
		</g>
		<g>
			<path class="st23" d="M116.1-1616.4l11.2-155.9"/>
		</g>
		<g>
			<path class="st23" d="M86.7-1543.2l24.7-439.5"/>
		</g>
		<g>
			<path class="st23" d="M64.9-1600.3l5.8-142.3"/>
		</g>
		<g>
			<path class="st23" d="M40-1603.7l3.5-139.7"/>
		</g>
		<g>
			<path class="st23" d="M14.9-1597.9l2.4-256.5"/>
		</g>
		<g>
			<path class="st23" d="M-10-1597.4l-3.5-558.4"/>
		</g>
		<g>
			<path class="st23" d="M-34.4-1577.6L-47-2155.3"/>
		</g>
		<g>
			<path class="st23" d="M-59.3-1584.4L-83.9-2243"/>
		</g>
		<g>
			<path class="st23" d="M-83.9-1582.7l-34.9-658.8"/>
		</g>
		<g>
			<path class="st23" d="M-112.3-1635.9l-18.5-270.1"/>
		</g>
		<g>
			<path class="st23" d="M-142.2-1685.8l-18.4-217.9"/>
		</g>
		<g>
			<path class="st23" d="M-165.1-1650.4l-20.5-205.1"/>
		</g>
		<g>
			<path class="st23" d="M-187.5-1618.4l-27.1-234"/>
		</g>
		<g>
			<path class="st23" d="M-211.9-1609.5l-25.4-192.6"/>
		</g>
		<g>
			<path class="st23" d="M-239-1619.8l-26.3-178.3"/>
		</g>
		<g>
			<path class="st23" d="M-256-1566l-40.9-249.9"/>
		</g>
		<g>
			<path class="st23" d="M-279.7-1558.1l-52.8-294.1"/>
		</g>
		<g>
			<path class="st23" d="M-311.1-1589.7l-119.5-610.8"/>
		</g>
		<g>
			<path class="st23" d="M-338.7-1598.2l-126.2-595.3"/>
		</g>
		<g>
			<path class="st23" d="M-363.1-1590.7l-43.3-189.8"/>
		</g>
		<g>
			<path class="st23" d="M-386-1577.6l-48.1-196.4"/>
		</g>
		<g>
			<path class="st23" d="M-412.7-1579.5l-95.4-365.1"/>
		</g>
		<g>
			<path class="st23" d="M-437.1-1572.3l-186.4-670.4"/>
		</g>
		<g>
			<path class="st23" d="M-450.7-1528.6l-41.3-140"/>
		</g>
		<g>
			<path class="st23" d="M-473.6-1518.6l-44.3-142"/>
		</g>
		<g>
			<path class="st23" d="M-514.2-1562.6l-121.2-368.3"/>
		</g>
		<g>
			<path class="st23" d="M-543.7-1569.4l-121.7-351.4"/>
		</g>
		<g>
			<path class="st23" d="M-561.8-1543.5l-197.7-543.3"/>
		</g>
		<g>
			<path class="st23" d="M-587.6-1539.4l-138-361.6"/>
		</g>
		<g>
			<path class="st23" d="M-622-1556.3l-133.2-333.1"/>
		</g>
		<g>
			<path class="st23" d="M-644-1541.2l-133.2-318.7"/>
		</g>
		<g>
			<path class="st23" d="M-653.7-1498.4l-152.3-349.2"/>
		</g>
		<g>
			<path class="st23" d="M-700.8-1540.3l-163.2-358.8"/>
		</g>
		<g>
			<path class="st23" d="M-702-1481.2l-124.3-262.3"/>
		</g>
		<g>
			<path class="st23" d="M-725-1470.2l-128.3-260.1"/>
		</g>
		<g>
			<path class="st23" d="M-757.4-1477.3l-323.1-630.3"/>
		</g>
		<g>
			<path class="st23" d="M-773.4-1452.3l-339.9-638.2"/>
		</g>
		<g>
			<path class="st23" d="M-823-1489.2l-268.9-486.6"/>
		</g>
		<g>
			<path class="st23" d="M-814.1-1420.2l-308.5-538.2"/>
		</g>
		<g>
			<path class="st23" d="M-831.2-1399.2l-324.4-546.1"/>
		</g>
		<g>
			<path class="st23" d="M-869.2-1412.5l-316.6-514.5"/>
		</g>
		<g>
			<path class="st23" d="M-880.3-1381.8l-387.8-608.8"/>
		</g>
		<g>
			<path class="st23" d="M-887.2-1345.8l-116.2-176.3"/>
		</g>
		<g>
			<path class="st23" d="M-920-1349.3l-107-157"/>
		</g>
		<g>
			<path class="st23" d="M-942.3-1336.9l-138.8-196.9"/>
		</g>
		<g>
			<path class="st23" d="M-976.7-1340.7l-282.2-387.4"/>
		</g>
		<g>
			<path class="st23" d="M-976.9-1298.1l-308.7-410.2"/>
		</g>
		<g>
			<path class="st23" d="M-988.5-1271.8l-451.8-581.3"/>
		</g>
		<g>
			<path class="st23" d="M-995.2-1240l-473.8-590.4"/>
		</g>
		<g>
			<path class="st23" d="M-1005.8-1214l-520.6-628.3"/>
		</g>
		<g>
			<path class="st23" d="M-1075.2-1257.3l-479.7-561"/>
		</g>
		<g>
			<path class="st23" d="M-1077.3-1220.7l-384.7-436"/>
		</g>
		<g>
			<path class="st23" d="M-1090.7-1197.8l-396.9-435.9"/>
		</g>
		<g>
			<path class="st23" d="M-1093-1163.4l-546.6-581.8"/>
		</g>
		<g>
			<path class="st23" d="M-1111.7-1146.9l-2.7-2.8"/>
		</g>
		<g>
			<path class="st23" d="M-1132-1132l-0.3-0.3"/>
		</g>
		<g>
			<path class="st23" d="M-1142.6-1107.5l-98.4-95.4"/>
		</g>
		<g>
			<path class="st23" d="M-1162.4-1092.1l-84-78.9"/>
		</g>
		<g>
			<path class="st23" d="M-1180.8-1075.3l-83.7-76.2"/>
		</g>
		<g>
			<path class="st23" d="M-1200.5-1059.5l-143.8-126.9"/>
		</g>
		<g>
			<path class="st23" d="M-1212.8-1037.1l-172.8-147.8"/>
		</g>
		<g>
			<path class="st23" d="M-1232.8-1021.4l-58.9-48.8"/>
		</g>
		<g>
			<path class="st23" d="M-1249.3-1002.7l-58.9-47.3"/>
		</g>
		<g>
			<path class="st23" d="M-1260.7-979.9l-98.8-76.8"/>
		</g>
		<g>
			<path class="st23" d="M-1274.9-959.5l-127.4-95.9"/>
		</g>
		<g>
			<path class="st23" d="M-1285-936.1l-190.2-138.6"/>
		</g>
		<g>
			<path class="st23" d="M-1304.4-919.5l-201.9-142.3"/>
		</g>
		<g>
			<path class="st23" d="M-1331-907.4l-268.6-183.2"/>
		</g>
		<g>
			<path class="st23" d="M-1420.7-936.5l-321.4-211.9"/>
		</g>
		<g>
			<path class="st23" d="M-1345.6-857.2l-168-107"/>
		</g>
		<g>
			<path class="st23" d="M-1362.3-838.4l-166-102.2"/>
		</g>
		<g>
			<path class="st23" d="M-1373.4-815.9l-229.2-136.2"/>
		</g>
		<g>
			<path class="st23" d="M-1412.1-809.4l-705.2-404.2"/>
		</g>
		<g>
			<path class="st23" d="M-1435.3-793.3l-541.8-299.5"/>
		</g>
		<g>
			<path class="st23" d="M-1452-773.2l-541.9-288.6"/>
		</g>
		<g>
			<path class="st23" d="M-1429.4-732.8l-73-37.4"/>
		</g>
		<g>
			<path class="st23" d="M-1428.5-704.5l-85.7-42.3"/>
		</g>
		<g>
			<path class="st23" d="M-1402.7-664.8l-203.8-96.6"/>
		</g>
		<g>
			<path class="st23" d="M-1408.8-641l-459.4-209"/>
		</g>
		<g>
			<path class="st23" d="M-1447.2-631.4l-434.1-189.4"/>
		</g>
		<g>
			<path class="st23" d="M-1438.7-601.2l-141.4-59.1"/>
		</g>
		<g>
			<path class="st23" d="M-1447.6-578.6l-142.6-57"/>
		</g>
		<g>
			<path class="st23" d="M-1473.8-562.6L-1473.8-562.6"/>
		</g>
		<g>
			<path class="st23" d="M-1482.3-539.5L-1482.3-539.5"/>
		</g>
		<g>
			<path class="st23" d="M-1464.4-507.3l-470.9-163.1"/>
		</g>
		<g>
			<path class="st23" d="M-1541.7-507.3l-200.9-66.1"/>
		</g>
		<g>
			<path class="st23" d="M-1525.2-475.7l-226.2-70.5"/>
		</g>
		<g>
			<path class="st23" d="M-1526.2-450l-259.5-76.5"/>
		</g>
		<g>
			<path class="st23" d="M-1501.1-417.3l-377.4-104.9"/>
		</g>
		<g>
			<path class="st23" d="M-1554.3-406.1l-270.1-70.6"/>
		</g>
		<g>
			<path class="st23" d="M-1545.7-378.2l-285.9-70"/>
		</g>
		<g>
			<path class="st23" d="M-1582.4-361.2l-410.3-93.6"/>
		</g>
		<g>
			<path class="st23" d="M-1581.3-335.1l-482.1-102.2"/>
		</g>
		<g>
			<path class="st23" d="M-1596-312.3L-2304.9-451"/>
		</g>
		<g>
			<path class="st23" d="M-1559.1-279.9l-256.7-46.1"/>
		</g>
		<g>
			<path class="st23" d="M-1554.3-254.1l-266.3-43.5"/>
		</g>
		<g>
			<path class="st23" d="M-1551.6-228.9l-174.6-25.8"/>
		</g>
		<g>
			<path class="st23" d="M-1569.7-206.7l-160.3-21.1"/>
		</g>
		<g>
			<path class="st23" d="M-1566.7-181.5l-220.1-25.5"/>
		</g>
		<g>
			<path class="st23" d="M-1567.9-156.9l-388.6-38.9"/>
		</g>
		<g>
			<path class="st23" d="M-1569-132.3l-294.5-24.8"/>
		</g>
		<g>
			<path class="st23" d="M-1574.2-108.1l-291.5-20"/>
		</g>
		<g>
			<path class="st23" d="M-1561-82.8l-94.1-5"/>
		</g>
		<g>
			<path class="st23" d="M-1552.3-58.1l-104-3.9"/>
		</g>
		<g>
			<path class="st23" d="M-1570.4-34.3L-1570.4-34.3"/>
		</g>
		<g>
			<path class="st23" d="M-1570.7-9.8L-1570.7-9.8"/>
		</g>
		<g>
			<path class="st23" d="M-1577.8,14.8l-92.8,0.9"/>
		</g>
		<g>
			<path class="st23" d="M-1598.5,39.9L-2033,50.7"/>
		</g>
		<g>
			<path class="st23" d="M-1622,65.8l-410,16.6"/>
		</g>
		<g>
			<path class="st23" d="M-1548.1,86.9l-843.6,47.4"/>
		</g>
		<g>
			<path class="st23" d="M-1557.7,111.9l-623.6,44.8"/>
		</g>
		<g>
			<path class="st23" d="M-1592.2,139.3l-586.4,51.3"/>
		</g>
		<g>
			<path class="st23" d="M-1566.7,161.7l-641.3,66.2"/>
		</g>
		<g>
			<path class="st23" d="M-1555.7,185.1l-709.8,84.5"/>
		</g>
		<g>
			<path class="st23" d="M-1590.7,214.5l-299.6,40.4"/>
		</g>
		<g>
			<path class="st23" d="M-1581.6,238.4l-304.4,45.9"/>
		</g>
		<g>
			<path class="st23" d="M-1542.4,257.1l-636.3,106.1"/>
		</g>
		<g>
			<path class="st23" d="M-1535.2,280.6l-637.6,116.5"/>
		</g>
		<g>
			<path class="st23" d="M-1534.4,305.2l-432.9,86.1"/>
		</g>
		<g>
			<path class="st23" d="M-1537,330.7l-423.9,91.2"/>
		</g>
		<g>
			<path class="st23" d="M-1540.1,356.6l-604.1,139.9"/>
		</g>
		<g>
			<path class="st23" d="M-1528.5,379.1l-634.4,157.3"/>
		</g>
		<g>
			<path class="st23" d="M-1544.8,408.8l-685.7,181.4"/>
		</g>
		<g>
			<path class="st23" d="M-1562.7,439.7L-2327.9,655"/>
		</g>
		<g>
			<path class="st23" d="M-1512.2,451l-729,217.4"/>
		</g>
		<g>
			<path class="st23" d="M-1582.4,498.9l-648.2,204.4"/>
		</g>
		<g>
			<path class="st23" d="M-1527.9,508L-2304,766.1"/>
		</g>
		<g>
			<path class="st23" d="M-1478.6,517.4l-216.6,75.8"/>
		</g>
		<g>
			<path class="st23" d="M-1477.7,543.1l-208,76.4"/>
		</g>
		<g>
			<path class="st23" d="M-1466.7,565.1l-230.2,88.7"/>
		</g>
		<g>
			<path class="st23" d="M-1460.2,588.9l-220.3,88.9"/>
		</g>
		<g>
			<path class="st23" d="M-1446.1,609.6l-223.7,94.3"/>
		</g>
		<g>
			<path class="st23" d="M-1469,646.4l-584,257"/>
		</g>
		<g>
			<path class="st23" d="M-1429.9,656l-274.6,126"/>
		</g>
		<g>
			<path class="st23" d="M-1464.2,699.5l-227.9,108.9"/>
		</g>
		<g>
			<path class="st23" d="M-1431.7,711.6L-1948,968.2"/>
		</g>
		<g>
			<path class="st23" d="M-1377.1,711.4l-225.3,116.4"/>
		</g>
		<g>
			<path class="st23" d="M-1380.3,740.6l-209,112.1"/>
		</g>
		<g>
			<path class="st23" d="M-1349.4,751.3l-354.9,197.6"/>
		</g>
		<g>
			<path class="st23" d="M-1373.2,792.8l-532.9,307.7"/>
		</g>
		<g>
			<path class="st23" d="M-1384.5,828.4l-358.5,214.5"/>
		</g>
		<g>
			<path class="st23" d="M-1387.5,859.8l-339,210.1"/>
		</g>
		<g>
			<path class="st23" d="M-1309.3,839.8l-317.4,203.6"/>
		</g>
		<g>
			<path class="st23" d="M-1330.4,883l-279.8,185.7"/>
		</g>
		<g>
			<path class="st23" d="M-1313.7,901.7l-536.7,368.4"/>
		</g>
		<g>
			<path class="st23" d="M-1282.1,909.7l-548.3,389"/>
		</g>
		<g>
			<path class="st23" d="M-1279.2,937.9l-670.9,491.9"/>
		</g>
		<g>
			<path class="st23" d="M-1298.2,983.4l-308.6,233.8"/>
		</g>
		<g>
			<path class="st23" d="M-1278.8,1000.4l-308.8,241.6"/>
		</g>
		<g>
			<path class="st23" d="M-1268.8,1024.9l-157,126.8"/>
		</g>
		<g>
			<path class="st23" d="M-1265.3,1055l-142.4,118.7"/>
		</g>
		<g>
			<path class="st23" d="M-1180.4,1015.8l-122,105"/>
		</g>
		<g>
			<path class="st23" d="M-1166.9,1036.3l-117.8,104.6"/>
		</g>
		<g>
			<path class="st23" d="M-1224.7,1122.2l-170.8,156.5"/>
		</g>
		<g>
			<path class="st23" d="M-1174,1109.9l-201.4,190.4"/>
		</g>
		<g>
			<path class="st23" d="M-1161.3,1132.7l-255.2,248.9"/>
		</g>
		<g>
			<path class="st23" d="M-1135.9,1143l-258.8,260.4"/>
		</g>
		<g>
			<path class="st23" d="M-1144.2,1187.8l-265.9,276.1"/>
		</g>
		<g>
			<path class="st23" d="M-1106.3,1184.9l-293.9,314.8"/>
		</g>
		<g>
			<path class="st23" d="M-1099.7,1215.2l-294.2,325.1"/>
		</g>
		<g>
			<path class="st23" d="M-1072.2,1222.7l-305.3,348.1"/>
		</g>
		<g>
			<path class="st23" d="M-1066.4,1254.9l-286.5,337.2"/>
		</g>
		<g>
			<path class="st23" d="M-1043.6,1267.6l-330,400.9"/>
		</g>
		<g>
			<path class="st23" d="M-1015.4,1273.2l-372.8,467.5"/>
		</g>
		<g>
			<path class="st23" d="M-995.3,1288.7l-381.6,494.2"/>
		</g>
		<g>
			<path class="st23" d="M-945,1263.9l-519.5,694.8"/>
		</g>
		<g>
			<path class="st23" d="M-934,1290.7l-219.9,303.8"/>
		</g>
		<g>
			<path class="st23" d="M-911,1301.1l-217.9,311.2"/>
		</g>
		<g>
			<path class="st23" d="M-950.5,1403.5l-241.7,356.9"/>
		</g>
		<g>
			<path class="st23" d="M-888.2,1356.6l-290.3,443.4"/>
		</g>
		<g>
			<path class="st23" d="M-868.1,1372l-344,543.6"/>
		</g>
		<g>
			<path class="st23" d="M-857.7,1403.6l-324.3,530.7"/>
		</g>
		<g>
			<path class="st23" d="M-809.5,1372.4l-404.7,686.1"/>
		</g>
		<g>
			<path class="st23" d="M-754.3,1325.6l-442.5,777.6"/>
		</g>
		<g>
			<path class="st23" d="M-805.3,1467.9l-136.1,248.2"/>
		</g>
		<g>
			<path class="st23" d="M-777.7,1471.5l-136.9,259"/>
		</g>
		<g>
			<path class="st23" d="M-762.3,1498.4l-144.8,284.6"/>
		</g>
		<g>
			<path class="st23" d="M-743.8,1520.2l-154.4,315.5"/>
		</g>
		<g>
			<path class="st23" d="M-678.8,1443.9l-350,744.4"/>
		</g>
		<g>
			<path class="st23" d="M-649.4,1439.2l-348.4,772.1"/>
		</g>
		<g>
			<path class="st23" d="M-651.2,1505.4l-311.9,721.1"/>
		</g>
		<g>
			<path class="st23" d="M-623.3,1504.7l-296.2,715.2"/>
		</g>
		<g>
			<path class="st23" d="M-576.1,1454.5l-308.7,779.4"/>
		</g>
		<g>
			<path class="st23" d="M-556.6,1471.8l-291.3,770.3"/>
		</g>
		<g>
			<path class="st23" d="M-542.6,1505.3l-270.3,749.8"/>
		</g>
		<g>
			<path class="st23" d="M-523.3,1526l-242,705.6"/>
		</g>
		<g>
			<path class="st23" d="M-496.4,1524.6l-234,718.7"/>
		</g>
		<g>
			<path class="st23" d="M-462.2,1498.4l-123.1,399.2"/>
		</g>
		<g>
			<path class="st23" d="M-446.1,1530.6l-109.6,375.9"/>
		</g>
		<g>
			<path class="st23" d="M-425.5,1549.1l-93.7,341"/>
		</g>
		<g>
			<path class="st23" d="M-399.5,1548.9l-90.1,349.1"/>
		</g>
		<g>
			<path class="st23" d="M-397.7,1647.4l-167.5,694"/>
		</g>
		<g>
			<path class="st23" d="M-360.8,1603.8l-106.8,474.8"/>
		</g>
		<g>
			<path class="st23" d="M-332,1591.2l-103.1,494.4"/>
		</g>
		<g>
			<path class="st23" d="M-297.7,1546.8l-136.7,710.6"/>
		</g>
		<g>
			<path class="st23" d="M-271.1,1537.6l-128.1,726.2"/>
		</g>
		<g>
			<path class="st23" d="M-254.2,1585.8l-23.7,148.1"/>
		</g>
		<g>
			<path class="st23" d="M-226.4,1568.2l-24.5,169.8"/>
		</g>
		<g>
			<path class="st23" d="M-204.1,1588.7l-22.2,173.1"/>
		</g>
		<g>
			<path class="st23" d="M-179.5,1592.8l-23.4,207.7"/>
		</g>
		<g>
			<path class="st23" d="M-154.6,1594.9l-23.6,243.6"/>
		</g>
		<g>
			<path class="st23" d="M-129.4,1593.7l-19.1,234.6"/>
		</g>
		<g>
			<path class="st23" d="M-104.7,1597.1l-15.3,233.3"/>
		</g>
		<g>
			<path class="st23" d="M-79.9,1600.9l-14.4,289.4"/>
		</g>
		<g>
			<path class="st23" d="M-55.1,1606l-10.3,301.4"/>
		</g>
		<g>
			<path class="st23" d="M-29.8,1595.5l-6.3,336.4"/>
		</g>
		<g>
			<path class="st23" d="M-5,1599.8l-1.1,344.2"/>
		</g>
		<g>
			<path class="st23" d="M19.9,1594.3l3,240.5"/>
		</g>
		<g>
			<path class="st23" d="M44.8,1595.4l6.7,238.8"/>
		</g>
		<g>
			<path class="st23" d="M70.8,1621l12.8,293.6"/>
		</g>
		<g>
			<path class="st23" d="M94.5,1593.8l11.9,200.5"/>
		</g>
		<g>
			<path class="st23" d="M119.8,1598.8l14.5,193.6"/>
		</g>
		<g>
			<path class="st23" d="M144.3,1592l20.2,223.1"/>
		</g>
		<g>
			<path class="st23" d="M168.4,1583.6l28.4,266.6"/>
		</g>
		<g>
			<path class="st23" d="M194.1,1589l35.1,287"/>
		</g>
		<g>
			<path class="st23" d="M218.7,1584.8l69.8,505.8"/>
		</g>
		<g>
			<path class="st23" d="M250.6,1628.4L250.6,1628.4"/>
		</g>
		<g>
			<path class="st23" d="M276,1624.3L276,1624.3"/>
		</g>
		<g>
			<path class="st23" d="M306.5,1647.9l80.4,432.1"/>
		</g>
		<g>
			<path class="st23" d="M320,1582.7l119.5,591.2"/>
		</g>
		<g>
			<path class="st23" d="M360.5,1650.5l112.8,516.3"/>
		</g>
		<g>
			<path class="st23" d="M364.5,1552.5l82,349.1"/>
		</g>
		<g>
			<path class="st23" d="M387.7,1542.8l88.3,351.5"/>
		</g>
		<g>
			<path class="st23" d="M399.3,1490l93.3,348.3"/>
		</g>
		<g>
			<path class="st23" d="M434.6,1526.5l86.6,304"/>
		</g>
		<g>
			<path class="st23" d="M466.6,1547l126.5,419.4"/>
		</g>
		<g>
			<path class="st23" d="M476.8,1495.8l101.6,318.7"/>
		</g>
		<g>
			<path class="st23" d="M512.4,1525.2l94.1,280.1"/>
		</g>
		<g>
			<path class="st23" d="M546.5,1546.3l113.9,322.3"/>
		</g>
		<g>
			<path class="st23" d="M560.7,1511.1l132.6,357.3"/>
		</g>
		<g>
			<path class="st23" d="M587.9,1511.8l238.6,613.6"/>
		</g>
		<g>
			<path class="st23" d="M602.4,1480.5l94,230.9"/>
		</g>
		<g>
			<path class="st23" d="M621.5,1461.7L723,1700.3"/>
		</g>
		<g>
			<path class="st23" d="M647.9,1460.1l140.3,316.1"/>
		</g>
		<g>
			<path class="st23" d="M673.7,1456.6l142,307"/>
		</g>
		<g>
			<path class="st23" d="M728.1,1511.9l225.3,467.9"/>
		</g>
		<g>
			<path class="st23" d="M737.7,1472.7l304.6,608"/>
		</g>
		<g>
			<path class="st23" d="M769.8,1478.8l82.8,159"/>
		</g>
		<g>
			<path class="st23" d="M779.6,1442.2l98.4,182.1"/>
		</g>
		<g>
			<path class="st23" d="M803.2,1432.2l118.4,211.2"/>
		</g>
		<g>
			<path class="st23" d="M820.4,1410.8l173.8,298.8"/>
		</g>
		<g>
			<path class="st23" d="M836.3,1387.9l237.4,394"/>
		</g>
		<g>
			<path class="st23" d="M880.3,1410.7l245.5,393.4"/>
		</g>
		<g>
			<path class="st23" d="M922.9,1428.9l388,600.7"/>
		</g>
		<g>
			<path class="st23" d="M891.9,1334.9l123.4,184.7"/>
		</g>
		<g>
			<path class="st23" d="M902.8,1306.6l136.1,196.9"/>
		</g>
		<g>
			<path class="st23" d="M925.5,1295.8l184.9,258.9"/>
		</g>
		<g>
			<path class="st23" d="M976.9,1323.7l414.7,561.9"/>
		</g>
		<g>
			<path class="st23" d="M986.9,1294.5l229.8,301.4"/>
		</g>
		<g>
			<path class="st23" d="M979.9,1244.6l261.6,332.2"/>
		</g>
		<g>
			<path class="st23" d="M1053.7,1296.3l202.1,248.7"/>
		</g>
		<g>
			<path class="st23" d="M1078.4,1285.2l201.4,240"/>
		</g>
		<g>
			<path class="st23" d="M1090.3,1259l291.9,337.1"/>
		</g>
		<g>
			<path class="st23" d="M1121.3,1254.7l315.2,352.7"/>
		</g>
		<g>
			<path class="st23" d="M1116.2,1210.5l221,239.7"/>
		</g>
		<g>
			<path class="st23" d="M1142.3,1200.7l217.3,228.4"/>
		</g>
		<g>
			<path class="st23" d="M1152.1,1173.8l290.2,295.7"/>
		</g>
		<g>
			<path class="st23" d="M1162,1147.6l342.3,338.1"/>
		</g>
		<g>
			<path class="st23" d="M1167.2,1117.4l358,342.7"/>
		</g>
		<g>
			<path class="st23" d="M1228.8,1140.2l318.9,295.9"/>
		</g>
		<g>
			<path class="st23" d="M1201.7,1080.7l525.3,472.4"/>
		</g>
		<g>
			<path class="st23" d="M1268.6,1105.6L1751,1526"/>
		</g>
		<g>
			<path class="st23" d="M1210.5,1022.2l626.4,528.9"/>
		</g>
		<g>
			<path class="st23" d="M1264,1034.1l446.1,364.9"/>
		</g>
		<g>
			<path class="st23" d="M1277.7,1012.4l454,359.8"/>
		</g>
		<g>
			<path class="st23" d="M1308.8,1004.3l454.2,348.5"/>
		</g>
		<g>
			<path class="st23" d="M1285.3,954.8l127.8,94.9"/>
		</g>
		<g>
			<path class="st23" d="M1309.6,941.6l119.6,86"/>
		</g>
		<g>
			<path class="st23" d="M1306.6,908.8l192.2,133.7"/>
		</g>
		<g>
			<path class="st23" d="M1317.4,886.2l197.5,132.8"/>
		</g>
		<g>
			<path class="st23" d="M1351.5,878.9l284,184.7"/>
		</g>
		<g>
			<path class="st23" d="M1372.7,862.5l55.5,34.9"/>
		</g>
		<g>
			<path class="st23" d="M1393.9,845.8L1442,875"/>
		</g>
		<g>
			<path class="st23" d="M1384.5,810.9l191.6,112.2"/>
		</g>
		<g>
			<path class="st23" d="M1408,795.5l182.3,103"/>
		</g>
		<g>
			<path class="st23" d="M1421.2,774l291.5,158.7"/>
		</g>
		<g>
			<path class="st23" d="M1419.7,744.7L1690,886.5"/>
		</g>
		<g>
			<path class="st23" d="M1444.6,729.3l259,130.8"/>
		</g>
		<g>
			<path class="st23" d="M1449,703.4l651.3,316.2"/>
		</g>
		<g>
			<path class="st23" d="M1493.6,696.5L2116,986.7"/>
		</g>
		<g>
			<path class="st23" d="M1493.4,668.3l117.4,52.5"/>
		</g>
		<g>
			<path class="st23" d="M1491.1,639.5l130.7,56.1"/>
		</g>
		<g>
			<path class="st23" d="M1528.7,627.6l171,70.2"/>
		</g>
		<g>
			<path class="st23" d="M1523.1,597.8l287.2,112.7"/>
		</g>
		<g>
			<path class="st23" d="M1494.2,559.7l262,98.2"/>
		</g>
		<g>
			<path class="st23" d="M1504.6,537l261.7,93.4"/>
		</g>
		<g>
			<path class="st23" d="M1475,500.7l342.9,116.4"/>
		</g>
		<g>
			<path class="st23" d="M1511.1,486.8l449.8,144.9"/>
		</g>
		<g>
			<path class="st23" d="M1528.4,466.2l194.2,59.2"/>
		</g>
		<g>
			<path class="st23" d="M1543.7,444.7l186.9,53.8"/>
		</g>
		<g>
			<path class="st23" d="M1541.7,418.3l297.6,80.7"/>
		</g>
		<g>
			<path class="st23" d="M1526,388.6l716,182.3"/>
		</g>
		<g>
			<path class="st23" d="M1567.5,373.2l248.8,59.2"/>
		</g>
		<g>
			<path class="st23" d="M1559.3,345.7l263.5,58.4"/>
		</g>
		<g>
			<path class="st23" d="M1573,323.1l290.5,59.7"/>
		</g>
		<g>
			<path class="st23" d="M1595.7,301.9l273.6,51.8"/>
		</g>
		<g>
			<path class="st23" d="M1584.6,274.3l356.2,61.7"/>
		</g>
		<g>
			<path class="st23" d="M1624.1,255.2l220.6,34.7"/>
		</g>
		<g>
			<path class="st23" d="M1604.9,226.6L1849,261"/>
		</g>
		<g>
			<path class="st23" d="M1604.9,201.1l436.7,54.7"/>
		</g>
		<g>
			<path class="st23" d="M1667.9,182.7l310.3,34"/>
		</g>
		<g>
			<path class="st23" d="M1678.9,157.4l302.4,28.4"/>
		</g>
		<g>
			<path class="st23" d="M1690.1,132l640.6,50"/>
		</g>
		<g>
			<path class="st23" d="M1600.9,99.9l441.9,27.6"/>
		</g>
		<g>
			<path class="st23" d="M1682.3,78.7l362.3,16.9"/>
		</g>
		<g>
			<path class="st23" d="M1621,50.5l717.1,22.4"/>
		</g>
		<g>
			<path class="st23" d="M1620.7,25.3l135.1,2.1"/>
		</g>
		<g>
			<path class="st23" d="M1623.3,0L1756,0"/>
		</g>
		<g>
			<path class="st23" d="M-416.8,2260.7l-26.5,143.5 M-434.4,2257.4c11.7,2.3,23.5,4.4,35.2,6.5"/>
		</g>
		<g>
			<path class="st23" d="M-451.4,2082.1l-66.6,307.1 M-467.6,2078.6c10.8,2.4,21.6,4.8,32.4,7"/>
		</g>
		<g>
			<path class="st23" d="M-480.7,2397l-8.9,44.6 M-518,2389.2c24.8,5.4,49.7,10.4,74.7,15"/>
		</g>
		<g>
			<path class="st23" d="M-570.5,1902.1l-126.1,420.4 M-585.3,1897.6c9.9,3,19.7,6,29.6,8.9"/>
		</g>
		<g>
			<path class="st23" d="M-747.9,2237.5l-20.8,62.2 M-765.3,2231.6c11.6,4,23.2,7.9,34.9,11.7"/>
		</g>
		<g>
			<path class="st23" d="M-732.8,2311.5l-15.8,50 M-768.7,2299.8c23.9,8,47.9,15.6,72,22.8"/>
		</g>
		<g>
			<path class="st23" d="M-504.4,1894.1l-115.4,433.4 M-519.1,1890.2c9.8,2.7,19.7,5.3,29.5,7.9"/>
		</g>
		<g>
			<path class="st23" d="M-592.5,2334.6l-16.9,66.5 M-619.8,2327.5c18.1,4.8,36.3,9.4,54.6,13.8"/>
		</g>
		<g>
			<path class="st23" d="M-679.3,2382.3l-3.5,12.4 M-748.6,2361.4c46,14.6,92.4,27.8,139.2,39.7"/>
		</g>
		<g>
			<path class="st23" d="M-586.7,2420.1l-1.9,8 M-682.8,2394.7c63.8,18.2,128.2,33.8,193.2,46.8"/>
		</g>
		<g>
			<path class="st23" d="M-830.4,2248.7l-21.3,57.8 M-847.9,2242.1c11.6,4.4,23.3,8.7,35,12.9"/>
		</g>
		<g>
			<path class="st23" d="M-902.2,2227l-21,51.8 M-919.5,2219.9c11.5,4.8,23.1,9.5,34.7,14.1"/>
		</g>
		<g>
			<path class="st23" d="M-887.6,2292.9l-6.6,16.9 M-923.2,2278.8c23.7,9.6,47.5,18.8,71.5,27.7"/>
		</g>
		<g>
			<path class="st23" d="M-928.1,1723.4l-20.5,38 M-941.5,1716.1c8.9,4.9,17.9,9.7,26.9,14.5"/>
		</g>
		<g>
			<path class="st23" d="M-927.9,1772.4l-20,38.1 M-948.6,1761.4c13.7,7.4,27.5,14.6,41.4,21.7"/>
		</g>
		<g>
			<path class="st23" d="M-923.1,1823.2l-169.2,334.1 M-947.9,1810.5c16.5,8.6,33,17,49.7,25.2"/>
		</g>
		<g>
			<path class="st23" d="M-1060.6,2173.1l-19.3,39.5 M-1092.3,2157.4c21,10.6,42.2,21,63.5,31"/>
		</g>
		<g>
			<path class="st23" d="M-980.5,2219l-14.6,33 M-997.8,2211.3c11.5,5.2,23,10.3,34.6,15.3"/>
		</g>
		<g>
			<path class="st23" d="M-1037.7,2232.7l-6.2,13.4 M-1079.9,2212.6c28,13.7,56.3,26.8,84.8,39.4"/>
		</g>
		<g>
			<path class="st23" d="M-969.5,2279.2l-5.7,13.3 M-1043.9,2246.1c49.2,22.9,99.2,44.1,149.8,63.7"/>
		</g>
		<g>
			<path class="st23" d="M-1197.1,1925l-65,104.5 M-1212,1915.7c10,6.3,20,12.5,30,18.7"/>
		</g>
		<g>
			<path class="st23" d="M-1238.2,2044.1l-15.5,25.6 M-1262,2029.5c15.8,9.8,31.7,19.5,47.8,28.9"/>
		</g>
		<g>
			<path class="st23" d="M-1225.4,2086.6l-18,30.7 M-1253.7,2069.7c18.8,11.4,37.8,22.5,56.9,33.4"/>
		</g>
		<g>
			<path class="st23" d="M-1141.5,1603.4L-1233,1732 M-1153.9,1594.5c8.3,6,16.6,11.9,25,17.8"/>
		</g>
		<g>
			<path class="st23" d="M-1212.7,1746.3l-14.5,20.9 M-1233,1732c13.5,9.6,27.1,19.1,40.8,28.3"/>
		</g>
		<g>
			<path class="st23" d="M-1202.9,1783.7l-170,252 M-1227.2,1767.2c16.1,11.2,32.3,22.1,48.6,32.8"/>
		</g>
		<g>
			<path class="st23" d="M-1308.8,2077.5l-15.5,24.6 M-1372.9,2035.7c42.3,28.5,85.5,55.7,129.5,81.6"/>
		</g>
		<g>
			<path class="st23" d="M-1365.3,1581.5l-47,54.4 M-1377.5,1570.8c8.2,7.2,16.4,14.2,24.6,21.3"/>
		</g>
		<g>
			<path class="st23" d="M-1393.1,1652.3l-19.4,23 M-1412.3,1635.9c12.7,11,25.6,21.9,38.6,32.6"/>
		</g>
		<g>
			<path class="st23" d="M-1405.6,1392.5l-14.3,14.2 M-1416.4,1381.5c7.2,7.4,14.4,14.7,21.7,21.9"/>
		</g>
		<g>
			<path class="st23" d="M-1385.5,1289.6l-77.5,72.2 M-1395.5,1278.8c6.6,7.2,13.3,14.4,20.1,21.6"/>
		</g>
		<g>
			<path class="st23" d="M-1441.7,1384.4l-24.5,23.5 M-1463.1,1361.8c14.1,15.2,28.5,30.2,43.1,44.9"/>
		</g>
		<g>
			<path class="st23" d="M-1438.4,1436.2l-13.6,13.5 M-1466.1,1407.9c18.3,19,36.9,37.7,55.9,56"/>
		</g>
		<g>
			<path class="st23" d="M-1426.3,1474.9l-17.8,18.4 M-1452,1449.7c16.9,17,34.2,33.6,51.7,50"/>
		</g>
		<g>
			<path class="st23" d="M-1419.2,1517l-77.8,83.2 M-1444.1,1493.3c16.5,15.9,33.2,31.6,50.2,47"/>
		</g>
		<g>
			<path class="st23" d="M-1455.2,1638.3l-23.3,26.3 M-1497,1600.2c27.5,25.8,55.7,50.8,84.6,75.1"/>
		</g>
		<g>
			<path class="st23" d="M-1433.9,1703.2l-16.9,20.1 M-1478.6,1664.6c29.5,26.2,59.6,51.5,90.4,76.1"/>
		</g>
		<g>
			<path class="st23" d="M-1414.2,1753.5l-121.1,150.2 M-1450.8,1723.3c24.2,20.4,48.8,40.2,73.9,59.6"/>
		</g>
		<g>
			<path class="st23" d="M-1500.2,1931.5l-23.8,30.6 M-1535.3,1903.7c23.3,18.8,46.9,37.1,70.8,55"/>
		</g>
		<g>
			<path class="st23" d="M-1425.8,2034.6l-2.9,4.2 M-1524,1962.2c64.2,49.9,130.9,96.6,199.7,139.9"/>
		</g>
		<g>
			<path class="st23" d="M-1416.8,1162.8l-306.2,251.3 M-1425.9,1151.7c6,7.4,12,14.8,18.1,22.1"/>
		</g>
		<g>
			<path class="st23" d="M-1597.3,1229.6l-169,130.1 M-1606.8,1217.1c6.3,8.3,12.7,16.6,19.2,24.9"/>
		</g>
		<g>
			<path class="st23" d="M-1744.9,1387l-168.5,134 M-1766.3,1359.7c14.1,18.3,28.5,36.5,43.2,54.4"/>
		</g>
		<g>
			<path class="st23" d="M-1293.6,1130.9l-546.6,477.8 M-1302.4,1120.8c5.8,6.8,11.7,13.5,17.6,20.2"/>
		</g>
		<g>
			<path class="st23" d="M-1877.3,1565.3l-31.1,25.9 M-1913.4,1521c23.7,29.8,48.1,59.1,73.2,87.8"/>
		</g>
		<g>
			<path class="st23" d="M-1840.5,1284.5l-142.4,99.4 M-1850.4,1270.1c6.6,9.6,13.3,19.2,20,28.7"/>
		</g>
		<g>
			<path class="st23" d="M-1966.6,1406.9l-45.4,32.5 M-1982.9,1383.8c10.8,15.5,21.7,30.8,32.9,46"/>
		</g>
		<g>
			<path class="st23" d="M-1595.9,840.3l-130.1,68.5 M-1602.4,827.8c4.3,8.3,8.7,16.6,13.1,24.9"/>
		</g>
		<g>
			<path class="st23" d="M-1715.3,928.9l-220.1,119.2 M-1726,908.8c7.1,13.4,14.3,26.8,21.7,40.1"/>
		</g>
		<g>
			<path class="st23" d="M-1921,1074.4l-36.6,20.5 M-1935.4,1048.1c9.5,17.6,19.3,35.1,29.3,52.4"/>
		</g>
		<g>
			<path class="st23" d="M-1734.8,1056.4l-180.9,110.2 M-1743,1042.9c5.4,9.1,10.9,18.1,16.5,27"/>
		</g>
		<g>
			<path class="st23" d="M-1937,1130.9l-66.8,39 M-1957.5,1094.9c13.5,24.2,27.5,48,41.9,71.7"/>
		</g>
		<g>
			<path class="st23" d="M-1618.5,1056.1l-324.6,211.8 M-1626.7,1043.5c5.4,8.4,10.9,16.9,16.5,25.2"/>
		</g>
		<g>
			<path class="st23" d="M-1974,1219.3l-126.8,78.3 M-2003.7,1169.9c19.4,33.2,39.6,65.9,60.6,98"/>
		</g>
		<g>
			<path class="st23" d="M-2032.5,66.5l-200.7,6.6 M-2033,50.7c0.3,10.6,0.6,21.1,1,31.7"/>
		</g>
		<g>
			<path class="st23" d="M-1570.6-22l-99.9-1.4 M-1570.4-34.3c-0.2,8.2-0.3,16.3-0.3,24.5"/>
		</g>
		<g>
			<path class="st23" d="M-1670.7-3.9l-563.7-1.3 M-1670.6-23.4c-0.2,13-0.2,26-0.1,39.1"/>
		</g>
		<g>
			<path class="st23" d="M-2234.2,33.9l-161,2.4 M-2234.5-5.2c-0.1,26.1,0.3,52.2,1.2,78.3"/>
		</g>
		<g>
			<path class="st23" d="M-2394,85.4l-47.9,1.7 M-2395.2,36.4c0.5,32.7,1.7,65.3,3.5,97.9"/>
		</g>
		<g>
			<path class="st23" d="M-1818.2-311.8l-552.6-94.8 M-1815.7-326c-1.7,9.4-3.3,18.9-4.9,28.3"/>
		</g>
		<g>
			<path class="st23" d="M-1478.1-551.1l-283.8-105.8 M-1473.8-562.6c-2.9,7.7-5.8,15.3-8.6,23"/>
		</g>
		<g>
			<path class="st23" d="M-1585.2-647.9l-155.3-63.5 M-1580.1-660.3c-3.4,8.2-6.8,16.4-10.1,24.7"/>
		</g>
		<g>
			<path class="st23" d="M-1751.4-684.2l-156.3-61.1 M-1740.5-711.4c-7.4,18.1-14.5,36.3-21.3,54.6"/>
		</g>
		<g>
			<path class="st23" d="M-1921.9-708l-266.5-98.2 M-1907.7-745.3c-9.7,24.8-18.9,49.7-27.6,74.9"/>
		</g>
		<g>
			<path class="st23" d="M-1508.4-758.5l-79.8-40.2 M-1502.4-770.2c-4,7.8-7.9,15.6-11.8,23.5"/>
		</g>
		<g>
			<path class="st23" d="M-1597.4-780.1l-334.8-163.5 M-1588.2-798.7c-6.2,12.4-12.3,24.8-18.2,37.3"/>
		</g>
		<g>
			<path class="st23" d="M-1874.8-835.4l-89.3-39.8 M-1868.2-850c-4.4,9.7-8.8,19.4-13,29.2"/>
		</g>
		<g>
			<path class="st23" d="M-1948.5-909.5l-164.8-76.9 M-1932.2-943.5c-11,22.6-21.7,45.4-31.9,68.3"/>
		</g>
		<g>
			<path class="st23" d="M-2152.7-897.1L-2186-911 M-2113.3-986.4c-27.5,59-52.6,119.1-75.1,180.3"/>
		</g>
		<g>
			<path class="st23" d="M-1747.1-559.8l-25.9-8.3 M-1742.6-573.4c-3,9.1-5.9,18.1-8.7,27.2"/>
		</g>
		<g>
			<path class="st23" d="M-1779.4-547.4l-84.1-25.9 M-1772.9-568.1c-4.4,13.8-8.7,27.7-12.8,41.6"/>
		</g>
		<g>
			<path class="st23" d="M-1871.2-547.8l-62.1-18.2 M-1863.5-573.2c-5.2,16.9-10.2,34-14.9,51"/>
		</g>
		<g>
			<path class="st23" d="M-1828-462.4l-124.9-31.6 M-1824.4-476.7c-2.5,9.5-4.9,19-7.2,28.5"/>
		</g>
		<g>
			<path class="st23" d="M-1943.4-530.1l-28.5-7.8 M-1933.3-566c-7,23.9-13.5,47.8-19.6,71.9"/>
		</g>
		<g>
			<path class="st23" d="M-1982.7-496.4l-63.3-15.9 M-1971.9-537.8c-7.5,27.5-14.4,55.2-20.8,83"/>
		</g>
		<g>
			<path class="st23" d="M-2055.1-474.8l-233.3-53.9 M-2046-512.3c-6.2,24.9-12,49.9-17.3,75.1"/>
		</g>
		<g>
			<path class="st23" d="M-2297-490l-19.1-4.1 M-2288.4-528.8c-6,25.8-11.5,51.7-16.6,77.7"/>
		</g>
		<g>
			<path class="st23" d="M-2260.7-705.5l-35.5-11.1 M-2186-911c-56.1,134.7-99.7,274.2-130.1,416.9"/>
		</g>
		<g>
			<path class="st23" d="M-2338.6-562.8l-6.6-1.6 M-2296.2-716.6c-31.7,101.6-56.6,205.1-74.6,310"/>
		</g>
		<g>
			<path class="st23" d="M-1655.8-74.9l-568.5-25.7 M-1655.2-87.8c-0.5,8.6-0.8,17.2-1.2,25.8"/>
		</g>
		<g>
			<path class="st23" d="M-1864.7-142.7l-237.5-18.2 M-1863.5-157.2c-0.8,9.7-1.6,19.4-2.2,29.1"/>
		</g>
		<g>
			<path class="st23" d="M-1728.2-241.2l-53.3-7.4 M-1726.2-254.7c-1.3,9-2.6,17.9-3.8,26.9"/>
		</g>
		<g>
			<path class="st23" d="M-1784.2-227.8l-166.2-21.2 M-1781.4-248.7c-1.9,13.9-3.7,27.8-5.3,41.7"/>
		</g>
		<g>
			<path class="st23" d="M-1953.7-222.4l-141.1-16.1 M-1950.5-249.1c-2.3,17.7-4.3,35.5-6.1,53.3"/>
		</g>
		<g>
			<path class="st23" d="M-2098.9-199.7l-117.7-11.2 M-2094.8-238.5c-2.9,25.8-5.4,51.7-7.4,77.7"/>
		</g>
		<g>
			<path class="st23" d="M-2221.1-155.8l-185.2-13 M-2216.6-210.9c-3.5,36.7-6.1,73.5-7.7,110.3"/>
		</g>
		<g>
			<path class="st23" d="M-2384-367.9l-30.8-4.8 M-2345.3-564.4c-31.3,130-51.7,262.3-61.1,395.7"/>
		</g>
		<g>
			<path class="st23" d="M-2439.2-143.4l-19.9-1.2 M-2414.8-372.6c-23.5,152-32.5,306-27,459.7"/>
		</g>
		<g>
			<path class="st23" d="M-1675.2,690.8l-398.3,164.3 M-1680.6,677.8c3.5,8.7,7.1,17.4,10.8,26.1"/>
		</g>
		<g>
			<path class="st23" d="M-2063.4,879.3l-22.8,9.7 M-2073.6,855.1c6.7,16.2,13.5,32.2,20.6,48.2"/>
		</g>
		<g>
			<path class="st23" d="M-1690.5,606.4l-21.2,7.6 M-1695.2,593.2c3.1,8.8,6.2,17.6,9.4,26.3"/>
		</g>
		<g>
			<path class="st23" d="M-1704.5,633.9l-421,156.6 M-1711.7,614c4.8,13.3,9.7,26.6,14.8,39.8"/>
		</g>
		<g>
			<path class="st23" d="M-2106.4,840l-29.9,11.9 M-2125.5,790.5c12.3,33.1,25.4,66,39.3,98.5"/>
		</g>
		<g>
			<path class="st23" d="M-1698.3,795.2l-271.8,127.2 M-1704.5,781.9c4.1,8.9,8.2,17.7,12.4,26.5"/>
		</g>
		<g>
			<path class="st23" d="M-1959.2,945.4l-112.2,54.1 M-1970.1,922.4c7.2,15.4,14.6,30.6,22.1,45.8"/>
		</g>
		<g>
			<path class="st23" d="M-2105.1,926.3l-144.5,63.6 M-2136.3,851.9c19.9,49.9,41.6,99.2,64.9,147.6"/>
		</g>
		<g>
			<path class="st23" d="M-2175.8,380.2l-138.4,24.2 M-2178.7,363.2c1.9,11.3,3.9,22.6,5.9,33.9"/>
		</g>
		<g>
			<path class="st23" d="M-2180,173.6l-32.7,2.6 M-2181.3,156.6c0.8,11.3,1.7,22.7,2.7,34"/>
		</g>
		<g>
			<path class="st23" d="M-2210.5,202.1l-61.5,5.6 M-2212.7,176.2c1.4,17.2,2.9,34.5,4.7,51.7"/>
		</g>
		<g>
			<path class="st23" d="M-2269,238.7l-51.8,5.4 M-2272,207.7c1.9,20.7,4.1,41.3,6.5,61.9"/>
		</g>
		<g>
			<path class="st23" d="M-1888.2,269.6l-421.9,60.2 M-1890.3,254.9c1.3,9.8,2.7,19.6,4.2,29.4"/>
		</g>
		<g>
			<path class="st23" d="M-2315.8,287l-15.6,1.9 M-2320.7,244.1c3,28.6,6.6,57.2,10.6,85.7"/>
		</g>
		<g>
			<path class="st23" d="M-2323.5,346.7l-36,5.4 M-2331.4,288.9c4.8,38.6,10.5,77.1,17.2,115.4"/>
		</g>
		<g>
			<path class="st23" d="M-1964.1,406.6l-191.1,39.6 M-1967.2,391.3c2,10.2,4.1,20.4,6.3,30.6"/>
		</g>
		<g>
			<path class="st23" d="M-2149.8,471.3l-26.9,5.9 M-2155.2,446.2c3.5,16.8,7.1,33.5,11,50.3"/>
		</g>
		<g>
			<path class="st23" d="M-2170,506.9l-76.8,17.9 M-2176.7,477.2c4.3,19.8,8.9,39.5,13.8,59.2"/>
		</g>
		<g>
			<path class="st23" d="M-2238.9,557.6l-76,18.9 M-2246.8,524.8c5.1,21.9,10.5,43.7,16.3,65.4"/>
		</g>
		<g>
			<path class="st23" d="M-2339.9,464.8l-32.1,6.4 M-2359.5,352.1c11.3,75.5,26.1,150.3,44.6,224.4"/>
		</g>
		<g>
			<path class="st23" d="M-2351.7,563.5l-30.1,7.2 M-2371.9,471.2c12.3,61.8,27,123.1,44,183.8"/>
		</g>
		<g>
			<path class="st23" d="M-2235.9,685.9l-85.3,26.2 M-2241.2,668.4c3.5,11.6,7,23.3,10.7,34.8"/>
		</g>
		<g>
			<path class="st23" d="M-2312.8,739.1l-20.2,6.4 M-2321.3,712.1c5.5,18.1,11.3,36.1,17.3,54.1"/>
		</g>
		<g>
			<path class="st23" d="M-2359,658.6l-8.3,2.3 M-2381.8,570.7c14.1,58.9,30.4,117.2,48.8,174.9"/>
		</g>
		<g>
			<path class="st23" d="M-2314.3,827.5l-5.2,1.8 M-2367.3,660.9c31.4,112.3,70.7,222.2,117.6,329"/>
		</g>
		<g>
			<path class="st23" d="M-2438.4,349.4l-5.9,0.8 M-2459.1-144.6c-19.4,330.7,28,662,139.6,973.9"/>
		</g>
		<g>
			<path class="st23" d="M-2321.4,841.6l-4.3,1.6 M-2444.3,350.3c48.2,336,165.1,658.5,343.5,947.3"/>
		</g>
		<g>
			<path class="st23" d="M-2189.2,1152l-9.6,5.1 M-2325.7,843.2c76.9,212.1,182.5,412.7,313.7,596.2"/>
		</g>
		<g>
			<path class="st23" d="M-2065.1,1381.8l-4,2.7 M-2198.9,1157.1c81.3,154.5,178.7,300,290.5,434.1"/>
		</g>
		<g>
			<path class="st23" d="M-1779.3,1741.3l-1.2,1.2 M-2069.1,1384.5c171.2,255.8,388.3,477.6,640.3,654.3"/>
		</g>
		<g>
			<path class="st23" d="M-1405,2057.3l-4,5.8 M-1780.5,1742.5c229.6,234.6,503.3,421.5,805.3,550"/>
		</g>
		<g>
			<path class="st23" d="M-1015.3,2282.8l-0.7,1.5 M-1409,2063.1c249.2,170.2,527.1,293.8,820.4,364.9"/>
		</g>
		<g>
			<path class="st23" d="M57.1-1743.1l3.6-110.4 M70.6-1742.6c-9.1-0.4-18.1-0.7-27.2-0.9"/>
		</g>
		<g>
			<path class="st23" d="M39-1854.1l3.8-181.4 M60.7-1853.5c-14.4-0.5-28.9-0.8-43.3-0.9"/>
		</g>
		<g>
			<path class="st23" d="M141.1-1771.3l10.1-126.6 M154.9-1770.1c-9.2-0.8-18.4-1.5-27.6-2.2"/>
		</g>
		<g>
			<path class="st23" d="M183.7-1653.3l26.5-238.9 M196.6-1651.9c-8.6-1-17.2-2-25.8-2.9"/>
		</g>
		<g>
			<path class="st23" d="M180.7-1895.3l7.8-81.5 M210.2-1892.2c-19.7-2.2-39.3-4.1-59.1-5.6"/>
		</g>
		<g>
			<path class="st23" d="M149.9-1980.1l3.8-50 M188.5-1976.8c-25.7-2.4-51.4-4.4-77.1-5.8"/>
		</g>
		<g>
			<path class="st23" d="M98.3-2033.5l15.3-316.6 M153.7-2030.1c-36.9-2.8-73.9-4.6-110.9-5.4"/>
		</g>
		<g>
			<path class="st23" d="M-101.4-2242.3l-2.3-51.5 M-83.9-2243c-11.7,0.4-23.3,1-34.9,1.6"/>
		</g>
		<g>
			<path class="st23" d="M-30.2-2155.6l-2-140.3 M-13.4-2155.8c-11.2,0.1-22.4,0.2-33.6,0.5"/>
		</g>
		<g>
			<path class="st23" d="M-68-2295.2l-1.7-56.6 M-32.2-2296c-23.9,0.3-47.7,1-71.5,2.1"/>
		</g>
		<g>
			<path class="st23" d="M22-2352.7l1.1-122.5 M113.6-2350.1c-61-3-122.2-3.5-183.3-1.7"/>
		</g>
		<g>
			<path class="st23" d="M862.9-1843l153.9-328.7 M877.3-1836.3c-9.5-4.6-19.1-9-28.7-13.4"/>
		</g>
		<g>
			<path class="st23" d="M919.8-1458.8l225.5-357.6 M931.2-1451.6c-7.5-4.8-15.1-9.6-22.7-14.3"/>
		</g>
		<g>
			<path class="st23" d="M1124-1829.7l36.6-59.6 M1145.3-1816.4c-14.2-8.9-28.4-17.7-42.8-26.3"/>
		</g>
		<g>
			<path class="st23" d="M1134.7-1904.9l25.6-43 M1160.6-1889.3c-17.2-10.6-34.5-20.9-51.9-30.9"/>
		</g>
		<g>
			<path class="st23" d="M1131.8-1964.7l8.4-14.5 M1160.4-1948c-19-11.3-38.1-22.3-57.4-33.1"/>
		</g>
		<g>
			<path class="st23" d="M886.5-1683.7l177.6-337.4 M899.6-1676.8c-8.7-4.7-17.5-9.3-26.2-13.8"/>
		</g>
		<g>
			<path class="st23" d="M1102.3-2000.5l39.1-70.9 M1140.1-1979.2c-25.1-14.4-50.4-28.4-76-41.9"/>
		</g>
		<g>
			<path class="st23" d="M1097.3-2095.1l15.3-29.1 M1141.4-2071.4c-29.3-16.1-58.8-31.6-88.8-46.5"/>
		</g>
		<g>
			<path class="st23" d="M1064.9-2148.5l10.2-20.5 M1112.5-2124.3c-31.6-16.5-63.5-32.3-95.7-47.4"/>
		</g>
		<g>
			<path class="st23" d="M626.5-1836.1l95-278.6 M640.7-1831.1c-9.5-3.3-19-6.6-28.6-9.8"/>
		</g>
		<g>
			<path class="st23" d="M696.7-2122.9l49.9-151.9 M721.5-2114.6c-16.5-5.6-33-11.1-49.6-16.3"/>
		</g>
		<g>
			<path class="st23" d="M678.9-1576.1l67.5-156.7 M691.1-1570.7c-8.2-3.6-16.3-7.1-24.6-10.6"/>
		</g>
		<g>
			<path class="st23" d="M726.1-1741.4l32.3-77.5 M746.4-1732.8c-13.5-5.8-27.1-11.5-40.7-17"/>
		</g>
		<g>
			<path class="st23" d="M733.5-1829.1l52.1-129.9 M758.4-1818.9c-16.5-6.9-33.2-13.6-49.9-20"/>
		</g>
		<g>
			<path class="st23" d="M756.9-1970.3L858.6-2235 M785.7-1959c-19.1-7.7-38.3-15-57.6-22.1"/>
		</g>
		<g>
			<path class="st23" d="M802.9-2255.6l8.9-25.1 M858.6-2235c-37-14.2-74.4-27.5-112-39.9"/>
		</g>
		<g>
			<path class="st23" d="M945.1-2228.8l11.2-26.3 M1075.1-2169.1c-85.5-42.4-173.4-79.7-263.3-111.7"/>
		</g>
		<g>
			<path class="st23" d="M446.9-1743.6l105.5-411.7 M460.4-1740c-9-2.4-18.1-4.7-27.2-7"/>
		</g>
		<g>
			<path class="st23" d="M545.2-1881.3l74.1-255.8 M559.8-1877c-9.7-2.9-19.5-5.7-29.3-8.5"/>
		</g>
		<g>
			<path class="st23" d="M585.9-2146.4l53.3-195.2 M619.3-2137c-22.2-6.4-44.5-12.5-66.9-18.3"/>
		</g>
		<g>
			<path class="st23" d="M376.2-1684.6l117.7-527.1 M389.3-1681.7c-8.7-2-17.5-4-26.3-5.9"/>
		</g>
		<g>
			<path class="st23" d="M468.1-2217.4l33.3-157.6 M493.9-2211.7c-17.2-3.8-34.5-7.5-51.8-10.9"/>
		</g>
		<g>
			<path class="st23" d="M570.5-2359.3l2.7-11.3 M639.2-2341.6c-45.6-12.5-91.6-23.6-137.9-33.3"/>
		</g>
		<g>
			<path class="st23" d="M341.6-1955l34.3-196.2 M356.8-1952.3c-10.1-1.9-20.3-3.6-30.5-5.3"/>
		</g>
		<g>
			<path class="st23" d="M350.7-2155.5l31.4-193.2 M375.9-2151.2c-16.8-2.9-33.6-5.7-50.4-8.2"/>
		</g>
		<g>
			<path class="st23" d="M350.1-2353.7l8.7-58.7 M382.1-2348.7c-21.4-3.5-42.7-6.7-64.2-9.5"/>
		</g>
		<g>
			<path class="st23" d="M466.5-2393.9l2-10.3 M573.2-2370.6c-70.8-17.1-142.4-31.1-214.4-41.8"/>
		</g>
		<g>
			<path class="st23" d="M716.3-2342.4l7.6-24.7 M956.3-2255.1c-157-66.6-320.4-116.5-487.8-149.2"/>
		</g>
		<g>
			<path class="st23" d="M377.4-2446.4l2.6-16.7 M723.8-2367.1c-227.2-69.5-463.2-105.9-700.7-108.1"/>
		</g>
		<g>
			<path class="st23" d="M1351.5-1936.5l12.7-18.1 M1366.5-1925.9c-10-7.1-20.1-14.1-30.2-21.1"/>
		</g>
		<g>
			<path class="st23" d="M1028-1379.3l396.4-531.9 M1038.7-1371.3c-7.1-5.4-14.3-10.7-21.5-16"/>
		</g>
		<g>
			<path class="st23" d="M1394.4-1933.1l38.6-53.5 M1424.4-1911.2c-19.9-14.8-39.9-29.3-60.2-43.5"/>
		</g>
		<g>
			<path class="st23" d="M1394-2014.1l12.4-17.9 M1433-1986.6c-25.8-18.6-52-36.7-78.5-54.3"/>
		</g>
		<g>
			<path class="st23" d="M1569.4-1634.3l67.7-70.5 M1582.1-1622.1c-8.4-8.2-16.9-16.4-25.5-24.5"/>
		</g>
		<g>
			<path class="st23" d="M1318.4-1211.9l111.1-102.1 M1327.8-1201.6c-6.2-6.9-12.5-13.7-18.9-20.5"/>
		</g>
		<g>
			<path class="st23" d="M1320-1139.6l109.7-94.7 M1328.9-1129.2c-5.9-6.9-11.8-13.8-17.8-20.6"/>
		</g>
		<g>
			<path class="st23" d="M1352-994.6l26.4-19.4 M1359.7-984c-5.1-7.1-10.3-14.1-15.5-21.1"/>
		</g>
		<g>
			<path class="st23" d="M1366.5-1030l19.5-14.7 M1378.4-1014c-7.9-10.7-15.9-21.4-24.1-31.9"/>
		</g>
		<g>
			<path class="st23" d="M1371.6-1063.5l19.3-14.9 M1386-1044.7c-9.5-12.6-19.2-25.1-29-37.4"/>
		</g>
		<g>
			<path class="st23" d="M1374.9-1098.7l100.7-80.4 M1390.8-1078.5c-10.5-13.5-21.2-26.9-32.1-40.2"/>
		</g>
		<g>
			<path class="st23" d="M1452.9-1206.9l40.6-33.8 M1475.6-1179.1c-14.9-18.7-30.2-37.1-45.8-55.2"/>
		</g>
		<g>
			<path class="st23" d="M1462-1277.7l73.4-64.1 M1493.6-1240.7c-20.7-25-42.1-49.4-64.1-73.3"/>
		</g>
		<g>
			<path class="st23" d="M1502.4-1378.7l78.8-72.3 M1535.4-1341.9c-21.7-24.8-43.9-49.1-66.8-72.8"/>
		</g>
		<g>
			<path class="st23" d="M1552-1482.1l157.4-150.3 M1581.2-1450.9c-19.3-21-38.9-41.6-59-61.8"/>
		</g>
		<g>
			<path class="st23" d="M1673.6-1669l65.1-64.9 M1709.3-1632.4c-23.6-24.7-47.6-48.8-72.2-72.4"/>
		</g>
		<g>
			<path class="st23" d="M1234.3-1368.2l137.4-152.3 M1244.9-1358.6c-7.1-6.5-14.2-12.9-21.3-19.2"/>
		</g>
		<g>
			<path class="st23" d="M1353.8-1536.5l46.5-52.8 M1371.7-1520.6c-11.8-10.7-23.8-21.2-35.9-31.6"/>
		</g>
		<g>
			<path class="st23" d="M1378.6-1608.3l61.3-71.6 M1400.4-1589.3c-14.4-12.7-29.1-25.3-43.9-37.6"/>
		</g>
		<g>
			<path class="st23" d="M1415.2-1700.7l97.2-116.8 M1439.9-1679.8c-16.4-14-32.9-27.8-49.7-41.3"/>
		</g>
		<g>
			<path class="st23" d="M1484.8-1840.1l57.2-70.9 M1512.4-1817.5c-18.3-15.2-36.8-30.2-55.6-44.8"/>
		</g>
		<g>
			<path class="st23" d="M1642.8-1825.1l10.5-11.7 M1738.7-1733.9c-62.3-62.5-128-121.6-196.7-177.1"/>
		</g>
		<g>
			<path class="st23" d="M1533-1938.4l10-12.7 M1653.3-1836.8c-78.1-70.3-160.5-135.5-246.9-195.2"/>
		</g>
		<g>
			<path class="st23" d="M1671.4-617.2l26.4-9.7 M1676.1-604.1c-3.1-8.7-6.3-17.4-9.6-26"/>
		</g>
		<g>
			<path class="st23" d="M1690.3-646.7l111.7-42.7 M1697.7-626.9c-4.9-13.2-9.9-26.4-15.1-39.5"/>
		</g>
		<g>
			<path class="st23" d="M1792.4-714l24-9.6 M1801.9-689.4c-6.3-16.4-12.8-32.7-19.5-48.9"/>
		</g>
		<g>
			<path class="st23" d="M1569.1-693.4l159-70.3 M1574.5-681.1c-3.5-8.2-7.1-16.3-10.8-24.5"/>
		</g>
		<g>
			<path class="st23" d="M1719.1-783.8l59.9-27.3 M1728.2-763.6c-5.9-13.5-12.1-26.9-18.3-40.2"/>
		</g>
		<g>
			<path class="st23" d="M1798.3-767.5l7.6-3.3 M1816.4-723.5c-11.7-29.5-24.2-58.7-37.4-87.6"/>
		</g>
		<g>
			<path class="st23" d="M1785.4-817.1l448.3-205.2 M1805.9-770.8c-13.3-31.1-27.3-61.8-42.2-92.2"/>
		</g>
		<g>
			<path class="st23" d="M1965.7-657l318.6-106.5 M1970.8-641.7c-3.3-10.2-6.7-20.4-10.2-30.6"/>
		</g>
		<g>
			<path class="st23" d="M1821.1-424.6l175.7-41 M1824.4-410.4c-2.1-9.5-4.3-18.9-6.6-28.4"/>
		</g>
		<g>
			<path class="st23" d="M1776-327.4l66.9-12.3 M1778.5-313.6c-1.6-9.2-3.3-18.5-5.1-27.7"/>
		</g>
		<g>
			<path class="st23" d="M1838.8-361.3l173.1-34 M1842.9-339.8c-2.6-14.4-5.5-28.7-8.4-43"/>
		</g>
		<g>
			<path class="st23" d="M2004.7-430.5l150.3-32.3 M2011.9-395.3c-4.6-23.5-9.7-46.9-15.1-70.3"/>
		</g>
		<g>
			<path class="st23" d="M2145.1-506.8l53.8-12.7 M2155-462.8c-6.3-29.4-13.2-58.6-20.7-87.7"/>
		</g>
		<g>
			<path class="st23" d="M1768-500.4l25.8-7.3 M1771.9-486.6c-2.5-9.2-5.1-18.4-7.8-27.6"/>
		</g>
		<g>
			<path class="st23" d="M1787.8-528.7l378.9-112 M1793.8-507.7c-4-14-8.1-27.9-12.4-41.8"/>
		</g>
		<g>
			<path class="st23" d="M2183.6-580.3l144.2-38.3 M2198.8-519.5c-9.6-40.7-20.4-81.1-32.2-121.2"/>
		</g>
		<g>
			<path class="st23" d="M2307.2-691.4l45.9-13.8 M2327.8-618.6c-13-48.7-27.4-97.1-43.4-144.9"/>
		</g>
		<g>
			<path class="st23" d="M2298.9-865.8l13.6-5.1 M2353.2-705.2c-32.5-108.3-72.4-214.3-119.4-317.1"/>
		</g>
		<g>
			<path class="st23" d="M1884.4-1297.7l126.5-87.1 M1894.5-1283c-6.7-9.8-13.4-19.6-20.2-29.4"/>
		</g>
		<g>
			<path class="st23" d="M1667.5-1036.9l309.6-192.5 M1675.5-1023.9c-5.3-8.7-10.7-17.4-16.2-26"/>
		</g>
		<g>
			<path class="st23" d="M1859-1077.2l119.6-69.3 M1867.4-1062.7c-5.5-9.7-11.1-19.4-16.8-29"/>
		</g>
		<g>
			<path class="st23" d="M1884.4-977.2l43.3-22.4 M1891.9-962.5c-5-9.8-10.1-19.6-15.2-29.4"/>
		</g>
		<g>
			<path class="st23" d="M1915.8-1022.1l101.8-54.3 M1927.7-999.7c-7.8-15-15.8-29.9-23.9-44.8"/>
		</g>
		<g>
			<path class="st23" d="M1998.5-1111.6l36.2-20.1 M2017.6-1076.4c-12.6-23.6-25.6-46.9-39-70.1"/>
		</g>
		<g>
			<path class="st23" d="M2006.5-1181l65.9-38.8 M2034.6-1131.8c-18.4-33-37.5-65.6-57.5-97.7"/>
		</g>
		<g>
			<path class="st23" d="M2042.7-1268.9l31.4-19.5 M2072.4-1219.8c-19.4-33-39.6-65.5-60.5-97.5"/>
		</g>
		<g>
			<path class="st23" d="M2043.1-1337l24.6-16.1 M2074.1-1288.4c-20.3-32.7-41.3-64.8-63.1-96.5"/>
		</g>
		<g>
			<path class="st23" d="M2203.3-1118.7l14.6-7.4 M2312.5-870.9c-63.7-169.2-145.8-330.9-244.8-482.1"/>
		</g>
		<g>
			<path class="st23" d="M1925.2-1575.2l3.7-3 M2217.9-1126.1c-162.7-320.5-393-601.9-674.9-824.9"/>
		</g>
		<g>
			<path class="st23" d="M1236.3-2163.9l2.2-3.8 M1928.8-1578.2c-389.4-476-941.1-791.1-1548.9-884.9"/>
		</g>
		<g>
			<path class="st23" d="M-1985.6-1077.3l-188.4-102.2 M-1977.1-1092.7c-5.7,10.3-11.3,20.6-16.8,30.9"/>
		</g>
		<g>
			<path class="st23" d="M-1300-1060.1l-34.5-28.1 M-1291.7-1070.2c-5.6,6.7-11.1,13.5-16.5,20.3"/>
		</g>
		<g>
			<path class="st23" d="M-1347.1-1072.5l-25.9-20.6 M-1334.5-1088.2c-8.5,10.4-16.8,20.9-25.1,31.5"/>
		</g>
		<g>
			<path class="st23" d="M-1387.8-1074.4l-55.4-42.9 M-1373-1093.2c-9.9,12.5-19.7,25.1-29.3,37.8"/>
		</g>
		<g>
			<path class="st23" d="M-1459.4-1096.1l-14.2-10.7 M-1443.2-1117.3c-10.9,14.1-21.6,28.3-32,42.6"/>
		</g>
		<g>
			<path class="st23" d="M-1490.1-1084.3l-75.3-54.8 M-1473.6-1106.7c-11.1,14.8-22.1,29.8-32.7,45"/>
		</g>
		<g>
			<path class="st23" d="M-1582.7-1115l-75.5-53.2 M-1565.4-1139.2c-11.6,16-23.1,32.2-34.2,48.6"/>
		</g>
		<g>
			<path class="st23" d="M-1123.4-1141l-89.2-90.6 M-1114.4-1149.7c-6,5.8-11.9,11.6-17.8,17.5"/>
		</g>
		<g>
			<path class="st23" d="M-1226.9-1217.3l-6.1-6.1 M-1212.5-1231.6c-9.6,9.4-19.1,19-28.5,28.7"/>
		</g>
		<g>
			<path class="st23" d="M-1255.5-1161.3l-19.6-18.2 M-1246.4-1171c-6.1,6.5-12.1,13-18.1,19.6"/>
		</g>
		<g>
			<path class="st23" d="M-1254.2-1201.6l-40.4-38.7 M-1233-1223.4c-14.3,14.4-28.3,29.1-42.1,44"/>
		</g>
		<g>
			<path class="st23" d="M-1319.7-1213.6l-22.2-20.4 M-1294.7-1240.3c-16.9,17.7-33.5,35.7-49.6,54"/>
		</g>
		<g>
			<path class="st23" d="M-1364-1209.7l-153.6-136.2 M-1342-1234c-14.8,16.1-29.4,32.5-43.6,49.2"/>
		</g>
		<g>
			<path class="st23" d="M-1590.4-1259l-45.6-36.1 M-1517.6-1345.8c-50.2,56.5-97.1,115.9-140.6,177.6"/>
		</g>
		<g>
			<path class="st23" d="M-1690.6-1222.9l-126.3-91.4 M-1636-1295.1c-37.5,47.3-72.9,96.3-106.1,146.7"/>
		</g>
		<g>
			<path class="st23" d="M-1521-952.4l-58.9-36.9 M-1513.5-964.2c-5,7.9-10,15.8-14.8,23.7"/>
		</g>
		<g>
			<path class="st23" d="M-1591.4-970.8l-323-197 M-1579.9-989.3c-7.7,12.3-15.3,24.7-22.7,37.2"/>
		</g>
		<g>
			<path class="st23" d="M-1867.1-1242l-164.9-109.7 M-1816.9-1314.3c-34.4,47.5-66.9,96.4-97.4,146.5"/>
		</g>
		<g>
			<path class="st23" d="M-2075.8-1283.4l-28-17.3 M-2032-1351.7c-30,45-58.4,91.1-85.3,138"/>
		</g>
		<g>
			<path class="st23" d="M-2139.8-1240.6l-11.3-6.6 M-2103.8-1300.7c-24.6,39.7-48,80.1-70.2,121.2"/>
		</g>
		<g>
			<path class="st23" d="M-1474.9-1645.2l-123.5-137.8 M-1462-1656.7c-8.6,7.6-17.2,15.3-25.6,23"/>
		</g>
		<g>
			<path class="st23" d="M-1619.1-1764.2l-56.6-61.7 M-1598.4-1783c-13.9,12.5-27.6,25.1-41.2,37.8"/>
		</g>
		<g>
			<path class="st23" d="M-1540.7-1830.4l-29.2-34.6 M-1526.4-1842.3c-9.6,7.9-19.1,15.9-28.5,24"/>
		</g>
		<g>
			<path class="st23" d="M-1015.2-1514.3l-29.7-44.4 M-1003.4-1522.1c-7.9,5.2-15.8,10.5-23.6,15.8"/>
		</g>
		<g>
			<path class="st23" d="M-1063.1-1546.3l-230.7-335.6 M-1045-1558.6c-12.1,8.1-24.2,16.4-36.1,24.8"/>
		</g>
		<g>
			<path class="st23" d="M-1272.3-1718.3l-86.7-117 M-1258.9-1728.2c-9,6.5-17.9,13.1-26.8,19.8"/>
		</g>
		<g>
			<path class="st23" d="M-1326.6-1858.9L-1398-1959 M-1293.8-1881.9c-22,15.1-43.7,30.6-65.2,46.5"/>
		</g>
		<g>
			<path class="st23" d="M-1454.7-1841.8l-37-46.8 M-1440.3-1853.1c-9.6,7.5-19.2,15-28.7,22.7"/>
		</g>
		<g>
			<path class="st23" d="M-1445.3-1924.4l-18.7-24.9 M-1398-1959c-31.8,22.7-63,46.2-93.7,70.4"/>
		</g>
		<g>
			<path class="st23" d="M-1517.5-1907.8l-17.2-21.6 M-1464-1949.2c-36.1,27.1-71.4,55.2-105.9,84.2"/>
		</g>
		<g>
			<path class="st23" d="M-1107.3-1967.2l-78.8-140 M-1092-1975.7c-10.3,5.7-20.5,11.4-30.7,17.3"/>
		</g>
		<g>
			<path class="st23" d="M-1096.9-2099.1l-13.8-26.4 M-1080.5-2107.6c-10.9,5.6-21.9,11.3-32.7,17.1"/>
		</g>
		<g>
			<path class="st23" d="M-839.8-1737l-99.7-206.2 M-826.3-1743.5c-9.1,4.3-18.1,8.7-27.1,13.1"/>
		</g>
		<g>
			<path class="st23" d="M-791.7-1853.8l-27.8-65 M-777.2-1859.9c-9.7,4-19.3,8.1-28.9,12.3"/>
		</g>
		<g>
			<path class="st23" d="M-841.8-1909.1l-29-65.8 M-819.4-1918.8c-15,6.4-29.8,12.9-44.6,19.7"/>
		</g>
		<g>
			<path class="st23" d="M-905.3-1959.3l-95-205.7 M-870.8-1974.9c-23.1,10.2-46,20.8-68.7,31.7"/>
		</g>
		<g>
			<path class="st23" d="M-740.4-1895.3l-113-289.3 M-725.6-1901c-9.9,3.8-19.7,7.6-29.5,11.5"/>
		</g>
		<g>
			<path class="st23" d="M-650.4-1925.9l-60.1-178.1 M-635.4-1930.9c-10,3.3-20,6.7-30,10.1"/>
		</g>
		<g>
			<path class="st23" d="M-735.1-2095.5l-41.3-117.6 M-710.6-2104c-16.4,5.5-32.7,11.3-49,17.2"/>
		</g>
		<g>
			<path class="st23" d="M-815-2199.2l-5.1-13.7 M-776.4-2213.2c-25.9,9.1-51.6,18.6-77.1,28.6"/>
		</g>
		<g>
			<path class="st23" d="M-505-1664.6l-174.6-575.7 M-492-1668.5c-8.7,2.6-17.3,5.2-25.9,7.9"/>
		</g>
		<g>
			<path class="st23" d="M-420.3-1777.3l-42.2-178.6 M-406.4-1780.5c-9.2,2.1-18.5,4.3-27.7,6.5"/>
		</g>
		<g>
			<path class="st23" d="M-485.3-1950.4l-71-285.5 M-462.5-1955.9c-15.2,3.6-30.4,7.4-45.6,11.3"/>
		</g>
		<g>
			<path class="st23" d="M-251.3-1800.2l-3.1-22.2 M-237.2-1802.1c-9.4,1.2-18.7,2.5-28.1,3.9"/>
		</g>
		<g>
			<path class="st23" d="M-275.7-1819.3l-6.3-41.3 M-254.4-1822.4c-14.2,2-28.4,4.1-42.5,6.4"/>
		</g>
		<g>
			<path class="st23" d="M-307.3-1856.6l-62.3-376.3 M-281.9-1860.6c-16.9,2.6-33.8,5.4-50.6,8.4"/>
		</g>
		<g>
			<path class="st23" d="M-200.1-1854l-19.9-184.8 M-185.7-1855.5c-9.6,1-19.3,2-28.9,3.1"/>
		</g>
		<g>
			<path class="st23" d="M-145.7-1905l-10.7-139.7 M-130.9-1906c-9.9,0.7-19.8,1.4-29.7,2.3"/>
		</g>
		<g>
			<path class="st23" d="M-188.3-2041.9l-19.5-211.7 M-156.4-2044.6c-21.2,1.6-42.5,3.6-63.6,5.9"/>
		</g>
		<g>
			<path class="st23" d="M-288.9-2244.7l-2-15.4 M-207.8-2253.7c-54.1,5-108.1,11.9-161.7,20.8"/>
		</g>
		<g>
			<path class="st23" d="M-447.7-2197.1l-7.3-35.7 M-430.6-2200.5c-11.4,2.2-22.8,4.6-34.2,7"/>
		</g>
		<g>
			<path class="st23" d="M-373.2-2248l-4.2-25 M-290.8-2260.1c-55,7.1-109.8,16.2-164.2,27.3"/>
		</g>
		<g>
			<path class="st23" d="M-467.2-2256.2l-4.8-23.2 M-377.3-2273c-60.1,10-119.9,22.4-179,37.1"/>
		</g>
		<g>
			<path class="st23" d="M-548.1-2262.4l-3.1-12.9 M-472-2279.5c-50.9,10.5-101.4,22.8-151.5,36.7"/>
		</g>
		<g>
			<path class="st23" d="M-615.6-2258.7l-5-18.3 M-551.2-2275.3c-43.1,10.4-85.9,22.1-128.4,35"/>
		</g>
		<g>
			<path class="st23" d="M-721.1-2247.2l-7.6-23.7 M-620.6-2277c-67.4,18.4-134,39.7-199.5,64"/>
		</g>
		<g>
			<path class="st23" d="M-866.1-2222.1l-4.8-12.4 M-728.7-2270.9c-92.6,29.7-183.3,65.1-271.6,105.9"/>
		</g>
		<g>
			<path class="st23" d="M-992.3-2183.3l-8.2-18.1 M-871-2234.5c-81.8,31.9-161.9,68.3-239.7,109"/>
		</g>
		<g>
			<path class="st23" d="M-1094.4-2156.3l-4.3-8.5 M-1000.6-2201.4c-63.2,28.7-125.1,60.1-185.6,94.2"/>
		</g>
		<g>
			<path class="st23" d="M-1170.8-1936.1l-50.5-83.5 M-1155.6-1945.2c-10.1,6-20.2,12.1-30.2,18.2"/>
		</g>
		<g>
			<path class="st23" d="M-1244.8-2005.3l-35.6-57.3 M-1221.3-2019.7c-15.7,9.5-31.4,19.2-46.9,29.1"/>
		</g>
		<g>
			<path class="st23" d="M-1190.6-2115.6l-18.5-32.8 M-1098.7-2164.8c-62,31.5-122.6,65.6-181.7,102.2"/>
		</g>
		<g>
			<path class="st23" d="M-1376.3-2045.4l-7.3-10.8 M-1209.1-2148.5c-114.2,64.3-223,137.5-325.6,219.1"/>
		</g>
		<g>
			<path class="st23" d="M-1534-1946.6l-5-6.4 M-1383.5-2056.2c-103.1,69.3-200.7,146.3-292.3,230.3"/>
		</g>
		<g>
			<path class="st23" d="M-1878.5-1629.1l-7.6-6.6 M-1539-1953c-246.8,194.5-454.5,434-612.1,705.8"/>
		</g>
		<g>
			<path class="st23" d="M-419.1-2461.1l-0.6-3.4 M1238.4-2167.7c-1035-591.3-2343.6-368.5-3124.6,532.1"/>
		</g>
		<g>
			<path class="st23" d="M2043.8,111.6l291.9,15.9 M2042.9,127.5c0.7-10.6,1.2-21.2,1.7-31.8"/>
		</g>
		<g>
			<path class="st23" d="M2337.1,100.2l109.2,4.7 M2335.7,127.5c1-18.2,1.8-36.4,2.3-54.6"/>
		</g>
		<g>
			<path class="st23" d="M1756,13.7l692.5,5.4 M1755.8,27.4c0.1-9.1,0.2-18.2,0.2-27.4"/>
		</g>
		<g>
			<path class="st23" d="M2447.8,62l40.5,1 M2446.3,104.9c1.2-28.6,2-57.2,2.2-85.8"/>
		</g>
		<g>
			<path class="st23" d="M1846.9,275.4l161.7,24.1 M1844.7,289.8c1.5-9.6,2.9-19.2,4.3-28.8"/>
		</g>
		<g>
			<path class="st23" d="M1866.4,368.2l19.1,3.8 M1863.5,382.8c2-9.7,3.9-19.4,5.7-29.1"/>
		</g>
		<g>
			<path class="st23" d="M1819.6,418.3l53.4,12.3 M1816.3,432.5c2.2-9.4,4.4-18.9,6.5-28.4"/>
		</g>
		<g>
			<path class="st23" d="M1879.5,401.3l46.8,10 M1873,430.6c4.5-19.5,8.6-39,12.5-58.6"/>
		</g>
		<g>
			<path class="st23" d="M1933.9,373.7l60,11.6 M1926.3,411.3c5.3-25,10.2-50.1,14.6-75.3"/>
		</g>
		<g>
			<path class="st23" d="M2001.8,342.5l26.3,4.5 M1994,385.3c5.5-28.5,10.4-57.1,14.7-85.8"/>
		</g>
		<g>
			<path class="st23" d="M2035.4,301.5l389.1,57.6 M2028.1,347c5.2-30.3,9.7-60.7,13.5-91.2"/>
		</g>
		<g>
			<path class="st23" d="M1979.8,201.2l346,35.2 M1978.2,216.6c1.1-10.3,2.2-20.6,3.1-30.9"/>
		</g>
		<g>
			<path class="st23" d="M2328.4,209.2l112.7,10.1 M2325.8,236.4c1.8-18.1,3.5-36.3,4.9-54.4"/>
		</g>
		<g>
			<path class="st23" d="M2433.8,289.4l19.8,2.4 M2424.5,359.2c6.9-46.4,12.4-93.1,16.6-139.8"/>
		</g>
		<g>
			<path class="st23" d="M1726.6,512l100.5,29.8 M1722.6,525.5c2.7-8.9,5.4-17.9,8-26.9"/>
		</g>
		<g>
			<path class="st23" d="M1833.3,520.5l392.2,111.3 M1827.1,541.8c4.2-14.2,8.3-28.5,12.2-42.9"/>
		</g>
		<g>
			<path class="st23" d="M2234,601.4l127.6,34.3 M2225.6,631.8c5.7-20.2,11.2-40.5,16.4-60.9"/>
		</g>
		<g>
			<path class="st23" d="M1761.3,644.2l41.7,15.2 M1756.3,657.9c3.4-9.1,6.8-18.3,10-27.4"/>
		</g>
		<g>
			<path class="st23" d="M1810.6,638.3l132.3,46.7 M1803,659.4c5.1-14,10.1-28.2,14.9-42.3"/>
		</g>
		<g>
			<path class="st23" d="M1952.1,658.4l322.2,108.7 M1942.9,685c6.2-17.7,12.2-35.4,18-53.2"/>
		</g>
		<g>
			<path class="st23" d="M2108.2,1003.2l32.8,15.6 M2100.3,1019.5c5.3-10.9,10.5-21.9,15.6-32.9"/>
		</g>
		<g>
			<path class="st23" d="M1696.8,873.3l163.9,84.3 M1690,886.5c4.6-8.8,9.1-17.6,13.6-26.4"/>
		</g>
		<g>
			<path class="st23" d="M1583.2,910.8l107.2,61.7 M1576.1,923.1c4.8-8.2,9.5-16.4,14.2-24.7"/>
		</g>
		<g>
			<path class="st23" d="M1701.7,952.6l124.3,69.6 M1690.4,972.5c7.6-13.2,15-26.4,22.3-39.8"/>
		</g>
		<g>
			<path class="st23" d="M1843.6,990.1l229,123 M1826,1022.2c11.9-21.3,23.5-42.9,34.7-64.6"/>
		</g>
		<g>
			<path class="st23" d="M1435.1,886.2l466.8,288.3 M1428.2,897.4c4.7-7.4,9.3-14.9,13.8-22.4"/>
		</g>
		<g>
			<path class="st23" d="M1506.9,1030.8l103.4,70.7 M1498.8,1042.5c5.4-7.8,10.8-15.6,16.1-23.5"/>
		</g>
		<g>
			<path class="st23" d="M1623,1082.6l236.6,157.8 M1610.2,1101.5c8.6-12.5,17-25.2,25.3-37.9"/>
		</g>
		<g>
			<path class="st23" d="M1881.1,1207.7l63.2,40.5 M1859.6,1240.5c14.5-21.7,28.6-43.7,42.3-66"/>
		</g>
		<g>
			<path class="st23" d="M1421.2,1038.6l402.7,294.3 M1413,1049.7c5.5-7.3,10.8-14.7,16.2-22.1"/>
		</g>
		<g>
			<path class="st23" d="M1721,1385.7l9.9,8 M1710.1,1399c7.3-8.9,14.5-17.8,21.6-26.8"/>
		</g>
		<g>
			<path class="st23" d="M1747.1,1373.3l29,22.8 M1730.9,1393.7c10.9-13.5,21.6-27.1,32.1-40.8"/>
		</g>
		<g>
			<path class="st23" d="M1800.3,1364.8l40.9,31 M1776.1,1396.1c16.3-20.8,32.3-41.8,47.8-63.1"/>
		</g>
		<g>
			<path class="st23" d="M1894.2,1323l34.5,24.1 M1841.2,1395.8c36.3-47.8,70.6-97,103.1-147.5"/>
		</g>
		<g>
			<path class="st23" d="M2004.1,1232.2l15.7,9.7 M1928.7,1347.1c52.5-75.2,100.6-153.3,143.9-234.1"/>
		</g>
		<g>
			<path class="st23" d="M2083.4,1131.9l17.8,9.7 M2019.8,1241.9c44.4-72.1,84.8-146.6,121.2-223.1"/>
		</g>
		<g>
			<path class="st23" d="M1616.4,708.2l66.5,29.2 M1610.8,720.8c3.7-8.4,7.4-16.8,11-25.2"/>
		</g>
		<g>
			<path class="st23" d="M1691.4,717.6l98.8,41.9 M1682.9,737.4c5.7-13.1,11.3-26.3,16.8-39.5"/>
		</g>
		<g>
			<path class="st23" d="M1800.4,735.1l413.5,168.8 M1790.3,759.6c6.9-16.3,13.6-32.6,20-49.1"/>
		</g>
		<g>
			<path class="st23" d="M2160.8,1024.3l8,3.8 M2101.2,1141.6c41.9-77.1,79.5-156.5,112.7-237.7"/>
		</g>
		<g>
			<path class="st23" d="M2225.4,899.2l42.2,17 M2168.8,1028.1c40.2-84.9,75.4-172,105.5-261"/>
		</g>
		<g>
			<path class="st23" d="M2318.8,777.4l23.9,8 M2267.6,916.2c37-91.5,68.4-185.1,94-280.4"/>
		</g>
		<g>
			<path class="st23" d="M2410.8,541.4l17.7,4 M2342.7,785.4c53.8-160.3,90.9-325.8,110.9-493.7"/>
		</g>
		<g>
			<path class="st23" d="M2470.2,305.7l7.2,0.9 M2428.6,545.4c35.6-158.5,55.6-320,59.7-482.4"/>
		</g>
		<g>
			<path class="st23" d="M1739.1,1539.6l61.1,54.1 M1727,1553.1c8.1-9,16.1-18,24-27.1"/>
		</g>
		<g>
			<path class="st23" d="M1818.7,1572.5l43.5,37.6 M1800.2,1593.7c12.4-14,24.7-28.2,36.8-42.5"/>
		</g>
		<g>
			<path class="st23" d="M1536.6,1448.2l168.8,159.1 M1525.2,1460.1c7.6-7.9,15.1-15.9,22.6-23.9"/>
		</g>
		<g>
			<path class="st23" d="M1348.4,1439.7l59.2,63.2 M1337.2,1450.2c7.5-6.9,15-14,22.4-21"/>
		</g>
		<g>
			<path class="st23" d="M1425.1,1486.3l38.2,39.8 M1407.6,1502.9c11.7-11,23.3-22.1,34.7-33.3"/>
		</g>
		<g>
			<path class="st23" d="M1483.9,1506.1l56,56.8 M1463.3,1526.2c13.9-13.3,27.6-26.8,41.1-40.5"/>
		</g>
		<g>
			<path class="st23" d="M1267.9,1535.1l76.7,92.8 M1255.9,1545c8-6.5,16-13.1,23.9-19.8"/>
		</g>
		<g>
			<path class="st23" d="M1363.5,1612.1l28.7,33.9 M1344.5,1627.9c12.7-10.5,25.2-21.1,37.7-31.9"/>
		</g>
		<g>
			<path class="st23" d="M1414.4,1626.9l25.1,28.9 M1392.1,1646c15-12.7,29.8-25.5,44.4-38.6"/>
		</g>
		<g>
			<path class="st23" d="M1490.5,1610.1l101.4,109.6 M1439.6,1655.8c34.4-29.9,67.9-60.9,100.3-92.9"/>
		</g>
		<g>
			<path class="st23" d="M1649.6,1664.4l83.3,84.1 M1591.9,1719.7c39.1-36.2,76.9-73.7,113.5-112.4"/>
		</g>
		<g>
			<path class="st23" d="M1798.9,1680.6l19.8,18.5 M1732.9,1748.5c44.9-44.4,88-90.6,129.3-138.4"/>
		</g>
		<g>
			<path class="st23" d="M802,1770l104.9,231.6 M788.2,1776.2c9.2-4.1,18.4-8.3,27.6-12.5"/>
		</g>
		<g>
			<path class="st23" d="M930.2,1990.8l54.9,117.5 M906.9,2001.6c15.6-7.1,31.1-14.3,46.5-21.7"/>
		</g>
		<g>
			<path class="st23" d="M1013.8,2094.7l10.3,21.3 M985.1,2108.3c19.2-9,38.2-18.2,57.1-27.6"/>
		</g>
		<g>
			<path class="st23" d="M709.7,1705.9l169.7,408 M696.4,1711.4c8.9-3.6,17.8-7.3,26.6-11.1"/>
		</g>
		<g>
			<path class="st23" d="M592.5,1809.9l24.1,73.6 M578.3,1814.5c9.4-3,18.8-6.1,28.2-9.2"/>
		</g>
		<g>
			<path class="st23" d="M638.5,1876.2l3.5,10.4 M616.5,1883.5c14.7-4.8,29.3-9.8,43.9-14.9"/>
		</g>
		<g>
			<path class="st23" d="M667.7,1877.7l96.3,270.9 M642.1,1886.6c17.1-5.8,34.2-11.9,51.2-18.2"/>
		</g>
		<g>
			<path class="st23" d="M795.4,2137.2l3.2,8.6 M764.1,2148.6c20.9-7.4,41.7-15.2,62.4-23.2"/>
		</g>
		<g>
			<path class="st23" d="M839.2,2130.2l15.2,38.5 M798.6,2145.8c27.2-10.1,54.1-20.7,80.9-31.9"/>
		</g>
		<g>
			<path class="st23" d="M506.9,1834.5l31.6,114.4 M492.6,1838.4c9.5-2.6,19.1-5.2,28.6-7.9"/>
		</g>
		<g>
			<path class="st23" d="M461.3,1898l16.2,66.7 M446.5,1901.5c9.9-2.3,19.7-4.7,29.6-7.2"/>
		</g>
		<g>
			<path class="st23" d="M508.1,1957l8,31 M477.5,1964.7c20.4-5,40.7-10.2,61-15.8"/>
		</g>
		<g>
			<path class="st23" d="M554.7,1977.6l72.4,258.2 M516.1,1988c25.8-6.7,51.5-13.9,77-21.6"/>
		</g>
		<g>
			<path class="st23" d="M456.4,2170.4L467,2221 M439.5,2173.9c11.3-2.3,22.6-4.7,33.8-7.1"/>
		</g>
		<g>
			<path class="st23" d="M263.3,1626.4l74.8,462.1 M250.6,1628.4c8.5-1.3,16.9-2.7,25.3-4.1"/>
		</g>
		<g>
			<path class="st23" d="M362.5,2084.4l21.2,121.9 M338.1,2088.5c16.3-2.6,32.5-5.5,48.7-8.5"/>
		</g>
		<g>
			<path class="st23" d="M-264.4,1736l-3.1,20 M-277.9,1733.9c9,1.4,18,2.8,27.1,4.1"/>
		</g>
		<g>
			<path class="st23" d="M-246.9,1759.1l-4.9,35.2 M-267.5,1756.1c13.7,2.1,27.4,4,41.1,5.8"/>
		</g>
		<g>
			<path class="st23" d="M-227.4,1797.5l-4.4,35 M-251.9,1794.2c16.3,2.3,32.7,4.4,49,6.2"/>
		</g>
		<g>
			<path class="st23" d="M-205,1835.6l-3.4,30.5 M-231.8,1832.5c17.8,2.3,35.7,4.3,53.6,6"/>
		</g>
		<g>
			<path class="st23" d="M-134.2,1829.4l-3.2,43.3 M-148.5,1828.3c9.5,0.8,19,1.5,28.5,2.1"/>
		</g>
		<g>
			<path class="st23" d="M-172.9,1869.8l-1.4,14.9 M-208.4,1866.2c23.6,2.6,47.3,4.8,71,6.6"/>
		</g>
		<g>
			<path class="st23" d="M-134.4,1888l-1.1,15.7 M-174.3,1884.7c26.6,2.5,53.3,4.4,80,5.7"/>
		</g>
		<g>
			<path class="st23" d="M-100.5,1905.9l-1.3,23.7 M-135.5,1903.7c23.3,1.7,46.7,2.9,70.1,3.7"/>
		</g>
		<g>
			<path class="st23" d="M-68.9,1931.1l-0.4,11.8 M-101.7,1929.6c21.8,1.2,43.7,1.9,65.6,2.3"/>
		</g>
		<g>
			<path class="st23" d="M-37.7,1943.7l-1.6,84.4 M-69.4,1942.9c21.1,0.8,42.2,1.2,63.3,1.2"/>
		</g>
		<g>
			<path class="st23" d="M37.2,1834.6l1.6,81.4 M22.9,1834.8c9.5-0.1,19.1-0.3,28.6-0.6"/>
		</g>
		<g>
			<path class="st23" d="M61.2,1915.4l3.6,112.1 M38.8,1916c14.9-0.3,29.9-0.8,44.8-1.4"/>
		</g>
		<g>
			<path class="st23" d="M12.7,2028.5l0.2,31.5 M-39.4,2028.1c34.7,0.7,69.4,0.5,104.1-0.7"/>
		</g>
		<g>
			<path class="st23" d="M120.4,1793.4l1.7,25.1 M106.4,1794.3c9.3-0.6,18.6-1.2,27.9-1.9"/>
		</g>
		<g>
			<path class="st23" d="M143.3,1816.9l3,38 M122,1818.4c14.2-1,28.3-2.1,42.5-3.3"/>
		</g>
		<g>
			<path class="st23" d="M171.6,1852.7l2.7,29.2 M146.3,1854.9c16.9-1.3,33.7-2.9,50.5-4.7"/>
		</g>
		<g>
			<path class="st23" d="M201.7,1879.1l18.2,169.1 M174.3,1881.9c18.3-1.7,36.6-3.7,54.9-5.9"/>
		</g>
		<g>
			<path class="st23" d="M116.6,2056.8l2.8,50.2 M12.9,2060c69.1-0.4,138.2-4.3,207-11.7"/>
		</g>
		<g>
			<path class="st23" d="M204.1,2100.4l12.5,128.4 M119.4,2106.9c56.6-3.2,113-8.7,169.1-16.4"/>
		</g>
		<g>
			<path class="st23" d="M300.4,2219.1l4.1,30 M216.6,2228.9c56-5.4,111.7-13,167.1-22.6"/>
		</g>
		<g>
			<path class="st23" d="M386,2236.6l8.9,51.7 M304.4,2249.1c54.5-7.4,108.8-16.7,162.6-28.1"/>
		</g>
		<g>
			<path class="st23" d="M511.7,2265l1.9,8.6 M394.9,2288.3c78.3-13.5,155.8-31,232.3-52.5"/>
		</g>
		<g>
			<path class="st23" d="M686,2227.7l5.9,19.1 M513.7,2273.6c116.1-26.2,230-61.3,340.7-104.9"/>
		</g>
		<g>
			<path class="st23" d="M860.5,2187.7l17.4,44.1 M691.9,2246.7c113.9-35.1,225-78.8,332.3-130.7"/>
		</g>
		<g>
			<path class="st23" d="M865.3,1631.1l17.7,33.4 M852.6,1637.8c8.5-4.4,17-8.9,25.4-13.5"/>
		</g>
		<g>
			<path class="st23" d="M902.4,1654l44.7,82 M883,1664.5c13-6.9,25.9-13.9,38.7-21.1"/>
		</g>
		<g>
			<path class="st23" d="M970.7,1723l50.4,89.5 M947.2,1736c15.8-8.6,31.4-17.4,47-26.5"/>
		</g>
		<g>
			<path class="st23" d="M1047.5,1797.4l23.3,39.9 M1021.2,1812.5c17.7-9.9,35.2-20.1,52.5-30.6"/>
		</g>
		<g>
			<path class="st23" d="M1098.4,1820.9l140.3,232.7 M1070.8,1837.3c18.5-10.8,36.8-21.8,55-33.2"/>
		</g>
		<g>
			<path class="st23" d="M1062,2150.3l7.9,16 M877.8,2231.8c125.1-49.2,245.8-108.8,360.9-178.3"/>
		</g>
		<g>
			<path class="st23" d="M1192.4,2101.4l27.5,48.4 M1070,2166.3c82.9-40.9,163.3-86.6,240.9-136.7"/>
		</g>
		<g>
			<path class="st23" d="M1229.1,1586.4l273.2,352.6 M1216.7,1595.9c8.3-6.3,16.5-12.7,24.7-19.2"/>
		</g>
		<g>
			<path class="st23" d="M1027.1,1511.6l46.7,68.7 M1015.3,1519.5c7.9-5.3,15.7-10.6,23.6-16"/>
		</g>
		<g>
			<path class="st23" d="M1092.2,1567.6l247.5,355.3 M1073.8,1580.3c12.3-8.4,24.5-16.9,36.6-25.5"/>
		</g>
		<g>
			<path class="st23" d="M1365.8,1904.5l63.7,88.8 M1339.7,1922.9c17.5-12.2,34.8-24.6,51.9-37.2"/>
		</g>
		<g>
			<path class="st23" d="M1466.2,1966.5l11.3,15.2 M1429.5,1993.2c24.6-17.6,48.9-35.7,72.8-54.3"/>
		</g>
		<g>
			<path class="st23" d="M1351.3,2069.8l9.3,14.2 M1219.8,2149.8c89.3-50.7,175.3-106.8,257.6-168.2"/>
		</g>
		<g>
			<path class="st23" d="M1601.2,1905.3l4.9,5.8 M1360.6,2084c167.6-109.4,321.4-238.7,458.1-385"/>
		</g>
		<g>
			<path class="st23" d="M2193.7,1191.3l3.2,1.8 M1606.1,1911.1c482.7-405.6,794-978.8,871.4-1604.5"/>
		</g>
		<g>
			<path class="st23" d="M-2033.3,1454.6L-2033.3,1454.6 M-419.7-2464.5c-1152,196.2-2014.4,1164.2-2076.8,2331.1
				c-62.4,1166.9,692,2221.3,1816.5,2539.2S1639.2,2220,2196.9,1193.1"/>
		</g>
	</g>
	<g id="scaleHolder">
	</g>
	<g id="bootstrapHolder">
	</g>
	<g id="branchlengthHolder">
	</g>
	<g id="branchIDHolder">
	</g>
	<g id="datasetHolder">
		<path class="st24" d="M110.2,1390.4l74.5-7.9l-29.3,78.5L110.2,1390.4"/>
		<path class="st24" d="M266.2-1369.1l-73.9-12.3l49.3-67.7L266.2-1369.1"/>
		<path class="st24" d="M725,1191.6l62.9-40.6l9.2,83.2L725,1191.6"/>
		<path class="st24" d="M-1314.5,466.3l26.9,69.9l-83.4-8L-1314.5,466.3"/>
		<path class="st24" d="M351-1349.9l-73-16.9l53.4-64.5L351-1349.9"/>
		<path class="st24" d="M1372.5-248.1l-15.3-73.3l81,21.4L1372.5-248.1"/>
		<path class="st24" d="M-503-1300.9l-69.1,28.9l5.7-83.6L-503-1300.9"/>
		<path class="st24" d="M-1182.4,739.8l41.4,62.4l-83.1,10.2L-1182.4,739.8"/>
		<path class="st24" d="M115.6-1390l-74.8-4.2l41.6-72.7L115.6-1390"/>
		<path class="st24" d="M-583.1-1267.1l-67.2,33.1l0.5-83.8L-583.1-1267.1"/>
		<path class="st24" d="M-1255.9,606.7l34.4,66.6l-83.7,1.1L-1255.9,606.7"/>
		<path class="st24" d="M66.8,1393.2l74.7-5.6l-31.8,77.5L66.8,1393.2"/>
		<path class="st24" d="M218.1,1377.6l73.6-13.7l-23.1,80.5L218.1,1377.6"/>
		<path class="st24" d="M1358.2,317.2l15.1-73.4l65.8,51.8L1358.2,317.2"/>
		<path class="st24" d="M-231-1375.5l-73.5,14.4l22.4-80.7L-231-1375.5"/>
		<path class="st24" d="M819.9-1128.4l-61.8-42.4l73.3-40.6L819.9-1128.4"/>
		<path class="st24" d="M668.5,1224.1l64.8-37.7l5.3,83.6L668.5,1224.1"/>
		<path class="st24" d="M1268.9-579.1l-32.9-67.3l83.7,0.7L1268.9-579.1"/>
		<path class="st24" d="M-1291.3,527.3l30.2,68.6l-83.7-4.1L-1291.3,527.3"/>
		<path class="st24" d="M1238,642.6l32.7-67.4l51,66.4L1238,642.6"/>
		<path class="st24" d="M239.6,1374.1l73.4-14.8l-21.9,80.8L239.6,1374.1"/>
		<path class="st24" d="M-363.6,1346.6l72.8,17.6l-54,64L-363.6,1346.6"/>
		<path class="st24" d="M-754.5-1173.1l-61.9,42.2l-11.3-83L-754.5-1173.1"/>
		<path class="st24" d="M-717.6-1196.1l-63.2,40.2l-8.7-83.3L-717.6-1196.1"/>
		<path class="st24" d="M-1215.7,683.7l38.5,64.3l-83.5,6.3L-1215.7,683.7"/>
		<path class="st24" d="M-1334.9,404.4l23.6,71.1l-82.9-11.9L-1334.9,404.4"/>
		<path class="st24" d="M-1390.8,105.9l7.7,74.5l-78.4-29.6L-1390.8,105.9"/>
		<path class="st24" d="M1300.6,504l25.2-70.6l58,60.5L1300.6,504"/>
		<path class="st24" d="M-1094.9,864.1l48,57.5l-81.5,19.2L-1094.9,864.1"/>
		<path class="st24" d="M687.5,1213.6l64.2-38.7l6.6,83.5L687.5,1213.6"/>
		<path class="st24" d="M867.5,1092.2l57.4-48.2l19.5,81.5L867.5,1092.2"/>
		<path class="st24" d="M244.8-1373.1l-74.1-11.2l48.2-68.5L244.8-1373.1"/>
		<path class="st24" d="M-1384.3,170.8l11.2,74.1l-79.7-25.9L-1384.3,170.8"/>
		<path class="st24" d="M-1118.1-833.9l-43.2,61.2l-39.6-73.8L-1118.1-833.9"/>
		<path class="st24" d="M260.9,1370.2l73.2-16l-20.6,81.2L260.9,1370.2"/>
		<path class="st24" d="M-193.3,1381.3l74.4,8.4l-45.6,70.2L-193.3,1381.3"/>
		<path class="st24" d="M-622.3-1248.3l-66.1,35.2l-2.1-83.7L-622.3-1248.3"/>
		<path class="st24" d="M630.1,1244.4l65.9-35.6l2.7,83.7L630.1,1244.4"/>
		<path class="st24" d="M-467.3,1314.2l71.2,23.2l-58.8,59.6L-467.3,1314.2"/>
		<path class="st24" d="M-1155.8-780.7l-40.2,63.2l-43.1-71.8L-1155.8-780.7"/>
		<path class="st24" d="M-316.2-1358.5l-72.5,18.9l17.3-81.9L-316.2-1358.5"/>
		<path class="st24" d="M1.7,1394.8l74.9-2.1l-35.3,75.9L1.7,1394.8"/>
		<path class="st24" d="M1368.5-269.5l-16.4-73.1l81.3,20.1L1368.5-269.5"/>
		<path class="st24" d="M-101.6-1391.1l-74.5,7.5l29.8-78.3L-101.6-1391.1"/>
		<path class="st24" d="M-1321.6,445.8l25.8,70.3l-83.2-9.3L-1321.6,445.8"/>
		<path class="st24" d="M784.3-1153.4l-63.1-40.4l72-42.8L784.3-1153.4"/>
		<path class="st24" d="M-1297.4-512.1l-25.6,70.4l-57.6-60.8L-1297.4-512.1"/>
		<path class="st24" d="M131.9,1388.5l74.4-9.1l-28.1,78.9L131.9,1388.5"/>
		<path class="st24" d="M-441.7-1323l-70.4,25.6l9.6-83.2L-441.7-1323"/>
		<path class="st24" d="M1354.4-333.1l-19.8-72.2l82.2,16.3L1354.4-333.1"/>
		<path class="st24" d="M-1091.5-868.3l-45,59.9l-37.3-75L-1091.5-868.3"/>
		<path class="st24" d="M-128.6,1388.8l74.8,4.9l-42.3,72.3L-128.6,1388.8"/>
		<path class="st24" d="M1349.1-354.2l-21-71.9l82.4,15L1349.1-354.2"/>
		<path class="st24" d="M-808.5-1136.6l-59.9,45l-15.1-82.4L-808.5-1136.6"/>
		<path class="st24" d="M1286.3-539.3l-30.8-68.3l83.7,3.3L1286.3-539.3"/>
		<path class="st24" d="M1331-416.9l-24.3-70.9l83,11.1L1331-416.9"/>
		<path class="st24" d="M531.3,1289.6l68.5-30.4l-3.9,83.7L531.3,1289.6"/>
		<path class="st24" d="M-1213.1-688.4l-35.2,66.1l-48.5-68.3L-1213.1-688.4"/>
		<path class="st24" d="M1227.8,661.8l33.8-66.9l50,67.2L1227.8,661.8"/>
		<path class="st24" d="M-1352.3,341.6l20.3,72.1l-82.3-15.8L-1352.3,341.6"/>
		<path class="st24" d="M901.1,1064.6l55.9-49.9l22,80.8L901.1,1064.6"/>
		<path class="st24" d="M649.4,1234.4l65.3-36.6l4,83.7L649.4,1234.4"/>
		<path class="st24" d="M-1307.1,486.8l28,69.5l-83.5-6.7L-1307.1,486.8"/>
		<path class="st24" d="M28.8-1394.5l-74.9,0.5l37-75.1L28.8-1394.5"/>
		<path class="st24" d="M282.3,1365.9l72.9-17.1l-19.3,81.5L282.3,1365.9"/>
		<path class="st24" d="M-150.2,1386.7l74.7,6.1l-43.4,71.6L-150.2,1386.7"/>
		<path class="st24" d="M-665.6,1225.7l66.8,34l-67.4,49.8L-665.6,1225.7"/>
		<path class="st24" d="M-1326.8-430.3l-21.2,71.9l-61.3-57.1L-1326.8-430.3"/>
		<path class="st24" d="M-41.8,1394.2l74.9,0.2l-37.7,74.8L-41.8,1394.2"/>
		<path class="st24" d="M595.8-1261.1l-68.6-30.2l64.5-53.5L595.8-1261.1"/>
		<path class="st24" d="M1259.7-598.8l-34-66.8l83.8-0.6L1259.7-598.8"/>
		<path class="st24" d="M-106.9,1390.7l74.8,3.7l-41.1,73L-106.9,1390.7"/>
		<path class="st24" d="M-1377.5-219.1l-9.8,74.3l-69.4-46.9L-1377.5-219.1"/>
		<path class="st24" d="M-400.2-1336.1l-71.2,23.4l12.2-82.9L-400.2-1336.1"/>
		<path class="st24" d="M-1357.5,320.5l19.2,72.4l-82-17L-1357.5,320.5"/>
		<path class="st24" d="M-1223.6-669.4l-34.2,66.7l-49.6-67.5L-1223.6-669.4"/>
		<path class="st24" d="M779.9,1156.4l61-43.5l13.1,82.7L779.9,1156.4"/>
		<path class="st24" d="M1219.9-676.1l-38.1-64.5l83.6-5.8L1219.9-676.1"/>
		<path class="st24" d="M1000.4-972l-53.6-52.3l79.1-27.5L1000.4-972"/>
		<path class="st24" d="M-1328.4,425.1l24.7,70.7l-83.1-10.6L-1328.4,425.1"/>
		<path class="st24" d="M1378.8,210.5l9.3-74.3l69.7,46.5L1378.8,210.5"/>
		<path class="st24" d="M-1146.6,794.2l44.3,60.4l-82.6,14.1L-1146.6,794.2"/>
		<path class="st24" d="M475.5-1311.2l-71.1-23.6l59.2-59.3L475.5-1311.2"/>
		<path class="st24" d="M-36.4-1394.3l-74.8,4l33.4-76.8L-36.4-1394.3"/>
		<path class="st24" d="M-1289.3-532.2l-26.7,70l-56.6-61.7L-1289.3-532.2"/>
		<path class="st24" d="M-947.5,1023.6l56.3,49.4l-77.6,31.6L-947.5,1023.6"/>
		<path class="st24" d="M-812.8,1133.5l62,42l-73,41L-812.8,1133.5"/>
		<path class="st24" d="M-1392.2,84.2l6.5,74.6l-77.9-30.8L-1392.2,84.2"/>
		<path class="st24" d="M1393.5,59.2l1.2-74.9l74.3,38.6L1393.5,59.2"/>
		<path class="st24" d="M434.4-1325.4l-71.8-21.4l57.3-61.1L434.4-1325.4"/>
		<path class="st24" d="M-959.4-1012.4l-53,53l-26.5-79.5L-959.4-1012.4"/>
		<path class="st25" d="M-322.5,1315.8l-72.2-19.8l56-62.3L-322.5,1315.8"/>
		<path class="st25" d="M-692.4,1164.5l-63.3-40.1l71.7-43.3L-692.4,1164.5"/>
		<path class="st25" d="M-130.2-1348.5l74.7-5.1l-32.2,77.3L-130.2-1348.5"/>
		<path class="st25" d="M-1040.2-868l49.6-56.2l31.4,77.7L-1040.2-868"/>
		<path class="st25" d="M-1337.1,218.1l-10-74.2l79.2,27.1L-1337.1,218.1"/>
		<path class="st25" d="M1075.2-824.3l43.9,60.7l-82.6,13.6L1075.2-824.3"/>
		<path class="st25" d="M-1193.6-641l37.3-65l46.4,69.7L-1193.6-641"/>
		<path class="st25" d="M993.5-921.1l49.4,56.3l-81,21.2L993.5-921.1"/>
		<path class="st25" d="M-1332.6-244.1l15.5-73.3l65.5,52.2L-1332.6-244.1"/>
		<path class="st25" d="M-969.5-946.4l53.8-52.1l25.2,79.9L-969.5-946.4"/>
		<path class="st25" d="M-67-1353.1l74.9-1.6l-35.8,75.7L-67-1353.1"/>
		<path class="st25" d="M-1324.4-285.5l17.8-72.8l63.9,54.2L-1324.4-285.5"/>
		<path class="st25" d="M960.6,955.4l-54.3,51.6l-24.5-80.1L960.6,955.4"/>
		<path class="st25" d="M-1256.3-507.2l30-68.7l53.7,64.3L-1256.3-507.2"/>
		<path class="st25" d="M-1340.4,197.2l-8.9-74.4l78.8,28.3L-1340.4,197.2"/>
		<path class="st25" d="M-1119.7,762.7l-40.4-63.1l83.3-8.9L-1119.7,762.7"/>
		<path class="st25" d="M-1348.1,134.4l-5.4-74.7l77.4,32L-1348.1,134.4"/>
		<path class="st25" d="M-896.9,1015.4l-54.8-51.1l78.5-29.2L-896.9,1015.4"/>
		<path class="st25" d="M-1231.2-565.4l33.1-67.2l50.6,66.7L-1231.2-565.4"/>
		<path class="st25" d="M-1205.8,617.6l-32.3-67.6l83.7,1.5L-1205.8,617.6"/>
		<path class="st25" d="M1276.1-454.9l23.2,71.2l-82.8-12.4L1276.1-454.9"/>
		<path class="st25" d="M1109.5,777.5l-44.7,60.1l-37.8-74.7L1109.5,777.5"/>
		<path class="st25" d="M1259.4,499.4l-29.5,68.8l-54.1-64L1259.4,499.4"/>
		<path class="st25" d="M-954.6-961.4l54.6-51.3l24,80.2L-954.6-961.4"/>
		<path class="st25" d="M-463.9,1272.9l-69.6-27.6l62.4-55.9L-463.9,1272.9"/>
		<path class="st25" d="M-831.9,1069.3l-57.8-47.6l76.5-34L-831.9,1069.3"/>
		<path class="st25" d="M-1321,300.9l-14.6-73.5l80.8,22.1L-1321,300.9"/>
		<path class="st25" d="M-860.7-1046.3l59.1-46l16.4,82.1L-860.7-1046.3"/>
		<path class="st25" d="M681.5-1170.9l63.7,39.5l-71.3,43.9L681.5-1170.9"/>
		<path class="st25" d="M-1314.8-326.6l20.1-72.2l62.1,56.2L-1314.8-326.6"/>
	</g>
</g>
<g id="wrapperHolder">
	<g>
		<text transform="matrix(1 0 0 1 70 62)" class="st26 st27 st28">Tree scale: 1</text>
		<path class="st29" d="M152.1,58.4h280.8"/>
		<path class="st29" d="M152.1,55.4v6 M432.9,55.4v6 M292.5,58.4v2"/>
		<text transform="matrix(1 0 0 1 518.0589 257.3879)" class="st4 st27 st28">S09</text>
		<text transform="matrix(1 0 0 1 543.948 250.8777)" class="st10 st27 st28">S28/33</text>
		<text transform="matrix(1 0 0 1 554.2959 235.7125)" class="st3 st27 st28">S10</text>
		<text transform="matrix(1 0 0 1 581.4633 227.7759)" class="st5 st27 st28">S09/33</text>
		<text transform="matrix(1 0 0 1 625.1979 205.7047)" class="st9 st27 st28">S53</text>
		<text transform="matrix(1 0 0 1 736.7585 256.8569)" class="st8 st27 st28">S12</text>
		<text transform="matrix(1 0 0 1 732.0038 271.9995)" class="st7 st27 st28">M12/43</text>
		<text transform="matrix(1 0 0 1 775.8773 326.7776)" class="st0 st27 st28">M35</text>
		<text transform="matrix(1 0 0 1 489.943 434.3512)" class="st30 st27 st28">M28</text>
		<text transform="matrix(1 0 0 1 492.9968 360.9974)" class="st31 st27 st28">A01</text>
		<text transform="matrix(1 0 0 1 492.9968 322.8437)" class="st32 st27 st28">Papain Inhibitor</text>
	</g>
</g>
<g id="legendHolder">
</g>
</svg>
